<?xml version="1.0" standalone="no"?>
<!DOCTYPE svg PUBLIC "-//W3C//DTD SVG 1.1//EN" "http://www.w3.org/Graphics/SVG/1.1/DTD/svg11.dtd" >
<svg xmlns="http://www.w3.org/2000/svg" xmlns:xlink="http://www.w3.org/1999/xlink" version="1.1">
<metadata>
Created by FontForge 20150318 at Thu Nov 26 10:53:44 2015
 By uniteet7
Copyright (c) 2009 by Eduardo Manso. All rights reserved.
</metadata>
<defs>
<font id="GeogtqBd" horiz-adv-x="260" >
  <font-face 
    font-family="GeogtqBd"
    font-weight="700"
    font-stretch="normal"
    units-per-em="1000"
    panose-1="2 0 0 0 0 0 0 0 0 0"
    ascent="750"
    descent="-250"
    x-height="500"
    cap-height="680"
    bbox="-97.814 -278 1411 964"
    underline-thickness="50"
    underline-position="-50"
    unicode-range="U+0020-FB04"
  />
<missing-glyph horiz-adv-x="841" 
d="M668 94q-104 -102 -249 -102q-144 0 -246 102q-103 101 -103 247q0 144 103 247q102 102 246 102q147 0 249 -102q103 -103 103 -247t-103 -247zM656 106q99 99 99 235t-99 235q-98 98 -237 98q-136 0 -234 -98q-99 -99 -99 -235q0 -137 99 -235q98 -98 234 -98
q139 0 237 98zM512 160l-92 92l-92 -92q-22 -22 -42 0l-51 52q-21 20 1 40l92 92l-92 92q-22 22 -2 41l51 52q22 21 43 -1l92 -92l92 92q22 22 41 2l52 -51q21 -22 -1 -43l-92 -92l92 -92q22 -22 0 -42l-52 -51q-20 -21 -40 1z" />
    <glyph glyph-name="ff" unicode="ff" horiz-adv-x="675" 
d="M93 498h1v49q0 73 58 114.5t169 41.5h11q30 0 30 -29v-71q0 -30 -30 -30h-11q-67 0 -67 -44v-31h153v49q0 73 58 114.5t169 41.5h11q30 0 30 -29v-71q0 -30 -30 -30h-11q-67 0 -67 -44v-31h71q30 0 30 -28v-68q0 -29 -30 -29h-71v-343q0 -30 -28 -30h-103q-29 0 -29 30
v343h-153v-343q0 -30 -28 -30h-103q-29 0 -29 30v343h-50q-16 0 -22.5 6.5t-6.5 22.5v61q0 15 6 21t23 8z" />
    <glyph glyph-name="fi" unicode="fi" horiz-adv-x="617" 
d="M567 470v-440q0 -30 -28 -30h-103q-29 0 -29 30v343h-153v-343q0 -30 -28 -30h-103q-29 0 -29 30v343h-50q-16 0 -22.5 6.5t-6.5 22.5v61q0 15 6 21t23 8l49 6h1v45q0 73 58 114.5t169 41.5h216q30 0 30 -29v-71q0 -30 -30 -30h-216q-67 0 -67 -44v-27h283q30 0 30 -28z
" />
    <glyph glyph-name="fl" unicode="fl" horiz-adv-x="617" 
d="M567 670v-640q0 -30 -28 -30h-103q-29 0 -29 30v539h-86q-67 0 -67 -44v-27h71q30 0 30 -28v-68q0 -29 -30 -29h-71v-343q0 -30 -28 -30h-103q-29 0 -29 30v343h-50q-16 0 -22.5 6.5t-6.5 22.5v61q0 15 6 21t23 8l49 6h1v45q0 73 58 114.5t169 41.5h216q30 0 30 -29z" />
    <glyph glyph-name="ffi" unicode="ffi" horiz-adv-x="930" 
d="M93 498h1v49q0 73 58 114.5t169 41.5h11q30 0 30 -29v-71q0 -30 -30 -30h-11q-67 0 -67 -44v-31h153v45q0 73 58 114.5t169 41.5h216q30 0 30 -29v-71q0 -30 -30 -30h-216q-67 0 -67 -44v-27h283q30 0 30 -28v-440q0 -30 -28 -30h-103q-29 0 -29 30v343h-153v-343
q0 -30 -28 -30h-103q-29 0 -29 30v343h-153v-343q0 -30 -28 -30h-103q-29 0 -29 30v343h-50q-16 0 -22.5 6.5t-6.5 22.5v61q0 15 6 21t23 8z" />
    <glyph glyph-name="ffl" unicode="ffl" horiz-adv-x="930" 
d="M93 498h1v49q0 73 58 114.5t169 41.5h11q30 0 30 -29v-71q0 -30 -30 -30h-11q-67 0 -67 -44v-31h153v45q0 73 58 114.5t169 41.5h216q30 0 30 -29v-640q0 -30 -28 -30h-103q-29 0 -29 30v539h-86q-67 0 -67 -44v-27h71q30 0 30 -28v-68q0 -29 -30 -29h-71v-343
q0 -30 -28 -30h-103q-29 0 -29 30v343h-153v-343q0 -30 -28 -30h-103q-29 0 -29 30v343h-50q-16 0 -22.5 6.5t-6.5 22.5v61q0 15 6 21t23 8z" />
    <glyph glyph-name=".notdef" horiz-adv-x="841" 
d="M668 94q-104 -102 -249 -102q-144 0 -246 102q-103 101 -103 247q0 144 103 247q102 102 246 102q147 0 249 -102q103 -103 103 -247t-103 -247zM656 106q99 99 99 235t-99 235q-98 98 -237 98q-136 0 -234 -98q-99 -99 -99 -235q0 -137 99 -235q98 -98 234 -98
q139 0 237 98zM512 160l-92 92l-92 -92q-22 -22 -42 0l-51 52q-21 20 1 40l92 92l-92 92q-22 22 -2 41l51 52q22 21 43 -1l92 -92l92 92q22 22 41 2l52 -51q21 -22 -1 -43l-92 -92l92 -92q22 -22 0 -42l-52 -51q-20 -21 -40 1z" />
    <glyph glyph-name=".null" horiz-adv-x="0" 
 />
    <glyph glyph-name="nonmarkingreturn" horiz-adv-x="333" 
 />
    <glyph glyph-name="space" unicode=" " horiz-adv-x="180" 
 />
    <glyph glyph-name="exclam" unicode="!" horiz-adv-x="288" 
d="M227 390l-16 -170q-2 -17 -7.5 -23.5t-20.5 -6.5h-77q-15 0 -21 7t-8 23l-16 170v260q0 30 29 30h109q28 0 28 -30v-260zM225 112v-83q0 -16 -6 -22.5t-22 -6.5h-108q-16 0 -22.5 6.5t-6.5 22.5v83q0 30 29 30h108q28 0 28 -30z" />
    <glyph glyph-name="quotedbl" unicode="&#x22;" horiz-adv-x="455" 
d="M207 650l-13 -160q0 -30 -28 -30h-73q-15 0 -21 7t-8 23l-13 160q-3 30 29 30h99q31 0 28 -30zM404 650l-13 -160q0 -30 -28 -30h-73q-15 0 -21 7t-8 23l-13 160q-3 30 29 30h99q31 0 28 -30z" />
    <glyph glyph-name="numbersign" unicode="#" horiz-adv-x="690" 
d="M90 273h63l17 59h-30q-30 0 -30 29v53q0 28 30 28h62l20 70q8 30 36 30h73q30 0 21 -30l-20 -70h109l20 70q8 30 36 30h73q30 0 21 -30l-20 -70h29q30 0 30 -28v-53q0 -29 -30 -29h-61l-17 -59h28q30 0 30 -28v-53q0 -29 -30 -29h-60l-20 -71q-9 -30 -36 -30h-73
q-30 0 -21 30l20 71h-109l-20 -71q-9 -30 -36 -30h-73q-30 0 -21 30l20 71h-31q-30 0 -30 29v53q0 28 30 28zM300 332l-17 -59h109l17 59h-109z" />
    <glyph glyph-name="dollar" unicode="$" horiz-adv-x="540" 
d="M328 442v14q0 32 -55 32q-54 0 -54 -32v-5q0 -19 21 -27l140 -50q100 -36 100 -108v-48q0 -42 -30.5 -76.5t-92.5 -50.5v-61q0 -30 -28 -30h-103q-29 0 -29 30v58q-70 13 -103.5 49t-33.5 81v21q0 27 27 27h92q27 0 27 -27v-14q0 -32 63 -32q64 0 64 32v9q0 10 -8 16
t-31 15l-141 54q-30 11 -54.5 42.5t-24.5 66.5v28q0 45 29.5 82t93.5 52v60q0 30 29 30h103q28 0 28 -30v-62q61 -15 89 -51.5t28 -80.5v-14q0 -15 -6 -21.5t-22 -6.5h-91q-27 0 -27 28z" />
    <glyph glyph-name="percent" unicode="%" horiz-adv-x="912" 
d="M60 475v94q0 119 166 119q165 0 165 -119v-94q0 -119 -165 -119q-166 0 -166 119zM261 481v83q0 22 -36 22q-35 0 -35 -22v-83q0 -23 35 -23q36 0 36 23zM722 115v83q0 22 -36 22q-35 0 -35 -22v-83q0 -23 35 -23q36 0 36 23zM521 109v94q0 119 166 119q165 0 165 -119
v-94q0 -119 -165 -119q-166 0 -166 119zM693 650l-328 -620q-16 -30 -43 -30h-86q-13 0 -16.5 10.5t2.5 19.5l328 620q15 30 43 30h86q13 0 17 -9t-3 -21z" />
    <glyph glyph-name="ampersand" unicode="&#x26;" horiz-adv-x="708" 
d="M305 411h343q30 0 30 -28v-73q0 -29 -30 -29h-51v-118q0 -75 -62.5 -123t-212.5 -48q-272 0 -272 167v78q0 79 80 114q-70 27 -70 100v70q0 167 235 167q68 0 116 -14t74 -39.5t37 -54t11 -63.5v-36q0 -30 -28 -30h-103q-29 0 -29 30v12q0 65 -76 65q-75 0 -75 -65v-17
q0 -65 83 -65zM324 122q113 0 113 65v94h-142q-83 0 -83 -64v-30q0 -65 112 -65z" />
    <glyph glyph-name="quotesingle" unicode="'" horiz-adv-x="258" 
d="M207 650l-13 -160q-2 -17 -7.5 -23.5t-20.5 -6.5h-73q-15 0 -21 7t-8 23l-13 160q-3 30 29 30h99q31 0 28 -30z" />
    <glyph glyph-name="parenleft" unicode="(" horiz-adv-x="358" 
d="M50 -62v614q0 73 58 114.5t169 41.5h11q30 0 30 -29v-71q0 -30 -30 -30h-11q-32 0 -47 -10t-15 -34v-578q0 -24 15 -34t47 -10h11q30 0 30 -30v-71q0 -29 -30 -29h-11q-111 0 -169 41.5t-58 114.5z" />
    <glyph glyph-name="parenright" unicode=")" horiz-adv-x="358" 
d="M308 552v-614q0 -73 -58 -114.5t-169 -41.5h-11q-30 0 -30 29v71q0 30 30 30h11q32 0 47 10t15 34v578q0 24 -15 34t-47 10h-11q-30 0 -30 30v71q0 29 30 29h11q111 0 169 -41.5t58 -114.5z" />
    <glyph glyph-name="asterisk" unicode="*" horiz-adv-x="555" 
d="M306 258h-53q-31 0 -28 30l10 117l-104 -67q-26 -17 -40 11l-24 47q-14 28 13 39l100 42l-100 43q-27 11 -13 39l24 47q14 28 40 11l105 -68l-11 129q-3 30 29 30h53q31 0 28 -30l-11 -125l100 64q26 17 40 -10l25 -48q14 -28 -13 -39l-101 -43l101 -42q27 -11 13 -39
l-25 -48q-14 -28 -40 -10l-99 63l10 -113q3 -30 -29 -30z" />
    <glyph glyph-name="plus" unicode="+" horiz-adv-x="551" 
d="M210 143v130h-130q-30 0 -30 29v73q0 28 30 28h130v131q0 30 28 30h73q29 0 29 -30v-131h131q30 0 30 -28v-73q0 -29 -30 -29h-131v-130q0 -30 -29 -30h-73q-28 0 -28 30z" />
    <glyph glyph-name="comma" unicode="," horiz-adv-x="293" 
d="M80 42v70q0 30 29 30h106q28 0 28 -30v-79q0 -122 -165 -160q-28 -7 -37 20l-24 68q-10 28 20 37q25 7 34 17t9 27z" />
    <glyph glyph-name="hyphen" unicode="-" horiz-adv-x="427" 
d="M80 353h267q30 0 30 -28v-73q0 -29 -30 -29h-267q-30 0 -30 29v73q0 28 30 28z" />
    <glyph glyph-name="period" unicode="." horiz-adv-x="263" 
d="M213 112v-83q0 -16 -6 -22.5t-22 -6.5h-106q-16 0 -22.5 6.5t-6.5 22.5v83q0 30 29 30h106q28 0 28 -30z" />
    <glyph glyph-name="slash" unicode="/" horiz-adv-x="365" 
d="M363 669l-191 -787q-7 -30 -34 -30h-113q-31 0 -23 30l191 787q7 30 34 30h113q31 0 23 -30z" />
    <glyph glyph-name="zero" unicode="0" horiz-adv-x="571" 
d="M40 163v354q0 72 59.5 121.5t185.5 49.5t186 -49.5t60 -121.5v-354q0 -72 -60 -121.5t-186 -49.5t-185.5 49.5t-59.5 121.5zM366 192v296q0 65 -81 65q-80 0 -80 -65v-296q0 -65 80 -65q81 0 81 65z" />
    <glyph glyph-name="one" unicode="1" horiz-adv-x="571" 
d="M91 647l261 41q12 2 20 -3.5t8 -24.5v-525h119q30 0 30 -28v-78q0 -29 -30 -29h-408q-30 0 -30 29v78q0 28 30 28h124v395l-124 -18q-30 -5 -30 25v78q0 27 30 32z" />
    <glyph glyph-name="two" unicode="2" horiz-adv-x="571" 
d="M221 135h279q30 0 30 -28v-78q0 -29 -30 -29h-414q-30 0 -30 29v180q0 37 14.5 55t46.5 33l213 97q32 14 32 53v44q0 65 -81 65q-80 0 -80 -65v-36q0 -30 -28 -30h-103q-29 0 -29 30v62q0 73 57.5 122t182.5 49t184 -49t60 -122v-64q0 -123 -97 -166l-169 -77
q-24 -11 -31 -20t-7 -30v-25z" />
    <glyph glyph-name="three" unicode="3" horiz-adv-x="571" 
d="M211 411h61q83 0 83 65v17q0 65 -75 65q-76 0 -76 -65v-12q0 -30 -29 -30h-103q-28 0 -28 30v36q0 35 11 63.5t37 54t74 39.5t116 14q235 0 235 -167v-70q0 -73 -70 -100q80 -35 80 -114v-78q0 -73 -56.5 -120t-185.5 -47q-130 0 -187.5 48.5t-57.5 122.5v36q0 30 28 30
h103q29 0 29 -30v-12q0 -65 83 -65q82 0 82 65v30q0 64 -83 64h-71q-30 0 -30 29v73q0 28 30 28z" />
    <glyph glyph-name="four" unicode="4" horiz-adv-x="571" 
d="M296 650l-100 -344h155v344q0 30 29 30h108q28 0 28 -30v-620q0 -30 -28 -30h-108q-29 0 -29 30v141h-295q-30 0 -30 29v77q0 6 3 18l102 355q8 30 36 30h108q29 0 21 -30z" />
    <glyph glyph-name="five" unicode="5" horiz-adv-x="571" 
d="M98 680h381q30 0 30 -28v-78q0 -29 -30 -29h-244v-98h49q130 0 188.5 -48.5t58.5 -121.5v-115q0 -74 -58 -122.5t-188 -48.5t-188 48.5t-58 122.5v36q0 30 28 30h103q29 0 29 -30v-12q0 -65 84 -65q83 0 83 65v67q0 64 -83 64h-185q-28 0 -28 30v303q0 30 28 30z" />
    <glyph glyph-name="six" unicode="6" horiz-adv-x="571" 
d="M47 163v354q0 73 56 122t181 49t179 -48.5t54 -122.5v-30q0 -30 -29 -30h-103q-28 0 -28 30v6q0 65 -73 65q-74 0 -74 -65v-95q47 22 98 22q107 0 161.5 -50t54.5 -121v-86q0 -73 -57 -122t-182 -49t-181.5 49t-56.5 122zM361 187v38q0 65 -76 65q-75 0 -75 -59v-44
q0 -65 75 -65q76 0 76 65z" />
    <glyph glyph-name="seven" unicode="7" horiz-adv-x="571" 
d="M67 680h446q30 0 30 -28v-76q0 -10 -5 -22l-237 -524q-14 -30 -37 -30h-122q-34 0 -20 30l235 515h-290q-30 0 -30 29v78q0 28 30 28z" />
    <glyph glyph-name="eight" unicode="8" horiz-adv-x="571" 
d="M60 451v66q0 171 225 171q226 0 226 -171v-66q0 -68 -68 -102q80 -35 80 -103v-83q0 -73 -56.5 -122t-181.5 -49t-181 49t-56 122v83q0 68 79 103q-67 34 -67 102zM361 187v33q0 63 -76 63q-75 0 -75 -63v-33q0 -65 75 -65q76 0 76 65zM351 477v16q0 65 -66 65
q-33 0 -49 -15.5t-16 -49.5v-16q0 -34 16 -49.5t49 -15.5q66 0 66 65z" />
    <glyph glyph-name="nine" unicode="9" horiz-adv-x="571" 
d="M524 517v-354q0 -73 -56 -122t-181 -49t-179 48.5t-54 122.5v30q0 30 29 30h103q28 0 28 -30v-6q0 -65 73 -65q74 0 74 65v94q-45 -21 -98 -21q-107 0 -161.5 50t-54.5 121v86q0 73 57 122t182 49t181.5 -49t56.5 -122zM361 455v39q-1 64 -75 64q-76 0 -76 -65v-38
q0 -65 76 -65q75 0 75 65z" />
    <glyph glyph-name="colon" unicode=":" horiz-adv-x="263" 
d="M213 112v-83q0 -16 -6 -22.5t-22 -6.5h-106q-16 0 -22.5 6.5t-6.5 22.5v83q0 30 29 30h106q28 0 28 -30zM213 470v-83q0 -16 -6 -22.5t-22 -6.5h-106q-16 0 -22.5 6.5t-6.5 22.5v83q0 30 29 30h106q28 0 28 -30z" />
    <glyph glyph-name="semicolon" unicode=";" horiz-adv-x="299" 
d="M249 470v-83q0 -16 -6 -22.5t-22 -6.5h-106q-16 0 -22.5 6.5t-6.5 22.5v83q0 30 29 30h106q28 0 28 -30zM86 42v70q0 30 29 30h106q28 0 28 -30v-79q0 -122 -165 -160q-28 -7 -37 20l-24 68q-10 28 20 37q25 7 34 17t9 27z" />
    <glyph glyph-name="less" unicode="&#x3c;" horiz-adv-x="515" 
d="M435 419l-230 -81l230 -80q16 -5 23 -12t7 -21v-98q0 -17 -8 -26t-22 -3l-358 151q-10 4 -14.5 6.5t-8.5 9t-4 16.5v115q0 10 4 16.5t8.5 9t14.5 6.5l358 151q14 6 22 -3t8 -26v-98q0 -14 -7 -21t-23 -12z" />
    <glyph glyph-name="equal" unicode="=" horiz-adv-x="577" 
d="M80 490h417q30 0 30 -28v-73q0 -29 -30 -29h-417q-30 0 -30 29v73q0 28 30 28zM80 274h417q30 0 30 -28v-73q0 -29 -30 -29h-417q-30 0 -30 29v73q0 28 30 28z" />
    <glyph glyph-name="greater" unicode="&#x3e;" horiz-adv-x="515" 
d="M310 338l-230 81q-16 5 -23 12t-7 21v98q0 17 8 26t22 3l358 -151q10 -4 14.5 -6.5t8.5 -9t4 -16.5v-115q0 -10 -4 -16.5t-8.5 -9t-14.5 -6.5l-358 -151q-14 -6 -22 3t-8 26v98q0 14 7 21t23 12z" />
    <glyph glyph-name="question" unicode="?" horiz-adv-x="564" 
d="M165 219v65q0 37 15 55t46 33l103 52q32 16 32 53v14q0 65 -81 65q-80 0 -80 -65v-36q0 -30 -28 -30h-103q-29 0 -29 30v62q0 73 57.5 122t182.5 49t184 -49t60 -122v-34q0 -123 -97 -166l-59 -26q-24 -11 -31 -20t-7 -30v-22q0 -16 -6 -22.5t-22 -6.5h-108
q-16 0 -22.5 6.5t-6.5 22.5zM330 112v-83q0 -16 -6 -22.5t-22 -6.5h-108q-16 0 -22.5 6.5t-6.5 22.5v83q0 30 29 30h108q28 0 28 -30z" />
    <glyph glyph-name="at" unicode="@" horiz-adv-x="1002" 
d="M672 -162h-171q-112 0 -194 15t-128.5 37.5t-74 56.5t-36 66t-8.5 72v332q0 40 8.5 72t36 66t74 56.5t128.5 37.5t194 15t194 -15t128.5 -37.5t74 -56.5t36 -66t8.5 -72v-211q0 -80 -50.5 -126.5t-161.5 -46.5q-118 0 -165 61q-70 -61 -156 -61q-128 0 -128 128
q0 17 1 26l10 117q6 75 43 114.5t101 39.5q63 0 131 -46l2 8q4 17 10.5 23.5t21.5 6.5h91q29 0 26 -30l-19 -182q-2 -25 -2.5 -45t10 -33t33.5 -13q29 0 38 21t9 60v182q0 44 -21 70t-85 41.5t-180 15.5t-180 -16t-85 -42t-21 -70v-316q0 -44 21 -70t85 -42t180 -16h171
q30 0 30 -30v-68q0 -29 -30 -29zM444 272l-5 -57q-2 -17 6.5 -27.5t32.5 -10.5q30 0 62 15v1l10 101q-33 25 -62 25q-39 0 -44 -47z" />
    <glyph glyph-name="A" unicode="A" horiz-adv-x="566" 
d="M337 680q28 0 37 -30l181 -620q9 -30 -22 -30h-111q-27 0 -35 30l-26 96h-166l-26 -96q-8 -30 -35 -30h-101q-31 0 -22 30l181 620q9 30 37 30h108zM325 256l-14 54q-13 51 -31 209q-25 -178 -34 -209l-15 -54h94z" />
    <glyph glyph-name="B" unicode="B" horiz-adv-x="599" 
d="M310 0h-221q-29 0 -29 30v620q0 30 29 30h188q133 0 193.5 -43t60.5 -113v-55q0 -72 -68 -111q101 -41 101 -120v-74q0 -72 -61 -118t-193 -46zM310 284h-85v-154h85q40 0 65.5 15.5t25.5 48.5v32q0 27 -26 42.5t-65 15.5zM277 550h-52v-144h52q40 0 65.5 16.5t25.5 49.5
v26q0 31 -23.5 41.5t-67.5 10.5z" />
    <glyph glyph-name="C" unicode="C" horiz-adv-x="577" 
d="M542 224v-61q0 -74 -58 -122.5t-188 -48.5t-188 48.5t-58 122.5v354q0 74 58 122.5t188 48.5t188 -48.5t58 -122.5v-46q0 -30 -28 -30h-103q-29 0 -29 30v17q0 65 -84 65q-83 0 -83 -65v-296q0 -65 83 -65q84 0 84 65v32q0 30 29 30h103q28 0 28 -30z" />
    <glyph glyph-name="D" unicode="D" horiz-adv-x="621" 
d="M315 0h-230q-25 0 -25 30v620q0 30 29 30h226q131 0 193.5 -49.5t62.5 -121.5v-338q0 -72 -62.5 -121.5t-193.5 -49.5zM315 545h-90v-410h90q40 0 65.5 16t25.5 49v280q0 33 -25.5 49t-65.5 16z" />
    <glyph glyph-name="E" unicode="E" horiz-adv-x="506" 
d="M441 0h-352q-29 0 -29 30v620q0 30 29 30h342q30 0 30 -28v-78q0 -29 -30 -29h-206v-130h190q30 0 30 -28v-73q0 -29 -30 -29h-190v-150h216q30 0 30 -28v-78q0 -29 -30 -29z" />
    <glyph glyph-name="F" unicode="F" horiz-adv-x="514" 
d="M454 680q30 0 30 -28v-78q0 -29 -30 -29h-229v-130h213q30 0 30 -28v-78q0 -29 -30 -29h-213v-250q0 -30 -28 -30h-108q-29 0 -29 30v620q0 30 29 30h365z" />
    <glyph glyph-name="G" unicode="G" horiz-adv-x="587" 
d="M300 370h212q30 0 30 -28v-179q0 -74 -58 -122.5t-188 -48.5t-188 48.5t-58 122.5v354q0 74 58 122.5t188 48.5t188 -48.5t58 -122.5v-36q0 -30 -28 -30h-103q-29 0 -29 30v7q0 65 -84 65q-83 0 -83 -65v-296q0 -65 83 -65q84 0 84 65v43h-82q-30 0 -30 29v78q0 28 30 28
z" />
    <glyph glyph-name="H" unicode="H" horiz-adv-x="631" 
d="M225 650v-238h181v238q0 30 29 30h108q28 0 28 -30v-620q0 -30 -28 -30h-108q-29 0 -29 30v247h-181v-247q0 -30 -28 -30h-108q-29 0 -29 30v620q0 30 29 30h108q28 0 28 -30z" />
    <glyph glyph-name="I" unicode="I" horiz-adv-x="285" 
d="M225 650v-620q0 -30 -28 -30h-108q-29 0 -29 30v620q0 30 29 30h108q28 0 28 -30z" />
    <glyph glyph-name="J" unicode="J" horiz-adv-x="523" 
d="M172 229v-37q0 -65 70 -65q32 0 46.5 15.5t14.5 49.5v458q0 30 29 30h108q28 0 28 -30v-487q0 -74 -52 -122.5t-174 -48.5t-177 49t-55 122v66q0 30 29 30h105q28 0 28 -30z" />
    <glyph glyph-name="K" unicode="K" horiz-adv-x="600" 
d="M374 346l215 -316q8 -11 4 -20.5t-19 -9.5h-138q-22 0 -42 30l-158 245h-11v-245q0 -30 -28 -30h-108q-29 0 -29 30v620q0 30 29 30h108q28 0 28 -30v-255h10l153 255q19 30 47 30h115q15 0 18.5 -9t-4.5 -21z" />
    <glyph glyph-name="L" unicode="L" horiz-adv-x="471" 
d="M225 650v-515h196q30 0 30 -28v-78q0 -29 -30 -29h-336q-25 0 -25 30v620q0 30 29 30h108q28 0 28 -30z" />
    <glyph glyph-name="M" unicode="M" horiz-adv-x="756" 
d="M696 650v-620q0 -30 -28 -30h-103q-29 0 -29 30v317l-4 -13q-3 -13 -7.5 -28.5t-10.5 -34t-10 -29.5l-44 -109q-12 -30 -39 -30h-87q-25 0 -38 30l-55 127q-12 29 -26 84v-314q0 -30 -28 -30h-98q-29 0 -29 30v620q0 30 29 30h98q18 0 26 -16l136 -306q6 -15 13 -34
t11 -31.5t5 -13.5q0 10 29 77l131 310q6 14 27 14h103q28 0 28 -30z" />
    <glyph glyph-name="N" unicode="N" horiz-adv-x="631" 
d="M571 650v-620q0 -30 -28 -30h-98q-19 0 -27 14l-160 266q-20 32 -43 90v-340q0 -30 -28 -30h-98q-29 0 -29 30v620q0 30 29 30h98q19 0 25 -12l169 -283q14 -24 35 -75v340q0 30 29 30h98q28 0 28 -30z" />
    <glyph glyph-name="O" unicode="O" horiz-adv-x="611" 
d="M50 163v354q0 72 62 121.5t193 49.5t193.5 -49.5t62.5 -121.5v-354q0 -72 -62.5 -121.5t-193.5 -49.5t-193 49.5t-62 121.5zM396 192v296q0 33 -25.5 49t-65.5 16t-65 -16t-25 -49v-296q0 -33 25 -49t65 -16t65.5 16t25.5 49z" />
    <glyph glyph-name="P" unicode="P" horiz-adv-x="586" 
d="M305 231h-80v-201q0 -30 -28 -30h-108q-29 0 -29 30v620q0 30 29 30h216q131 0 192.5 -49t61.5 -122v-107q0 -73 -61.5 -122t-192.5 -49zM305 545h-80v-179h80q40 0 65.5 16t25.5 49v49q0 33 -25.5 49t-65.5 16z" />
    <glyph glyph-name="Q" unicode="Q" horiz-adv-x="611" 
d="M561 517v-354q0 -53 -33 -94.5t-103 -61.5l95 -84q24 -21 4 -41l-54 -58q-19 -21 -41 -2l-189 174q-98 12 -144 58t-46 109v354q0 72 62 121.5t193 49.5t193.5 -49.5t62.5 -121.5zM215 492v-304q0 -33 25 -49t65 -16t65.5 16t25.5 49v304q0 33 -25.5 49t-65.5 16t-65 -16
t-25 -49z" />
    <glyph glyph-name="R" unicode="R" horiz-adv-x="604" 
d="M559 422q0 -102 -104 -146l98 -246q5 -13 -3 -21.5t-25 -8.5h-108q-5 0 -8.5 1.5t-6 3t-5 5.5t-3.5 5.5t-4 8.5l-2 6l-88 221h-75v-221q0 -30 -28 -30h-108q-29 0 -29 30v620q0 30 29 30h216q131 0 192.5 -49t61.5 -122v-87zM305 545h-80v-159h80q40 0 65.5 16t25.5 49
v29q0 33 -25.5 49t-65.5 16z" />
    <glyph glyph-name="S" unicode="S" horiz-adv-x="575" 
d="M372 480v15q0 63 -78 63q-79 0 -79 -63v-10q0 -31 32 -43l168 -57q58 -19 91.5 -58t33.5 -93v-71q0 -73 -59 -122t-190 -49t-191 49t-60 122v67q0 30 29 30h104q28 0 28 -30v-45q0 -63 88 -63q89 0 89 63v20q0 17 -15.5 31t-29.5 20t-41 16l-144 54q-39 15 -66 52.5
t-27 80.5v58q0 74 54.5 122.5t182.5 48.5t184.5 -48.5t56.5 -122.5v-37q0 -30 -29 -30h-104q-28 0 -28 30z" />
    <glyph glyph-name="T" unicode="T" horiz-adv-x="497" 
d="M38 680h421q30 0 30 -28v-78q0 -29 -30 -29h-128v-515q0 -30 -28 -30h-108q-29 0 -29 30v515h-128q-30 0 -30 29v78q0 28 30 28z" />
    <glyph glyph-name="U" unicode="U" horiz-adv-x="621" 
d="M220 650v-458q0 -33 25 -49t65 -16t65.5 16t25.5 49v458q0 30 29 30h108q28 0 28 -30v-487q0 -72 -62.5 -121.5t-193.5 -49.5t-193 49.5t-62 121.5v487q0 30 29 30h108q28 0 28 -30z" />
    <glyph glyph-name="V" unicode="V" horiz-adv-x="566" 
d="M337 0h-108q-28 0 -37 30l-181 620q-9 30 22 30h118q27 0 35 -30l75 -280q7 -25 13 -65.5t9 -68.5l3 -29q13 107 28 163l76 280q8 30 35 30h108q31 0 22 -30l-181 -620q-9 -30 -37 -30z" />
    <glyph glyph-name="W" unicode="W" horiz-adv-x="855" 
d="M521 650l68 -279q11 -45 17 -108q9 72 18 107l70 280q8 30 35 30h94q30 0 22 -30l-156 -620q-7 -30 -37 -30h-105q-25 0 -33 30l-72 288q-9 35 -14 101q-6 -63 -15 -102l-72 -287q-7 -30 -37 -30h-105q-25 0 -33 30l-156 620q-8 30 22 30h110q27 0 35 -30l68 -280
q3 -14 6.5 -33.5t6 -36t3.5 -19.5q6 40 18 89l71 280q8 30 35 30h101q27 0 35 -30z" />
    <glyph glyph-name="X" unicode="X" horiz-adv-x="584" 
d="M379 351l184 -321q7 -12 3.5 -21t-18.5 -9h-124q-25 0 -42 30l-102 177l-89 -177q-15 -30 -42 -30h-116q-14 0 -17 11.5t5 23.5l176 318l-168 294q-8 13 -5.5 23t17.5 10h124q26 0 43 -30l91 -160l85 160q16 30 43 30h114q15 0 18.5 -8.5t-4.5 -21.5z" />
    <glyph glyph-name="Y" unicode="Y" horiz-adv-x="558" 
d="M191 650l71 -199q7 -20 17 -60q9 35 20 60l84 199q12 30 35 30h106q16 0 22 -8t0 -22l-184 -398v-222q0 -30 -28 -30h-108q-29 0 -29 30v202l-185 418q-6 14 -0.5 22t21.5 8h122q26 0 36 -30z" />
    <glyph glyph-name="Z" unicode="Z" horiz-adv-x="494" 
d="M72 680h359q30 0 30 -28v-78q0 -10 -6 -22l-232 -417h226q30 0 30 -28v-78q0 -29 -30 -29h-394q-30 0 -30 29v78q0 12 5 20l233 418h-191q-30 0 -30 29v78q0 28 30 28z" />
    <glyph glyph-name="bracketleft" unicode="[" horiz-adv-x="407" 
d="M50 -181v850q0 30 29 30h248q30 0 30 -28v-78q0 -29 -30 -29h-112v-640h112q30 0 30 -29v-78q0 -28 -30 -28h-248q-29 0 -29 30z" />
    <glyph glyph-name="backslash" unicode="\" horiz-adv-x="365" 
d="M193 -118l-191 787q-8 30 23 30h113q15 0 22.5 -7t11.5 -23l191 -787q7 -30 -23 -30h-113q-27 0 -34 30z" />
    <glyph glyph-name="bracketright" unicode="]" horiz-adv-x="407" 
d="M357 669v-850q0 -30 -29 -30h-248q-30 0 -30 28v78q0 29 30 29h112v640h-112q-30 0 -30 29v78q0 28 30 28h248q29 0 29 -30z" />
    <glyph glyph-name="asciicircum" unicode="^" horiz-adv-x="586" 
d="M373 295l-81 230l-80 -230q-5 -16 -12 -23t-21 -7h-98q-17 0 -26 8t-3 22l151 358q4 10 6.5 14.5t9 8.5t16.5 4h115q10 0 16.5 -4t9 -8.5t6.5 -14.5l151 -358q6 -14 -3 -22t-26 -8h-98q-14 0 -21 7t-12 23z" />
    <glyph glyph-name="underscore" unicode="_" horiz-adv-x="467" 
d="M50 -69h367q30 0 30 -28v-73q0 -29 -30 -29h-367q-30 0 -30 29v73q0 28 30 28z" />
    <glyph glyph-name="grave" unicode="`" horiz-adv-x="306" 
d="M113 577l-69 101q-9 13 -5 21.5t20 8.5h107q28 0 41 -30l40 -92q12 -29 -16 -29h-79q-26 0 -39 20z" />
    <glyph glyph-name="a" unicode="a" horiz-adv-x="522" 
d="M54 345v12q0 151 212 151q211 0 211 -151v-327q0 -30 -29 -30h-92q-16 0 -21.5 6.5t-7.5 23.5l-2 15q-64 -53 -140 -53q-72 0 -109.5 37t-37.5 91v43q0 54 42.5 91.5t117.5 37.5h122v55q0 24 -13 35t-44 11q-32 0 -46 -9t-14 -32v-7q0 -16 -6.5 -22.5t-22.5 -6.5h-91
q-16 0 -22.5 6.5t-6.5 22.5zM228 116q39 0 92 37v33h-92q-34 0 -34 -31v-13q0 -26 34 -26z" />
    <glyph glyph-name="b" unicode="b" horiz-adv-x="548" 
d="M175 0h-96q-29 0 -29 30v639q0 30 29 30h103q28 0 28 -30v-213q66 52 150 52q74 0 111 -40.5t37 -113.5v-208q0 -73 -37 -113.5t-111 -40.5q-84 0 -154 55l-2 -17q-2 -16 -8 -23t-21 -7zM348 171v158q0 13 -1.5 20.5t-10.5 14.5t-27 7q-44 0 -99 -41v-160q55 -41 99 -41
q18 0 27 7t10.5 14.5t1.5 20.5z" />
    <glyph glyph-name="c" unicode="c" horiz-adv-x="498" 
d="M257 508q110 0 163 -41t53 -115v-15q0 -16 -6.5 -22.5t-22.5 -6.5h-95q-16 0 -22.5 6.5t-6.5 22.5v3q0 24 -14 33.5t-46 9.5t-46 -9.5t-14 -33.5v-179q0 -24 14 -34t46 -10t46 10t14 34v12q0 16 6.5 22.5t22.5 6.5h95q16 0 22.5 -6.5t6.5 -22.5v-25q0 -74 -53.5 -115
t-163.5 -41t-163 41t-53 115v204q0 74 53.5 115t163.5 41z" />
    <glyph glyph-name="d" unicode="d" horiz-adv-x="548" 
d="M344 30l-2 17q-70 -55 -154 -55q-74 0 -111 40.5t-37 113.5v208q0 73 37 113.5t111 40.5q81 0 150 -52v213q0 30 28 30h103q29 0 29 -30v-639q0 -30 -29 -30h-96q-15 0 -21 7t-8 23zM200 329v-158q0 -13 1.5 -20.5t10.5 -14.5t27 -7q42 0 99 41v160q-57 41 -99 41
q-18 0 -27 -7t-10.5 -14.5t-1.5 -20.5z" />
    <glyph glyph-name="e" unicode="e" horiz-adv-x="503" 
d="M466 352v-111q0 -27 -27 -27h-243v-60q0 -44 60 -44q61 0 61 44v1q0 16 6.5 22.5t22.5 6.5h86q16 0 22.5 -6.5t6.5 -22.5v-7q0 -156 -205 -156q-110 0 -163 41t-53 115v204q0 74 53 115t163 41q210 0 210 -156zM196 345v-29h121v29q0 45 -61 45q-60 0 -60 -45z" />
    <glyph glyph-name="f" unicode="f" horiz-adv-x="362" 
d="M93 498h1v49q0 73 58 114.5t169 41.5h11q30 0 30 -29v-71q0 -30 -30 -30h-11q-67 0 -67 -44v-31h71q30 0 30 -28v-68q0 -29 -30 -29h-71v-343q0 -30 -28 -30h-103q-29 0 -29 30v343h-50q-16 0 -22.5 6.5t-6.5 22.5v61q0 15 6 21t23 8z" />
    <glyph glyph-name="g" unicode="g" horiz-adv-x="548" 
d="M188 -8q-74 0 -111 40.5t-37 113.5v208q0 73 37 113.5t111 40.5q84 0 155 -56l2 18q2 17 7.5 23.5t21.5 6.5h95q29 0 29 -30v-513q0 -73 -58 -114.5t-169 -41.5h-143q-30 0 -30 29v71q0 30 30 30h143q67 0 67 44v68q-70 -51 -150 -51zM200 329v-158q0 -13 1.5 -20.5
t10.5 -14.5t27 -7q42 0 99 41v160q-57 41 -99 41q-18 0 -27 -7t-10.5 -14.5t-1.5 -20.5z" />
    <glyph glyph-name="h" unicode="h" horiz-adv-x="553" 
d="M210 669v-211q64 50 151 50q67 0 107 -38.5t40 -100.5v-339q0 -30 -29 -30h-101q-30 0 -30 30v298q0 24 -7.5 33.5t-30.5 9.5q-47 0 -100 -40v-301q0 -30 -28 -30h-103q-29 0 -29 30v639q0 30 29 30h103q28 0 28 -30z" />
    <glyph glyph-name="i" unicode="i" 
d="M210 470v-440q0 -30 -28 -30h-103q-29 0 -29 30v440q0 30 29 30h103q28 0 28 -30zM210 669v-83q0 -16 -6 -22.5t-22 -6.5h-103q-16 0 -22.5 6.5t-6.5 22.5v83q0 30 29 30h103q28 0 28 -30z" />
    <glyph glyph-name="j" unicode="j" 
d="M210 669v-83q0 -16 -6 -22.5t-22 -6.5h-103q-16 0 -22.5 6.5t-6.5 22.5v83q0 30 29 30h103q28 0 28 -30zM210 470v-513q0 -73 -58 -114.5t-169 -41.5h-11q-30 0 -30 29v71q0 30 30 30h11q67 0 67 44v495q0 30 28 30h103q29 0 29 -30z" />
    <glyph glyph-name="k" unicode="k" horiz-adv-x="511" 
d="M353 284l157 -254q8 -11 4 -20.5t-19 -9.5h-111q-22 0 -42 30l-116 189h-16v-189q0 -30 -28 -30h-103q-29 0 -29 30v639q0 30 29 30h103q28 0 28 -30v-330h16l103 131q24 30 47 30h111q15 0 19 -10t-5 -20z" />
    <glyph glyph-name="l" unicode="l" 
d="M210 669v-639q0 -30 -28 -30h-103q-29 0 -29 30v639q0 30 29 30h103q28 0 28 -30z" />
    <glyph glyph-name="m" unicode="m" horiz-adv-x="839" 
d="M79 500h96q15 0 21 -6.5t8 -22.5l1 -17q63 54 150 54q90 0 128 -66q20 18 34.5 28.5t51 24t78.5 13.5q67 0 107 -38.5t40 -100.5v-339q0 -30 -29 -30h-101q-30 0 -30 30v298q0 24 -7.5 33.5t-30.5 9.5q-49 0 -94 -40v-301q0 -30 -29 -30h-101q-30 0 -30 30v298
q0 24 -7.5 33.5t-30.5 9.5q-49 0 -94 -40v-301q0 -30 -28 -30h-103q-29 0 -29 30v441q0 16 6.5 22.5t22.5 6.5z" />
    <glyph glyph-name="n" unicode="n" horiz-adv-x="553" 
d="M79 500h96q15 0 21 -6.5t8 -22.5l2 -17q66 54 155 54q67 0 107 -38.5t40 -100.5v-339q0 -30 -29 -30h-101q-30 0 -30 30v298q0 24 -7.5 33.5t-30.5 9.5q-47 0 -100 -40v-301q0 -30 -28 -30h-103q-29 0 -29 30v441q0 16 6.5 22.5t22.5 6.5z" />
    <glyph glyph-name="o" unicode="o" horiz-adv-x="538" 
d="M40 148v204q0 73 59 114.5t170 41.5t170 -41.5t59 -114.5v-204q0 -73 -59 -114.5t-170 -41.5t-170 41.5t-59 114.5zM338 162v177q0 44 -69 44t-69 -44v-177q0 -45 69 -45t69 45z" />
    <glyph glyph-name="p" unicode="p" horiz-adv-x="548" 
d="M79 500h96q15 0 21 -7t8 -23l2 -17q73 55 154 55q74 0 111 -40.5t37 -113.5v-208q0 -73 -37 -113.5t-111 -40.5q-82 0 -150 51v-212q0 -30 -28 -30h-103q-29 0 -29 30v639q0 30 29 30zM348 171v158q0 13 -1.5 20.5t-10.5 14.5t-27 7q-44 0 -99 -41v-160q55 -41 99 -41
q18 0 27 7t10.5 14.5t1.5 20.5z" />
    <glyph glyph-name="q" unicode="q" horiz-adv-x="548" 
d="M342 453l2 17q2 16 8 23t21 7h96q29 0 29 -30v-639q0 -30 -29 -30h-103q-28 0 -28 30v212q-70 -51 -150 -51q-74 0 -111 40.5t-37 113.5v208q0 73 37 113.5t111 40.5q81 0 154 -55zM200 329v-158q0 -13 1.5 -20.5t10.5 -14.5t27 -7q42 0 99 41v160q-57 41 -99 41
q-18 0 -27 -7t-10.5 -14.5t-1.5 -20.5z" />
    <glyph glyph-name="r" unicode="r" horiz-adv-x="383" 
d="M345 508q30 0 30 -29v-78q0 -15 -7 -21.5t-23 -8.5q-83 -8 -135 -55v-286q0 -30 -28 -30h-103q-29 0 -29 30v441q0 16 6.5 22.5t22.5 6.5h96q15 0 21 -6.5t8 -22.5l3 -28q56 65 138 65z" />
    <glyph glyph-name="s" unicode="s" horiz-adv-x="475" 
d="M298 352v14q0 32 -55 32q-54 0 -54 -32v-5q0 -19 21 -27l140 -50q100 -36 100 -108v-48q0 -56 -52.5 -96t-158.5 -40t-157.5 40t-51.5 96v21q0 27 27 27h92q27 0 27 -27v-14q0 -32 63 -32q64 0 64 32v9q0 10 -8 16t-31 15l-141 54q-30 11 -54.5 42.5t-24.5 66.5v28
q0 58 48 100t152 42t152 -42t48 -100v-14q0 -15 -6 -21.5t-22 -6.5h-91q-27 0 -27 28z" />
    <glyph glyph-name="t" unicode="t" horiz-adv-x="371" 
d="M243 498h81q30 0 30 -28v-68q0 -29 -30 -29h-81v-199q0 -44 64 -44h24q30 0 30 -30v-71q0 -29 -30 -29h-50q-110 0 -154 37t-44 119v217h-44q-16 0 -22.5 6.5t-6.5 22.5v61q0 15 6 21t23 8l43 6h1v91q0 30 29 30h103q28 0 28 -30v-91z" />
    <glyph glyph-name="u" unicode="u" horiz-adv-x="547" 
d="M343 29l-2 16q-63 -53 -149 -53q-67 0 -107 38.5t-40 100.5v339q0 30 29 30h101q30 0 30 -30v-298q0 -24 7.5 -33.5t30.5 -9.5q45 0 94 39v302q0 30 28 30h103q29 0 29 -30v-441q0 -16 -6.5 -22.5t-22.5 -6.5h-96q-15 0 -21 6t-8 23z" />
    <glyph glyph-name="v" unicode="v" horiz-adv-x="494" 
d="M301 0h-118q-15 0 -19.5 5t-10.5 22l-146 443q-5 15 3.5 22.5t25.5 7.5h106q25 0 33 -30l54 -178q10 -35 18 -105q8 64 22 104l62 179q5 16 12 23t21 7h94q17 0 25.5 -7.5t3.5 -22.5l-156 -443q-6 -17 -10.5 -22t-19.5 -5z" />
    <glyph glyph-name="w" unicode="w" horiz-adv-x="744" 
d="M737 470l-127 -443q-5 -16 -10 -21.5t-20 -5.5h-123q-15 0 -21 6t-9 21l-41 191q-9 38 -9 55q0 -1 -2 -10t-5 -22t-6 -23l-57 -191q-4 -15 -9.5 -21t-20.5 -6h-120q-15 0 -20.5 5.5t-9.5 21.5l-120 443q-9 30 29 30h98q25 0 33 -30l58 -222q2 -10 4 -22t3 -20t1 -9
q0 8 12 51l62 222q8 30 33 30h97q26 0 33 -30l48 -222l9 -51q8 39 11 51l56 222q8 30 33 30h81q38 0 29 -30z" />
    <glyph glyph-name="x" unicode="x" horiz-adv-x="480" 
d="M323 250l146 -220q8 -11 4 -20.5t-19 -9.5h-111q-22 0 -42 30l-75 113l-70 -113q-20 -30 -42 -30h-98q-15 0 -19 9.5t4 20.5l150 226l-141 214q-9 12 -5 21t19 9h111q24 0 43 -30l71 -107l64 107q18 30 43 30h98q15 0 19 -9t-5 -21z" />
    <glyph glyph-name="y" unicode="y" horiz-adv-x="494" 
d="M171 470l57 -181q4 -13 7 -27.5t5 -25.5t3 -20.5t2 -15.5t1 -7q6 38 24 91l62 186q9 30 33 30h93q17 0 25.5 -8t3.5 -22l-217 -639q-10 -30 -33 -30h-74q-17 0 -25 8t-4 22l43 152l-170 487q-5 14 3.5 22t25.5 8h102q14 0 21 -7t12 -23z" />
    <glyph glyph-name="z" unicode="z" horiz-adv-x="443" 
d="M73 500h305q30 0 30 -28v-72q0 -13 -6 -22l-182 -248h178q30 0 30 -28v-73q0 -29 -30 -29h-343q-30 0 -30 29v73q0 11 6 21l180 247h-138q-30 0 -30 29v73q0 28 30 28z" />
    <glyph glyph-name="braceleft" unicode="{" horiz-adv-x="451" 
d="M143 358v194q0 73 58 114.5t169 41.5h11q30 0 30 -29v-71q0 -30 -30 -30h-11q-32 0 -47 -10t-15 -34v-193q0 -66 -52 -92q52 -28 52 -92v-201q0 -24 15 -34t47 -10h11q30 0 30 -30v-71q0 -29 -30 -29h-11q-111 0 -169 41.5t-58 114.5v202q0 24 -15 34t-47 10h-1
q-30 0 -30 30v70q0 30 30 30h1q32 0 47 10t15 34z" />
    <glyph glyph-name="bar" unicode="|" horiz-adv-x="285" 
d="M225 669v-850q0 -30 -28 -30h-108q-29 0 -29 30v850q0 30 29 30h108q28 0 28 -30z" />
    <glyph glyph-name="braceright" unicode="}" horiz-adv-x="451" 
d="M308 552v-194q0 -24 15 -34t47 -10h1q30 0 30 -30v-70q0 -30 -30 -30h-1q-32 0 -47 -10t-15 -34v-202q0 -73 -58 -114.5t-169 -41.5h-11q-30 0 -30 29v71q0 30 30 30h11q32 0 47 10t15 34v201q0 64 52 92q-52 26 -52 92v193q0 24 -15 34t-47 10h-11q-30 0 -30 30v71
q0 29 30 29h11q111 0 169 -41.5t58 -114.5z" />
    <glyph glyph-name="asciitilde" unicode="~" horiz-adv-x="512" 
d="M182 253q-17 0 -22 -27l-1 -4q-4 -15 -10.5 -20.5t-21.5 -5.5h-52q-27 0 -24 34l5 56q4 45 30 67t58 22q37 0 60 -11l89 -40q27 -11 39 -11q13 0 19 24l1 4q4 15 10.5 20.5t21.5 5.5h52q30 0 25 -34l-6 -46q-6 -48 -30.5 -73t-57.5 -25q-35 0 -65 14l-89 41q-19 9 -31 9z
" />
    <glyph glyph-name="exclamdown" unicode="&#xa1;" horiz-adv-x="288" 
d="M60 110l16 170q2 17 7.5 23.5t20.5 6.5h77q15 0 21 -7t8 -23l16 -170v-260q0 -30 -29 -30h-109q-28 0 -28 30v260zM62 388v83q0 16 6 22.5t22 6.5h108q16 0 22.5 -6.5t6.5 -22.5v-83q0 -30 -29 -30h-108q-28 0 -28 30z" />
    <glyph glyph-name="cent" unicode="&#xa2;" horiz-adv-x="553" 
d="M364 650v-61q129 -29 129 -147v-15q0 -16 -6.5 -22.5t-22.5 -6.5h-95q-16 0 -22.5 6.5t-6.5 22.5v3q0 24 -14 33.5t-46 9.5t-46 -9.5t-14 -33.5v-179q0 -24 14 -34t46 -10t46 10t14 34v12q0 16 6.5 22.5t22.5 6.5h95q16 0 22.5 -6.5t6.5 -22.5v-25q0 -118 -129 -147v-61
q0 -30 -28 -30h-103q-29 0 -29 30v57q-144 24 -144 151v204q0 126 144 150v58q0 30 29 30h103q28 0 28 -30z" />
    <glyph glyph-name="sterling" unicode="&#xa3;" horiz-adv-x="699" 
d="M309 397h88q30 0 30 -28v-73q0 -29 -30 -29h-88v-137h130q44 0 44 67v11q0 30 30 30h97q29 0 29 -30v-11q0 -108 -40 -152.5t-116 -44.5h-393q-30 0 -30 29v73q0 28 30 28h54v137h-54q-30 0 -30 29v73q0 28 30 28h54v120q0 73 56.5 122t178.5 49t179 -49t57 -122v-36
q0 -30 -28 -30h-100q-29 0 -29 30v7q0 33 -21.5 49t-55.5 16q-72 0 -72 -65v-91z" />
    <glyph glyph-name="currency" unicode="&#xa4;" horiz-adv-x="665" 
d="M90 316h23v44h-23q-30 0 -30 29v43q0 28 30 28h23v57q0 74 58 122.5t188 48.5t188 -48.5t58 -122.5v-46q0 -30 -28 -30h-103q-29 0 -29 30v17q0 65 -84 65q-83 0 -83 -65v-28h73q30 0 30 -28v-43q0 -29 -30 -29h-73v-44h73q30 0 30 -28v-43q0 -29 -30 -29h-73v-24
q0 -65 83 -65q84 0 84 65v32q0 30 29 30h103q28 0 28 -30v-61q0 -74 -58 -122.5t-188 -48.5t-188 48.5t-58 122.5v53h-23q-30 0 -30 29v43q0 28 30 28z" />
    <glyph glyph-name="yen" unicode="&#xa5;" horiz-adv-x="662" 
d="M542 216h-128v-186q0 -30 -28 -30h-108q-29 0 -29 30v186h-128q-30 0 -30 29v43q0 28 30 28h91l-20 44h-71q-30 0 -30 29v43q0 28 30 28h27l-84 190q-6 14 -0.5 22t21.5 8h122q26 0 36 -30l71 -199q7 -20 17 -60q9 35 20 60l84 199q12 30 35 30h106q16 0 22 -8t0 -22
l-88 -190h32q30 0 30 -28v-43q0 -29 -30 -29h-78l-21 -44h99q30 0 30 -28v-43q0 -29 -30 -29z" />
    <glyph glyph-name="brokenbar" unicode="&#xa6;" 
d="M210 650v-306q0 -30 -28 -30h-103q-29 0 -29 30v306q0 30 29 30h103q28 0 28 -30zM210 125v-306q0 -30 -28 -30h-103q-29 0 -29 30v306q0 30 29 30h103q28 0 28 -30z" />
    <glyph glyph-name="section" unicode="&#xa7;" horiz-adv-x="553" 
d="M476 284v-67q0 -16 -6.5 -22.5t-22.5 -6.5h-90q-16 0 -22.5 6.5t-6.5 22.5v51q0 26 -29 35l-140 44q-99 31 -99 131v52q0 71 54.5 114.5t162.5 43.5q216 0 216 -151v-7q0 -16 -6.5 -22.5t-22.5 -6.5h-90q-16 0 -22.5 6.5t-6.5 22.5v15q0 24 -15 32.5t-48 8.5t-48.5 -9
t-15.5 -33v-57q0 -20 39 -32l122 -39q43 -14 70 -49t27 -83zM77 205v67q0 16 6.5 22.5t22.5 6.5h90q16 0 22.5 -6.5t6.5 -22.5v-51q0 -26 29 -35l140 -44q99 -31 99 -131v-52q0 -71 -54.5 -114.5t-162.5 -43.5q-216 0 -216 151v7q0 16 6.5 22.5t22.5 6.5h90q16 0 22.5 -6.5
t6.5 -22.5v-15q0 -24 15 -32.5t48 -8.5t48.5 9t15.5 33v57q0 20 -39 32l-122 39q-43 14 -70 49t-27 83z" />
    <glyph glyph-name="dieresis" unicode="&#xa8;" horiz-adv-x="407" 
d="M184 678v-92q0 -16 -6 -22.5t-22 -6.5h-60q-16 0 -22.5 6.5t-6.5 22.5v92q0 30 29 30h60q28 0 28 -30zM339 678v-92q0 -16 -6 -22.5t-22 -6.5h-60q-16 0 -22.5 6.5t-6.5 22.5v92q0 30 29 30h60q28 0 28 -30z" />
    <glyph glyph-name="copyright" unicode="&#xa9;" horiz-adv-x="802" 
d="M742 432v-183q0 -34 -4.5 -61t-16 -58t-36 -54.5t-60.5 -43t-93 -30t-131 -10.5t-131 10.5t-93 30t-60.5 43t-36 54.5t-16 58t-4.5 61v183q0 41 6 73t26.5 68t56 59.5t100 39.5t152.5 16t152.5 -16t100 -39.5t56 -59.5t26.5 -68t6 -73zM627 226v229q0 64 -55.5 100.5
t-170.5 36.5t-170.5 -37t-55.5 -101v-227q0 -64 55.5 -101t170.5 -37t170.5 36.5t55.5 100.5zM403 545q97 0 139 -36t42 -110v-6q0 -16 -6.5 -22.5t-22.5 -6.5h-83q-16 0 -22.5 6.5t-6.5 22.5v3q0 43 -40 43t-40 -43v-111q0 -44 40 -44t40 44v9q0 16 6.5 22.5t22.5 6.5h83
q16 0 22.5 -6.5t6.5 -22.5v-14q0 -74 -42 -110t-140 -36q-97 0 -139 36t-42 110v119q0 74 42.5 110t139.5 36z" />
    <glyph glyph-name="ordfeminine" unicode="&#xaa;" horiz-adv-x="362" 
d="M51 590v6q0 92 136 92q135 0 135 -97v-189q0 -21 -22 -21h-69q-15 0 -19 12q-1 1 -2 5l-1 4l-1 4q-36 -30 -77 -30q-46 0 -68.5 23t-22.5 56v24q0 33 28.5 56t76.5 23h59v34q0 14 -20 14t-20 -12v-4q0 -20 -21 -20h-70q-22 0 -22 20zM172 459q13 0 32 16v15h-34
q-12 0 -12 -11v-9q0 -11 14 -11z" />
    <glyph glyph-name="guillemotleft" unicode="&#xab;" horiz-adv-x="622" 
d="M532 304l-90 -59l90 -58q30 -20 30 -41v-100q0 -16 -10 -22.5t-20 1.5l-189 131q-27 18 -27 40v99q0 21 27 40l189 131q12 8 21 1.5t9 -22.5v-100q0 -10 -5 -18t-9.5 -12t-15.5 -11zM276 304l-90 -59l90 -58q30 -20 30 -41v-100q0 -16 -10 -22.5t-20 1.5l-189 131
q-27 18 -27 40v99q0 21 27 40l189 131q12 8 21 1.5t9 -22.5v-100q0 -10 -5 -18t-9.5 -12t-15.5 -11z" />
    <glyph glyph-name="logicalnot" unicode="&#xac;" horiz-adv-x="410" 
d="M73 323q0 55 38 93.5t93 38.5t93.5 -38.5t38.5 -93.5t-38.5 -93t-93.5 -38t-93 38t-38 93z" />
    <glyph glyph-name="uni00AD" unicode="&#xad;" horiz-adv-x="427" 
d="M80 353h267q30 0 30 -28v-73q0 -29 -30 -29h-267q-30 0 -30 29v73q0 28 30 28z" />
    <glyph glyph-name="registered" unicode="&#xae;" horiz-adv-x="657" 
d="M597 511v-188q0 -21 -3.5 -39t-12.5 -39.5t-28 -38t-47 -31t-73.5 -22t-103.5 -7.5q-69 0 -120 11.5t-79 29t-44.5 42.5t-21 46.5t-4.5 47.5v188q0 26 4.5 47.5t21 46.5t44.5 42.5t79 29t120 11.5q58 0 103.5 -7.5t73.5 -22t47 -31t28 -38t12.5 -39.5t3.5 -39zM493 313
v208q0 38 -36 57.5t-128 19.5q-91 0 -128 -20t-37 -58v-206q0 -38 37 -58t128 -20q92 0 128 19.5t36 57.5zM461 453q0 -48 -32 -70l31 -82q3 -9 -2.5 -15t-17.5 -6h-65q-8 0 -11.5 4t-7.5 17l-25 64h-19v-64q0 -21 -20 -21h-66q-20 0 -20 21v234q0 20 20 20h121
q114 0 114 -87v-15zM335 480h-23v-39h23q19 2 19 15v8q0 16 -19 16z" />
    <glyph glyph-name="macron" unicode="&#xaf;" horiz-adv-x="401" 
d="M90 680h221q30 0 30 -28v-63q0 -29 -30 -29h-221q-30 0 -30 29v63q0 28 30 28z" />
    <glyph glyph-name="degree" unicode="&#xb0;" horiz-adv-x="449" 
d="M50 475v94q0 58 40 88.5t135 30.5q94 0 134 -30.5t40 -88.5v-94q0 -58 -40 -88.5t-134 -30.5q-95 0 -135 30.5t-40 88.5zM265 481v83q0 22 -41 22q-40 0 -40 -22v-83q0 -23 40 -23q41 0 41 23z" />
    <glyph glyph-name="plusminus" unicode="&#xb1;" horiz-adv-x="551" 
d="M210 237v80h-130q-30 0 -30 29v73q0 28 30 28h130v81q0 30 28 30h73q29 0 29 -30v-81h131q30 0 30 -28v-73q0 -29 -30 -29h-131v-80q0 -30 -29 -30h-73q-28 0 -28 30zM80 153h391q30 0 30 -28v-73q0 -29 -30 -29h-391q-30 0 -30 29v73q0 28 30 28z" />
    <glyph glyph-name="twosuperior" unicode="&#xb2;" horiz-adv-x="395" 
d="M175 372h158q22 0 22 -20v-56q0 -21 -22 -21h-260q-22 0 -22 21v104q0 23 6 33t25 20l134 65q13 7 13 28v15q0 16 -11.5 24t-23.5 8t-23 -8t-11 -24v-19q0 -22 -20 -22h-79q-21 0 -21 22v38q0 44 38 76t116 32t117 -32t40 -76v-28q0 -78 -60 -110l-110 -56q-6 -2 -6 -7
v-7z" />
    <glyph glyph-name="threesuperior" unicode="&#xb3;" horiz-adv-x="393" 
d="M157 528h30q14 0 25.5 8t11.5 24v3q0 32 -30 32q-31 0 -31 -32v-4q0 -21 -21 -21h-79q-21 0 -21 21v22q0 46 35.5 77t118.5 31q81 0 116 -30t35 -76v-41q0 -40 -38 -57q44 -25 44 -69v-40q0 -45 -36.5 -75t-118.5 -30q-83 0 -120.5 31.5t-37.5 76.5v22q0 21 21 21h78
q22 0 22 -21v-4q0 -16 11 -24t24 -8q14 0 25 8t11 24v5q0 17 -12 24.5t-26 7.5h-37q-22 0 -22 20v53q0 21 22 21z" />
    <glyph glyph-name="acute" unicode="&#xb4;" horiz-adv-x="306" 
d="M261 678l-69 -101q-13 -20 -39 -20h-79q-28 0 -16 29l40 92q13 30 41 30h107q16 0 20 -8.5t-5 -21.5z" />
    <glyph glyph-name="uni00B5" unicode="&#xb5;" horiz-adv-x="547" 
d="M343 29l-2 16q-63 -53 -143 -53h-1l8 -161q1 -30 -28 -30h-103q-29 0 -29 30v639q0 30 29 30h101q30 0 30 -30v-298q0 -24 7.5 -33.5t30.5 -9.5q45 0 94 39v302q0 30 28 30h103q29 0 29 -30v-441q0 -16 -6.5 -22.5t-22.5 -6.5h-96q-15 0 -21 6.5t-8 22.5z" />
    <glyph glyph-name="paragraph" unicode="&#xb6;" horiz-adv-x="716" 
d="M432 650v-819q0 -30 -28 -30h-108q-29 0 -29 30v451h-14q-107 0 -150 34t-43 97v136q0 63 43 97t150 34h151q28 0 28 -30zM656 650v-819q0 -30 -28 -30h-108q-29 0 -29 30v819q0 30 29 30h108q28 0 28 -30z" />
    <glyph glyph-name="periodcentered" unicode="&#xb7;" horiz-adv-x="263" 
d="M213 323v-83q0 -16 -6 -22.5t-22 -6.5h-106q-16 0 -22.5 6.5t-6.5 22.5v83q0 30 29 30h106q28 0 28 -30z" />
    <glyph glyph-name="cedilla" unicode="&#xb8;" horiz-adv-x="297" 
d="M154 -39h27q89 0 89 -84q0 -88 -89 -88h-125q-30 0 -30 29v21q0 28 30 28h97q9 0 9 10t-9 10h-81q-47 0 -35 40l27 91q8 26 35 25l45 -3q13 -1 19.5 -10t2.5 -24z" />
    <glyph glyph-name="onesuperior" unicode="&#xb9;" horiz-adv-x="374" 
d="M62 664l169 23q6 1 9.5 0t7 -5.5t3.5 -14.5v-297h62q12 0 16.5 -4t4.5 -16v-56q0 -21 -21 -21h-250q-23 0 -23 21v56q0 12 5 16t18 4h64v206l-65 -7q-22 -3 -22 18v56q0 18 22 21z" />
    <glyph glyph-name="ordmasculine" unicode="&#xba;" horiz-adv-x="378" 
d="M40 476v111q0 47 39 74t110 27q70 0 109.5 -27t39.5 -74v-111q0 -47 -39.5 -73.5t-109.5 -26.5q-71 0 -110 26.5t-39 73.5zM216 486v93q0 18 -27 18q-28 0 -28 -18v-93q0 -20 28 -20q27 0 27 20z" />
    <glyph glyph-name="guillemotright" unicode="&#xbb;" horiz-adv-x="622" 
d="M346 194l90 59l-90 58q-30 20 -30 41v100q0 16 10 22.5t20 -1.5l189 -131q27 -18 27 -40v-99q0 -21 -27 -40l-189 -131q-12 -8 -21 -1.5t-9 22.5v100q0 10 5 18t9.5 12t15.5 11zM90 194l90 59l-90 58q-30 20 -30 41v100q0 16 10 22.5t20 -1.5l189 -131q27 -18 27 -40v-99
q0 -21 -27 -40l-189 -131q-12 -8 -21 -1.5t-9 22.5v100q0 10 5 18t9.5 12t15.5 11z" />
    <glyph glyph-name="onequarter" unicode="&#xbc;" horiz-adv-x="923" 
d="M745 387l-49 -197h63v197q0 21 21 21h82q21 0 21 -21v-366q0 -21 -21 -21h-82q-21 0 -21 21v72h-169q-23 0 -23 21v46q0 8 6 34l48 193q5 21 26 21h82q21 0 16 -21zM62 664l169 23q6 1 9.5 0t7 -5.5t3.5 -14.5v-297h62q12 0 16.5 -4t4.5 -16v-56q0 -21 -21 -21h-250
q-23 0 -23 21v56q0 12 5 16t18 4h64v206l-65 -7q-22 -3 -22 18v56q0 18 22 21zM619 708l-172 -736q-5 -21 -24 -21h-86q-21 0 -17 21l172 736q4 21 25 21h85q22 0 17 -21z" />
    <glyph glyph-name="onehalf" unicode="&#xbd;" horiz-adv-x="921" 
d="M609 708l-172 -736q-5 -21 -24 -21h-86q-21 0 -17 21l172 736q4 21 25 21h85q22 0 17 -21zM701 97h158q22 0 22 -20v-56q0 -21 -22 -21h-260q-22 0 -22 21v104q0 23 6 33t25 20l134 65q13 7 13 28v15q0 16 -11.5 24t-23.5 8t-23 -8t-11 -24v-19q0 -22 -20 -22h-79
q-21 0 -21 22v38q0 44 38 76t116 32t117 -32t40 -76v-28q0 -78 -60 -110l-110 -56q-6 -2 -6 -7v-7zM62 664l169 23q6 1 9.5 0t7 -5.5t3.5 -14.5v-297h62q12 0 16.5 -4t4.5 -16v-56q0 -21 -21 -21h-250q-23 0 -23 21v56q0 12 5 16t18 4h64v206l-65 -7q-22 -3 -22 18v56
q0 18 22 21z" />
    <glyph glyph-name="threequarters" unicode="&#xbe;" horiz-adv-x="938" 
d="M157 527h30q14 0 25.5 8t11.5 24v3q0 32 -30 32q-31 0 -31 -32v-4q0 -21 -21 -21h-79q-21 0 -21 21v22q0 46 35.5 77t118.5 31q81 0 116 -30t35 -76v-41q0 -40 -38 -57q44 -25 44 -69v-40q0 -45 -36.5 -75t-118.5 -30q-83 0 -120.5 31.5t-37.5 76.5v22q0 21 21 21h78
q22 0 22 -21v-4q0 -16 11 -24t24 -8q14 0 25 8t11 24v5q0 17 -12 24.5t-26 7.5h-37q-22 0 -22 20v53q0 21 22 21zM634 708l-172 -736q-5 -21 -24 -21h-86q-22 0 -17 21l172 736q4 21 25 21h85q23 0 17 -21zM760 387l-49 -197h63v197q0 21 21 21h82q21 0 21 -21v-366
q0 -21 -21 -21h-82q-21 0 -21 21v72h-169q-23 0 -23 21v46q0 8 6 34l48 193q5 21 26 21h82q21 0 16 -21z" />
    <glyph glyph-name="questiondown" unicode="&#xbf;" horiz-adv-x="564" 
d="M399 281v-65q0 -37 -15 -55t-46 -33l-103 -52q-32 -16 -32 -53v-14q0 -65 81 -65q80 0 80 65v36q0 30 28 30h103q29 0 29 -30v-62q0 -73 -57.5 -122t-182.5 -49t-184 49t-60 122v34q0 123 97 166l59 26q24 11 31 20t7 30v22q0 16 6 22.5t22 6.5h108q16 0 22.5 -6.5
t6.5 -22.5zM234 388v83q0 16 6 22.5t22 6.5h108q16 0 22.5 -6.5t6.5 -22.5v-83q0 -30 -29 -30h-108q-28 0 -28 30z" />
    <glyph glyph-name="Agrave" unicode="&#xc0;" horiz-adv-x="566" 
d="M337 680q28 0 37 -30l181 -620q9 -30 -22 -30h-111q-27 0 -35 30l-26 96h-166l-26 -96q-8 -30 -35 -30h-101q-31 0 -22 30l181 620q9 30 37 30h108zM325 256l-14 54q-13 51 -31 209q-25 -178 -34 -209l-15 -54h94zM194 747l-69 101q-9 13 -5 21.5t20 8.5h107q28 0 41 -30
l40 -92q12 -29 -16 -29h-79q-26 0 -39 20z" />
    <glyph glyph-name="Aacute" unicode="&#xc1;" horiz-adv-x="566" 
d="M337 680q28 0 37 -30l181 -620q9 -30 -22 -30h-111q-27 0 -35 30l-26 96h-166l-26 -96q-8 -30 -35 -30h-101q-31 0 -22 30l181 620q9 30 37 30h108zM325 256l-14 54q-13 51 -31 209q-25 -178 -34 -209l-15 -54h94zM431 848l-69 -101q-13 -20 -39 -20h-79q-28 0 -16 29
l40 92q13 30 41 30h107q16 0 20 -8.5t-5 -21.5z" />
    <glyph glyph-name="Acircumflex" unicode="&#xc2;" horiz-adv-x="566" 
d="M337 680q28 0 37 -30l181 -620q9 -30 -22 -30h-111q-27 0 -35 30l-26 96h-166l-26 -96q-8 -30 -35 -30h-101q-31 0 -22 30l181 620q9 30 37 30h108zM325 256l-14 54q-13 51 -31 209q-25 -178 -34 -209l-15 -54h94zM283 784l-12 -28q-12 -29 -41 -29h-78q-16 0 -20.5 8.5
t4.5 20.5l71 92q23 30 47 30h58q24 0 47 -30l71 -92q9 -12 4.5 -20.5t-20.5 -8.5h-78q-27 0 -41 29z" />
    <glyph glyph-name="Atilde" unicode="&#xc3;" horiz-adv-x="566" 
d="M337 680q28 0 37 -30l181 -620q9 -30 -22 -30h-111q-27 0 -35 30l-26 96h-166l-26 -96q-8 -30 -35 -30h-101q-31 0 -22 30l181 620q9 30 37 30h108zM325 256l-14 54q-13 51 -31 209q-25 -178 -34 -209l-15 -54h94zM229 770q-16 0 -19 -13l-1 -4q-4 -15 -10.5 -20.5
t-21.5 -5.5h-53q-27 0 -24 34l6 49q4 35 30.5 55.5t63.5 20.5q30 0 58 -11l42 -16q30 -12 36 -12q16 0 19 13l1 4q4 15 10.5 20.5t21.5 5.5h52q28 0 25 -34l-4 -45q-4 -37 -27 -56.5t-57 -19.5q-37 0 -69 10l-43 14q-31 11 -36 11z" />
    <glyph glyph-name="Adieresis" unicode="&#xc4;" horiz-adv-x="566" 
d="M337 680q28 0 37 -30l181 -620q9 -30 -22 -30h-111q-27 0 -35 30l-26 96h-166l-26 -96q-8 -30 -35 -30h-101q-31 0 -22 30l181 620q9 30 37 30h108zM325 256l-14 54q-13 51 -31 209q-25 -178 -34 -209l-15 -54h94zM264 848v-92q0 -16 -6 -22.5t-22 -6.5h-60
q-16 0 -22.5 6.5t-6.5 22.5v92q0 30 29 30h60q28 0 28 -30zM419 848v-92q0 -16 -6 -22.5t-22 -6.5h-60q-16 0 -22.5 6.5t-6.5 22.5v92q0 30 29 30h60q28 0 28 -30z" />
    <glyph glyph-name="Aring" unicode="&#xc5;" horiz-adv-x="566" 
d="M337 680q28 0 37 -30l181 -620q9 -30 -22 -30h-111q-27 0 -35 30l-26 96h-166l-26 -96q-8 -30 -35 -30h-101q-31 0 -22 30l181 620q9 30 37 30h108zM325 256l-14 54q-13 51 -31 209q-25 -178 -34 -209l-15 -54h94zM405 826v-34q0 -34 -30.5 -57t-91.5 -23t-91.5 23
t-30.5 57v34q0 34 30.5 57t91.5 23t91.5 -23t30.5 -57zM321 801v16q0 27 -38 27t-38 -27v-16q0 -28 38 -28t38 28z" />
    <glyph glyph-name="AE" unicode="&#xc6;" horiz-adv-x="833" 
d="M428 680h330q30 0 30 -28v-76q0 -29 -30 -29h-206v-133h190q30 0 30 -28v-71q0 -29 -30 -29h-190v-153h216q30 0 30 -28v-76q0 -29 -30 -29h-343q-29 0 -29 30v96h-169l-56 -96q-17 -30 -35 -30h-101q-16 0 -23 8t1 22l373 621q17 29 42 29zM361 353l-57 -97h92v164
q-16 -33 -35 -67z" />
    <glyph glyph-name="Ccedilla" unicode="&#xc7;" horiz-adv-x="577" 
d="M308 -39h27q89 0 89 -84q0 -88 -89 -88h-125q-30 0 -30 29v21q0 28 30 28h97q9 0 9 10t-9 10h-81q-47 0 -35 40l21 72q-85 15 -123.5 59.5t-38.5 104.5v354q0 74 58 122.5t188 48.5t188 -48.5t58 -122.5v-46q0 -30 -28 -30h-103q-29 0 -29 30v17q0 65 -84 65
q-83 0 -83 -65v-296q0 -65 83 -65q84 0 84 65v32q0 30 29 30h103q28 0 28 -30v-61q0 -71 -53.5 -119t-172.5 -52z" />
    <glyph glyph-name="Egrave" unicode="&#xc8;" horiz-adv-x="506" 
d="M181 747l-69 101q-9 13 -5 21.5t20 8.5h107q28 0 41 -30l40 -92q12 -29 -16 -29h-79q-26 0 -39 20zM441 0h-352q-29 0 -29 30v620q0 30 29 30h342q30 0 30 -28v-78q0 -29 -30 -29h-206v-130h190q30 0 30 -28v-73q0 -29 -30 -29h-190v-150h216q30 0 30 -28v-78
q0 -29 -30 -29z" />
    <glyph glyph-name="Eacute" unicode="&#xc9;" horiz-adv-x="506" 
d="M441 0h-352q-29 0 -29 30v620q0 30 29 30h342q30 0 30 -28v-78q0 -29 -30 -29h-206v-130h190q30 0 30 -28v-73q0 -29 -30 -29h-190v-150h216q30 0 30 -28v-78q0 -29 -30 -29zM392 848l-69 -101q-13 -20 -39 -20h-79q-28 0 -16 29l40 92q13 30 41 30h107q16 0 20 -8.5
t-5 -21.5z" />
    <glyph glyph-name="Ecircumflex" unicode="&#xca;" horiz-adv-x="506" 
d="M253 784l-12 -28q-12 -29 -41 -29h-78q-16 0 -20.5 8.5t4.5 20.5l71 92q23 30 47 30h58q24 0 47 -30l71 -92q9 -12 4.5 -20.5t-20.5 -8.5h-78q-27 0 -41 29zM441 0h-352q-29 0 -29 30v620q0 30 29 30h342q30 0 30 -28v-78q0 -29 -30 -29h-206v-130h190q30 0 30 -28v-73
q0 -29 -30 -29h-190v-150h216q30 0 30 -28v-78q0 -29 -30 -29z" />
    <glyph glyph-name="Edieresis" unicode="&#xcb;" horiz-adv-x="506" 
d="M441 0h-352q-29 0 -29 30v620q0 30 29 30h342q30 0 30 -28v-78q0 -29 -30 -29h-206v-130h190q30 0 30 -28v-73q0 -29 -30 -29h-190v-150h216q30 0 30 -28v-78q0 -29 -30 -29zM238 848v-92q0 -16 -6 -22.5t-22 -6.5h-60q-16 0 -22.5 6.5t-6.5 22.5v92q0 30 29 30h60
q28 0 28 -30zM393 848v-92q0 -16 -6 -22.5t-22 -6.5h-60q-16 0 -22.5 6.5t-6.5 22.5v92q0 30 29 30h60q28 0 28 -30z" />
    <glyph glyph-name="Igrave" unicode="&#xcc;" horiz-adv-x="285" 
d="M225 650v-620q0 -30 -28 -30h-108q-29 0 -29 30v620q0 30 29 30h108q28 0 28 -30zM63 747l-69 101q-9 13 -5 21.5t20 8.5h107q28 0 41 -30l40 -92q12 -29 -16 -29h-79q-26 0 -39 20z" />
    <glyph glyph-name="Iacute" unicode="&#xcd;" horiz-adv-x="285" 
d="M225 650v-620q0 -30 -28 -30h-108q-29 0 -29 30v620q0 30 29 30h108q28 0 28 -30zM283 848l-69 -101q-13 -20 -39 -20h-79q-28 0 -16 29l40 92q13 30 41 30h107q16 0 20 -8.5t-5 -21.5z" />
    <glyph glyph-name="Icircumflex" unicode="&#xce;" horiz-adv-x="285" 
d="M225 650v-620q0 -30 -28 -30h-108q-29 0 -29 30v620q0 30 29 30h108q28 0 28 -30zM142 784l-12 -28q-12 -29 -41 -29h-78q-16 0 -20.5 8.5t4.5 20.5l71 92q23 30 47 30h58q24 0 47 -30l71 -92q9 -12 4.5 -20.5t-20.5 -8.5h-78q-27 0 -41 29z" />
    <glyph glyph-name="Idieresis" unicode="&#xcf;" horiz-adv-x="285" 
d="M225 650v-620q0 -30 -28 -30h-108q-29 0 -29 30v620q0 30 29 30h108q28 0 28 -30zM123 848v-92q0 -16 -6 -22.5t-22 -6.5h-60q-16 0 -22.5 6.5t-6.5 22.5v92q0 30 29 30h60q28 0 28 -30zM278 848v-92q0 -16 -6 -22.5t-22 -6.5h-60q-16 0 -22.5 6.5t-6.5 22.5v92
q0 30 29 30h60q28 0 28 -30z" />
    <glyph glyph-name="Eth" unicode="&#xd0;" horiz-adv-x="621" 
d="M315 0h-230q-25 0 -25 30v251h-31q-30 0 -30 29v63q0 28 30 28h31v249q0 30 29 30h226q131 0 193.5 -49.5t62.5 -121.5v-338q0 -72 -62.5 -121.5t-193.5 -49.5zM315 545h-90v-144h71q30 0 30 -28v-63q0 -29 -30 -29h-71v-146h90q40 0 65.5 16t25.5 49v280q0 33 -25.5 49
t-65.5 16z" />
    <glyph glyph-name="Ntilde" unicode="&#xd1;" horiz-adv-x="631" 
d="M262 770q-16 0 -19 -13l-1 -4q-4 -15 -10.5 -20.5t-21.5 -5.5h-53q-27 0 -24 34l6 49q4 35 30.5 55.5t63.5 20.5q31 0 58 -11l42 -16q30 -12 36 -12q16 0 19 13l1 4q4 15 10.5 20.5t21.5 5.5h52q28 0 25 -34l-4 -45q-4 -37 -27 -56.5t-57 -19.5q-37 0 -69 10l-43 14
q-31 11 -36 11zM571 650v-620q0 -30 -28 -30h-98q-19 0 -27 14l-160 266q-20 32 -43 90v-340q0 -30 -28 -30h-98q-29 0 -29 30v620q0 30 29 30h98q19 0 25 -12l169 -283q14 -24 35 -75v340q0 30 29 30h98q28 0 28 -30z" />
    <glyph glyph-name="Ograve" unicode="&#xd2;" horiz-adv-x="611" 
d="M226 747l-69 101q-9 13 -5 21.5t20 8.5h107q28 0 41 -30l40 -92q12 -29 -16 -29h-79q-26 0 -39 20zM50 163v354q0 72 62 121.5t193 49.5t193.5 -49.5t62.5 -121.5v-354q0 -72 -62.5 -121.5t-193.5 -49.5t-193 49.5t-62 121.5zM396 192v296q0 33 -25.5 49t-65.5 16
t-65 -16t-25 -49v-296q0 -33 25 -49t65 -16t65.5 16t25.5 49z" />
    <glyph glyph-name="Oacute" unicode="&#xd3;" horiz-adv-x="611" 
d="M437 848l-69 -101q-13 -20 -39 -20h-79q-28 0 -16 29l40 92q13 30 41 30h107q16 0 20 -8.5t-5 -21.5zM50 163v354q0 72 62 121.5t193 49.5t193.5 -49.5t62.5 -121.5v-354q0 -72 -62.5 -121.5t-193.5 -49.5t-193 49.5t-62 121.5zM396 192v296q0 33 -25.5 49t-65.5 16
t-65 -16t-25 -49v-296q0 -33 25 -49t65 -16t65.5 16t25.5 49z" />
    <glyph glyph-name="Ocircumflex" unicode="&#xd4;" horiz-adv-x="611" 
d="M305 784l-12 -28q-12 -29 -41 -29h-78q-16 0 -20.5 8.5t4.5 20.5l71 92q23 30 47 30h58q24 0 47 -30l71 -92q9 -12 4.5 -20.5t-20.5 -8.5h-78q-27 0 -41 29zM50 163v354q0 72 62 121.5t193 49.5t193.5 -49.5t62.5 -121.5v-354q0 -72 -62.5 -121.5t-193.5 -49.5t-193 49.5
t-62 121.5zM396 192v296q0 33 -25.5 49t-65.5 16t-65 -16t-25 -49v-296q0 -33 25 -49t65 -16t65.5 16t25.5 49z" />
    <glyph glyph-name="Otilde" unicode="&#xd5;" horiz-adv-x="611" 
d="M50 163v354q0 72 62 121.5t193 49.5t193.5 -49.5t62.5 -121.5v-354q0 -72 -62.5 -121.5t-193.5 -49.5t-193 49.5t-62 121.5zM396 192v296q0 33 -25.5 49t-65.5 16t-65 -16t-25 -49v-296q0 -33 25 -49t65 -16t65.5 16t25.5 49zM252 770q-16 0 -19 -13l-1 -4
q-4 -15 -10.5 -20.5t-21.5 -5.5h-53q-27 0 -24 34l6 49q4 35 30.5 55.5t63.5 20.5q31 0 58 -11l42 -16q30 -12 36 -12q16 0 19 13l1 4q4 15 10.5 20.5t21.5 5.5h52q28 0 25 -34l-4 -45q-4 -37 -27 -56.5t-57 -19.5q-37 0 -69 10l-43 14q-31 11 -36 11z" />
    <glyph glyph-name="Odieresis" unicode="&#xd6;" horiz-adv-x="611" 
d="M50 163v354q0 72 62 121.5t193 49.5t193.5 -49.5t62.5 -121.5v-354q0 -72 -62.5 -121.5t-193.5 -49.5t-193 49.5t-62 121.5zM396 192v296q0 33 -25.5 49t-65.5 16t-65 -16t-25 -49v-296q0 -33 25 -49t65 -16t65.5 16t25.5 49zM286 848v-92q0 -16 -6 -22.5t-22 -6.5h-60
q-16 0 -22.5 6.5t-6.5 22.5v92q0 30 29 30h60q28 0 28 -30zM441 848v-92q0 -16 -6 -22.5t-22 -6.5h-60q-16 0 -22.5 6.5t-6.5 22.5v92q0 30 29 30h60q28 0 28 -30z" />
    <glyph glyph-name="multiply" unicode="&#xd7;" horiz-adv-x="540" 
d="M311 137l-65 112l-113 -65q-25 -14 -40 11l-36 63q-8 13 -5 22t17 17l112 65l-65 113q-15 26 9 40l63 37q26 15 41 -12l65 -113l113 65q26 15 40 -9l37 -63q15 -26 -12 -41l-113 -65l65 -113q14 -25 -11 -40l-63 -36q-13 -8 -22 -5t-17 17z" />
    <glyph glyph-name="Oslash" unicode="&#xd8;" horiz-adv-x="611" 
d="M50 161v354q0 72 62 121.5t193 49.5q72 0 125 -17l9 17q15 30 36 30h36q25 0 10 -30l-25 -49q65 -45 65 -122v-354q0 -72 -62.5 -121.5t-193.5 -49.5q-72 0 -126 16l-8 -15q-9 -17 -16 -23.5t-22 -6.5h-34q-11 0 -13.5 9t3.5 21l24 47q-63 46 -63 123zM396 190v248
l-151 -300q23 -13 60 -13q40 0 65.5 16t25.5 49zM215 486v-245l149 297q-23 13 -59 13q-40 0 -65 -16t-25 -49z" />
    <glyph glyph-name="Ugrave" unicode="&#xd9;" horiz-adv-x="621" 
d="M239 747l-69 101q-9 13 -5 21.5t20 8.5h107q28 0 41 -30l40 -92q12 -29 -16 -29h-79q-26 0 -39 20zM220 650v-458q0 -33 25 -49t65 -16t65.5 16t25.5 49v458q0 30 29 30h108q28 0 28 -30v-487q0 -72 -62.5 -121.5t-193.5 -49.5t-193 49.5t-62 121.5v487q0 30 29 30h108
q28 0 28 -30z" />
    <glyph glyph-name="Uacute" unicode="&#xda;" horiz-adv-x="621" 
d="M220 650v-458q0 -33 25 -49t65 -16t65.5 16t25.5 49v458q0 30 29 30h108q28 0 28 -30v-487q0 -72 -62.5 -121.5t-193.5 -49.5t-193 49.5t-62 121.5v487q0 30 29 30h108q28 0 28 -30zM454 848l-69 -101q-13 -20 -39 -20h-79q-28 0 -16 29l40 92q13 30 41 30h107
q16 0 20 -8.5t-5 -21.5z" />
    <glyph glyph-name="Ucircumflex" unicode="&#xdb;" horiz-adv-x="621" 
d="M310 784l-12 -28q-12 -29 -41 -29h-78q-16 0 -20.5 8.5t4.5 20.5l71 92q23 30 47 30h58q24 0 47 -30l71 -92q9 -12 4.5 -20.5t-20.5 -8.5h-78q-27 0 -41 29zM220 650v-458q0 -33 25 -49t65 -16t65.5 16t25.5 49v458q0 30 29 30h108q28 0 28 -30v-487q0 -72 -62.5 -121.5
t-193.5 -49.5t-193 49.5t-62 121.5v487q0 30 29 30h108q28 0 28 -30z" />
    <glyph glyph-name="Udieresis" unicode="&#xdc;" horiz-adv-x="621" 
d="M220 650v-458q0 -33 25 -49t65 -16t65.5 16t25.5 49v458q0 30 29 30h108q28 0 28 -30v-487q0 -72 -62.5 -121.5t-193.5 -49.5t-193 49.5t-62 121.5v487q0 30 29 30h108q28 0 28 -30zM291 848v-92q0 -16 -6 -22.5t-22 -6.5h-60q-16 0 -22.5 6.5t-6.5 22.5v92q0 30 29 30
h60q28 0 28 -30zM446 848v-92q0 -16 -6 -22.5t-22 -6.5h-60q-16 0 -22.5 6.5t-6.5 22.5v92q0 30 29 30h60q28 0 28 -30z" />
    <glyph glyph-name="Yacute" unicode="&#xdd;" horiz-adv-x="558" 
d="M191 650l71 -199q7 -20 17 -60q9 35 20 60l84 199q12 30 35 30h106q16 0 22 -8t0 -22l-184 -398v-222q0 -30 -28 -30h-108q-29 0 -29 30v202l-185 418q-6 14 -0.5 22t21.5 8h122q26 0 36 -30zM431 848l-69 -101q-13 -20 -39 -20h-79q-28 0 -16 29l40 92q13 30 41 30h107
q16 0 20 -8.5t-5 -21.5z" />
    <glyph glyph-name="Thorn" unicode="&#xde;" horiz-adv-x="586" 
d="M225 650v-150h80q131 0 192.5 -49t61.5 -122v-77q0 -73 -61.5 -122t-192.5 -49h-80v-51q0 -30 -28 -30h-108q-29 0 -29 30v620q0 30 29 30h108q28 0 28 -30zM305 365h-80v-149h80q40 0 65.5 16t25.5 49v19q0 33 -25.5 49t-65.5 16z" />
    <glyph glyph-name="germandbls" unicode="&#xdf;" horiz-adv-x="659" 
d="M254 544v-514q0 -30 -28 -30h-103q-29 0 -29 30v343h-50q-16 0 -22.5 6.5t-6.5 22.5v61q0 15 6.5 21t22.5 8l49 6h1v54q0 73 62.5 114.5t181.5 41.5q117 0 174.5 -41t57.5 -115v-35q0 -63 -65 -94l-69 -33q-15 -7 -15 -17v-1q0 -12 21 -22l115 -56q36 -17 61.5 -47
t25.5 -67v-36q0 -152 -183 -152q-97 0 -135.5 36t-38.5 109v3q0 16 6.5 22.5t22.5 6.5h70q16 0 22.5 -6.5t6.5 -22.5v-10q0 -39 42 -39q43 0 43 40v23q0 19 -27 31l-104 47q-41 18 -60 46t-19 75v20q0 61 59 90l42 20q31 15 31 44v17q0 54 -84 54t-84 -54z" />
    <glyph glyph-name="agrave" unicode="&#xe0;" horiz-adv-x="522" 
d="M54 345v12q0 151 212 151q211 0 211 -151v-327q0 -30 -29 -30h-92q-16 0 -21.5 6.5t-7.5 23.5l-2 15q-64 -53 -140 -53q-72 0 -109.5 37t-37.5 91v43q0 54 42.5 91.5t117.5 37.5h122v55q0 24 -13 35t-44 11q-32 0 -46 -9t-14 -32v-7q0 -16 -6.5 -22.5t-22.5 -6.5h-91
q-16 0 -22.5 6.5t-6.5 22.5zM228 116q39 0 92 37v33h-92q-34 0 -34 -31v-13q0 -26 34 -26zM203 577l-69 101q-9 13 -5 21.5t20 8.5h107q28 0 41 -30l40 -92q12 -29 -16 -29h-79q-26 0 -39 20z" />
    <glyph glyph-name="aacute" unicode="&#xe1;" horiz-adv-x="522" 
d="M54 345v12q0 151 212 151q211 0 211 -151v-327q0 -30 -29 -30h-92q-16 0 -21.5 6.5t-7.5 23.5l-2 15q-64 -53 -140 -53q-72 0 -109.5 37t-37.5 91v43q0 54 42.5 91.5t117.5 37.5h122v55q0 24 -13 35t-44 11q-32 0 -46 -9t-14 -32v-7q0 -16 -6.5 -22.5t-22.5 -6.5h-91
q-16 0 -22.5 6.5t-6.5 22.5zM228 116q39 0 92 37v33h-92q-34 0 -34 -31v-13q0 -26 34 -26zM393 678l-69 -101q-13 -20 -39 -20h-79q-28 0 -16 29l40 92q13 30 41 30h107q16 0 20 -8.5t-5 -21.5z" />
    <glyph glyph-name="acircumflex" unicode="&#xe2;" horiz-adv-x="522" 
d="M54 345v12q0 151 212 151q211 0 211 -151v-327q0 -30 -29 -30h-92q-16 0 -21.5 6.5t-7.5 23.5l-2 15q-64 -53 -140 -53q-72 0 -109.5 37t-37.5 91v43q0 54 42.5 91.5t117.5 37.5h122v55q0 24 -13 35t-44 11q-32 0 -46 -9t-14 -32v-7q0 -16 -6.5 -22.5t-22.5 -6.5h-91
q-16 0 -22.5 6.5t-6.5 22.5zM228 116q39 0 92 37v33h-92q-34 0 -34 -31v-13q0 -26 34 -26zM265 614l-12 -28q-12 -29 -41 -29h-78q-16 0 -20.5 8.5t4.5 20.5l71 92q23 30 47 30h58q24 0 47 -30l71 -92q9 -12 4.5 -20.5t-20.5 -8.5h-78q-27 0 -41 29z" />
    <glyph glyph-name="atilde" unicode="&#xe3;" horiz-adv-x="522" 
d="M54 345v12q0 151 212 151q211 0 211 -151v-327q0 -30 -29 -30h-92q-16 0 -21.5 6.5t-7.5 23.5l-2 15q-64 -53 -140 -53q-72 0 -109.5 37t-37.5 91v43q0 54 42.5 91.5t117.5 37.5h122v55q0 24 -13 35t-44 11q-32 0 -46 -9t-14 -32v-7q0 -16 -6.5 -22.5t-22.5 -6.5h-91
q-16 0 -22.5 6.5t-6.5 22.5zM228 116q39 0 92 37v33h-92q-34 0 -34 -31v-13q0 -26 34 -26zM215 590q-16 0 -19 -13l-1 -4q-4 -15 -10.5 -20.5t-21.5 -5.5h-53q-27 0 -24 34l6 49q4 35 30.5 55.5t63.5 20.5q30 0 58 -11l42 -16q30 -12 36 -12q16 0 19 13l1 4q4 15 10.5 20.5
t21.5 5.5h52q28 0 25 -34l-4 -45q-4 -37 -27 -56.5t-57 -19.5q-37 0 -69 10l-43 14q-31 11 -36 11z" />
    <glyph glyph-name="adieresis" unicode="&#xe4;" horiz-adv-x="522" 
d="M54 345v12q0 151 212 151q211 0 211 -151v-327q0 -30 -29 -30h-92q-16 0 -21.5 6.5t-7.5 23.5l-2 15q-64 -53 -140 -53q-72 0 -109.5 37t-37.5 91v43q0 54 42.5 91.5t117.5 37.5h122v55q0 24 -13 35t-44 11q-32 0 -46 -9t-14 -32v-7q0 -16 -6.5 -22.5t-22.5 -6.5h-91
q-16 0 -22.5 6.5t-6.5 22.5zM228 116q39 0 92 37v33h-92q-34 0 -34 -31v-13q0 -26 34 -26zM246 678v-92q0 -16 -6 -22.5t-22 -6.5h-60q-16 0 -22.5 6.5t-6.5 22.5v92q0 30 29 30h60q28 0 28 -30zM401 678v-92q0 -16 -6 -22.5t-22 -6.5h-60q-16 0 -22.5 6.5t-6.5 22.5v92
q0 30 29 30h60q28 0 28 -30z" />
    <glyph glyph-name="aring" unicode="&#xe5;" horiz-adv-x="522" 
d="M54 345v12q0 151 212 151q211 0 211 -151v-327q0 -30 -29 -30h-92q-16 0 -21.5 6.5t-7.5 23.5l-2 15q-64 -53 -140 -53q-72 0 -109.5 37t-37.5 91v43q0 54 42.5 91.5t117.5 37.5h122v55q0 24 -13 35t-44 11q-32 0 -46 -9t-14 -32v-7q0 -16 -6.5 -22.5t-22.5 -6.5h-91
q-16 0 -22.5 6.5t-6.5 22.5zM228 116q39 0 92 37v33h-92q-34 0 -34 -31v-13q0 -26 34 -26zM390 654v-34q0 -34 -30.5 -57t-91.5 -23t-91.5 23t-30.5 57v34q0 34 30.5 57t91.5 23t91.5 -23t30.5 -57zM306 629v16q0 27 -38 27t-38 -27v-16q0 -28 38 -28t38 28z" />
    <glyph glyph-name="ae" unicode="&#xe6;" horiz-adv-x="783" 
d="M746 352v-111q0 -27 -27 -27h-243v-60q0 -44 60 -44q61 0 61 44v1q0 16 6.5 22.5t22.5 6.5h86q16 0 22.5 -6.5t6.5 -22.5v-7q0 -156 -205 -156q-130 0 -182 58q-77 -58 -169 -58q-72 0 -109.5 37t-37.5 91v43q0 54 42.5 91.5t117.5 37.5h122v59q0 42 -57 42q-32 0 -46 -9
t-14 -32v-7q0 -16 -6.5 -22.5t-22.5 -6.5h-91q-16 0 -22.5 6.5t-6.5 22.5v12q0 151 212 151q87 0 130 -40q54 40 140 40q210 0 210 -156zM228 116q39 0 92 37v33h-92q-34 0 -34 -31v-13q0 -26 34 -26zM476 345v-26h121v26q0 45 -61 45q-60 0 -60 -45z" />
    <glyph glyph-name="ccedilla" unicode="&#xe7;" horiz-adv-x="498" 
d="M266 -39h27q89 0 89 -84q0 -88 -89 -88h-125q-30 0 -30 29v21q0 28 30 28h97q9 0 9 10t-9 10h-81q-47 0 -35 40l21 73q-130 27 -130 148v204q0 74 53.5 115t163.5 41t163 -41t53 -115v-15q0 -16 -6.5 -22.5t-22.5 -6.5h-95q-16 0 -22.5 6.5t-6.5 22.5v3q0 24 -14 33.5
t-46 9.5t-46 -9.5t-14 -33.5v-179q0 -24 14 -34t46 -10t46 10t14 34v12q0 16 6.5 22.5t22.5 6.5h95q16 0 22.5 -6.5t6.5 -22.5v-25q0 -70 -49 -110.5t-150 -44.5z" />
    <glyph glyph-name="egrave" unicode="&#xe8;" horiz-adv-x="503" 
d="M466 352v-111q0 -27 -27 -27h-243v-60q0 -44 60 -44q61 0 61 44v1q0 16 6.5 22.5t22.5 6.5h86q16 0 22.5 -6.5t6.5 -22.5v-7q0 -156 -205 -156q-110 0 -163 41t-53 115v204q0 74 53 115t163 41q210 0 210 -156zM196 345v-29h121v29q0 45 -61 45q-60 0 -60 -45zM181 577
l-69 101q-9 13 -5 21.5t20 8.5h107q28 0 41 -30l40 -92q12 -29 -16 -29h-79q-26 0 -39 20z" />
    <glyph glyph-name="eacute" unicode="&#xe9;" horiz-adv-x="503" 
d="M388 678l-69 -101q-13 -20 -39 -20h-79q-28 0 -16 29l40 92q13 30 41 30h107q16 0 20 -8.5t-5 -21.5zM466 352v-111q0 -27 -27 -27h-243v-60q0 -44 60 -44q61 0 61 44v1q0 16 6.5 22.5t22.5 6.5h86q16 0 22.5 -6.5t6.5 -22.5v-7q0 -156 -205 -156q-110 0 -163 41t-53 115
v204q0 74 53 115t163 41q210 0 210 -156zM196 345v-29h121v29q0 45 -61 45q-60 0 -60 -45z" />
    <glyph glyph-name="ecircumflex" unicode="&#xea;" horiz-adv-x="503" 
d="M256 614l-12 -28q-12 -29 -41 -29h-78q-16 0 -20.5 8.5t4.5 20.5l71 92q23 30 47 30h58q24 0 47 -30l71 -92q9 -12 4.5 -20.5t-20.5 -8.5h-78q-27 0 -41 29zM466 352v-111q0 -27 -27 -27h-243v-60q0 -44 60 -44q61 0 61 44v1q0 16 6.5 22.5t22.5 6.5h86q16 0 22.5 -6.5
t6.5 -22.5v-7q0 -156 -205 -156q-110 0 -163 41t-53 115v204q0 74 53 115t163 41q210 0 210 -156zM196 345v-29h121v29q0 45 -61 45q-60 0 -60 -45z" />
    <glyph glyph-name="edieresis" unicode="&#xeb;" horiz-adv-x="503" 
d="M235 678v-92q0 -16 -6 -22.5t-22 -6.5h-60q-16 0 -22.5 6.5t-6.5 22.5v92q0 30 29 30h60q28 0 28 -30zM390 678v-92q0 -16 -6 -22.5t-22 -6.5h-60q-16 0 -22.5 6.5t-6.5 22.5v92q0 30 29 30h60q28 0 28 -30zM466 352v-111q0 -27 -27 -27h-243v-60q0 -44 60 -44
q61 0 61 44v1q0 16 6.5 22.5t22.5 6.5h86q16 0 22.5 -6.5t6.5 -22.5v-7q0 -156 -205 -156q-110 0 -163 41t-53 115v204q0 74 53 115t163 41q210 0 210 -156zM196 345v-29h121v29q0 45 -61 45q-60 0 -60 -45z" />
    <glyph glyph-name="igrave" unicode="&#xec;" 
d="M210 470v-440q0 -30 -28 -30h-103q-29 0 -29 30v440q0 30 29 30h103q28 0 28 -30zM54 577l-69 101q-9 13 -5 21.5t20 8.5h107q28 0 41 -30l40 -92q12 -29 -16 -29h-79q-26 0 -39 20z" />
    <glyph glyph-name="iacute" unicode="&#xed;" 
d="M272 678l-69 -101q-13 -20 -39 -20h-79q-28 0 -16 29l40 92q13 30 41 30h107q16 0 20 -8.5t-5 -21.5zM210 470v-440q0 -30 -28 -30h-103q-29 0 -29 30v440q0 30 29 30h103q28 0 28 -30z" />
    <glyph glyph-name="icircumflex" unicode="&#xee;" 
d="M134 614l-12 -28q-12 -29 -41 -29h-78q-16 0 -20.5 8.5t4.5 20.5l71 92q23 30 47 30h58q24 0 47 -30l71 -92q9 -12 4.5 -20.5t-20.5 -8.5h-78q-27 0 -41 29zM210 470v-440q0 -30 -28 -30h-103q-29 0 -29 30v440q0 30 29 30h103q28 0 28 -30z" />
    <glyph glyph-name="idieresis" unicode="&#xef;" 
d="M112 678v-92q0 -16 -6 -22.5t-22 -6.5h-60q-16 0 -22.5 6.5t-6.5 22.5v92q0 30 29 30h60q28 0 28 -30zM267 678v-92q0 -16 -6 -22.5t-22 -6.5h-60q-16 0 -22.5 6.5t-6.5 22.5v92q0 30 29 30h60q28 0 28 -30zM210 470v-440q0 -30 -28 -30h-103q-29 0 -29 30v440
q0 30 29 30h103q28 0 28 -30z" />
    <glyph glyph-name="eth" unicode="&#xf0;" horiz-adv-x="574" 
d="M280 575l30 18q-12 5 -39 5h-101q-30 0 -30 30v51q0 29 30 29h101q108 0 165 -43l40 24q26 16 41 -11l11 -17q15 -23 -12 -39l-35 -21q7 -21 7 -49v-404q0 -74 -54.5 -115t-164.5 -41q-111 0 -170 41.5t-59 114.5v206q0 73 37 113.5t111 40.5q81 0 150 -52v63l-19 -11
q-25 -14 -40 10l-11 18q-15 24 12 39zM338 162v168q-57 41 -99 41q-18 0 -27 -7t-10.5 -14.5t-1.5 -20.5v-167q0 -45 69 -45t69 45z" />
    <glyph glyph-name="ntilde" unicode="&#xf1;" horiz-adv-x="553" 
d="M79 500h96q15 0 21 -6.5t8 -22.5l2 -17q66 54 155 54q67 0 107 -38.5t40 -100.5v-339q0 -30 -29 -30h-101q-30 0 -30 30v298q0 24 -7.5 33.5t-30.5 9.5q-47 0 -100 -40v-301q0 -30 -28 -30h-103q-29 0 -29 30v441q0 16 6.5 22.5t22.5 6.5zM221 600q-16 0 -19 -13l-1 -4
q-4 -15 -10.5 -20.5t-21.5 -5.5h-53q-27 0 -24 34l6 49q4 35 30.5 55.5t63.5 20.5q30 0 58 -11l42 -16q30 -12 36 -12q16 0 19 13l1 4q4 15 10.5 20.5t21.5 5.5h52q28 0 25 -34l-4 -45q-4 -37 -27 -56.5t-57 -19.5q-37 0 -69 10l-43 14q-31 11 -36 11z" />
    <glyph glyph-name="ograve" unicode="&#xf2;" horiz-adv-x="538" 
d="M40 148v204q0 73 59 114.5t170 41.5t170 -41.5t59 -114.5v-204q0 -73 -59 -114.5t-170 -41.5t-170 41.5t-59 114.5zM338 162v177q0 44 -69 44t-69 -44v-177q0 -45 69 -45t69 45zM198 577l-69 101q-9 13 -5 21.5t20 8.5h107q28 0 41 -30l40 -92q12 -29 -16 -29h-79
q-26 0 -39 20z" />
    <glyph glyph-name="oacute" unicode="&#xf3;" horiz-adv-x="538" 
d="M408 678l-69 -101q-13 -20 -39 -20h-79q-28 0 -16 29l40 92q13 30 41 30h107q16 0 20 -8.5t-5 -21.5zM40 148v204q0 73 59 114.5t170 41.5t170 -41.5t59 -114.5v-204q0 -73 -59 -114.5t-170 -41.5t-170 41.5t-59 114.5zM338 162v177q0 44 -69 44t-69 -44v-177
q0 -45 69 -45t69 45z" />
    <glyph glyph-name="ocircumflex" unicode="&#xf4;" horiz-adv-x="538" 
d="M271 614l-12 -28q-12 -29 -41 -29h-78q-16 0 -20.5 8.5t4.5 20.5l71 92q23 30 47 30h58q24 0 47 -30l71 -92q9 -12 4.5 -20.5t-20.5 -8.5h-78q-27 0 -41 29zM40 148v204q0 73 59 114.5t170 41.5t170 -41.5t59 -114.5v-204q0 -73 -59 -114.5t-170 -41.5t-170 41.5
t-59 114.5zM338 162v177q0 44 -69 44t-69 -44v-177q0 -45 69 -45t69 45z" />
    <glyph glyph-name="otilde" unicode="&#xf5;" horiz-adv-x="538" 
d="M40 148v204q0 73 59 114.5t170 41.5t170 -41.5t59 -114.5v-204q0 -73 -59 -114.5t-170 -41.5t-170 41.5t-59 114.5zM338 162v177q0 44 -69 44t-69 -44v-177q0 -45 69 -45t69 45zM218 590q-16 0 -19 -13l-1 -4q-4 -15 -10.5 -20.5t-21.5 -5.5h-53q-27 0 -24 34l6 49
q4 35 30.5 55.5t63.5 20.5q31 0 58 -11l42 -16q30 -12 36 -12q16 0 19 13l1 4q4 15 10.5 20.5t21.5 5.5h52q28 0 25 -34l-4 -45q-4 -37 -27 -56.5t-57 -19.5q-37 0 -69 10l-43 14q-31 11 -36 11z" />
    <glyph glyph-name="odieresis" unicode="&#xf6;" horiz-adv-x="538" 
d="M252 678v-92q0 -16 -6 -22.5t-22 -6.5h-60q-16 0 -22.5 6.5t-6.5 22.5v92q0 30 29 30h60q28 0 28 -30zM407 678v-92q0 -16 -6 -22.5t-22 -6.5h-60q-16 0 -22.5 6.5t-6.5 22.5v92q0 30 29 30h60q28 0 28 -30zM40 148v204q0 73 59 114.5t170 41.5t170 -41.5t59 -114.5v-204
q0 -73 -59 -114.5t-170 -41.5t-170 41.5t-59 114.5zM338 162v177q0 44 -69 44t-69 -44v-177q0 -45 69 -45t69 45z" />
    <glyph glyph-name="divide" unicode="&#xf7;" horiz-adv-x="577" 
d="M80 353h417q30 0 30 -28v-73q0 -29 -30 -29h-417q-30 0 -30 29v73q0 28 30 28zM370 146v-83q0 -16 -6 -22.5t-22 -6.5h-106q-16 0 -22.5 6.5t-6.5 22.5v83q0 30 29 30h106q28 0 28 -30zM370 512v-83q0 -16 -6 -22.5t-22 -6.5h-106q-16 0 -22.5 6.5t-6.5 22.5v83
q0 30 29 30h106q28 0 28 -30z" />
    <glyph glyph-name="oslash" unicode="&#xf8;" horiz-adv-x="538" 
d="M40 148v204q0 73 59 114.5t170 41.5q47 0 92 -10l6 11q16 30 36 30h35q25 0 8 -30l-19 -35q71 -41 71 -122v-204q0 -73 -59 -114.5t-170 -41.5q-44 0 -93 9l-4 -8q-9 -17 -17 -23.5t-23 -6.5h-32q-12 0 -12.5 10.5t5.5 19.5l17 33q-70 41 -70 122zM338 162v144l-99 -187
q9 -2 30 -2q69 0 69 45zM200 339v-145l99 186q-13 3 -30 3q-69 0 -69 -44z" />
    <glyph glyph-name="ugrave" unicode="&#xf9;" horiz-adv-x="547" 
d="M343 29l-2 16q-63 -53 -149 -53q-67 0 -107 38.5t-40 100.5v339q0 30 29 30h101q30 0 30 -30v-298q0 -24 7.5 -33.5t30.5 -9.5q45 0 94 39v302q0 30 28 30h103q29 0 29 -30v-441q0 -16 -6.5 -22.5t-22.5 -6.5h-96q-15 0 -21 6t-8 23zM195 577l-69 101q-9 13 -5 21.5
t20 8.5h107q28 0 41 -30l40 -92q12 -29 -16 -29h-79q-26 0 -39 20z" />
    <glyph glyph-name="uacute" unicode="&#xfa;" horiz-adv-x="547" 
d="M411 678l-69 -101q-13 -20 -39 -20h-79q-28 0 -16 29l40 92q13 30 41 30h107q16 0 20 -8.5t-5 -21.5zM343 29l-2 16q-63 -53 -149 -53q-67 0 -107 38.5t-40 100.5v339q0 30 29 30h101q30 0 30 -30v-298q0 -24 7.5 -33.5t30.5 -9.5q45 0 94 39v302q0 30 28 30h103
q29 0 29 -30v-441q0 -16 -6.5 -22.5t-22.5 -6.5h-96q-15 0 -21 6t-8 23z" />
    <glyph glyph-name="ucircumflex" unicode="&#xfb;" horiz-adv-x="547" 
d="M257 614l-12 -28q-12 -29 -41 -29h-78q-16 0 -20.5 8.5t4.5 20.5l71 92q23 30 47 30h58q24 0 47 -30l71 -92q9 -12 4.5 -20.5t-20.5 -8.5h-78q-27 0 -41 29zM343 29l-2 16q-63 -53 -149 -53q-67 0 -107 38.5t-40 100.5v339q0 30 29 30h101q30 0 30 -30v-298
q0 -24 7.5 -33.5t30.5 -9.5q45 0 94 39v302q0 30 28 30h103q29 0 29 -30v-441q0 -16 -6.5 -22.5t-22.5 -6.5h-96q-15 0 -21 6t-8 23z" />
    <glyph glyph-name="udieresis" unicode="&#xfc;" horiz-adv-x="547" 
d="M249 678v-92q0 -16 -6 -22.5t-22 -6.5h-60q-16 0 -22.5 6.5t-6.5 22.5v92q0 30 29 30h60q28 0 28 -30zM404 678v-92q0 -16 -6 -22.5t-22 -6.5h-60q-16 0 -22.5 6.5t-6.5 22.5v92q0 30 29 30h60q28 0 28 -30zM343 29l-2 16q-63 -53 -149 -53q-67 0 -107 38.5t-40 100.5
v339q0 30 29 30h101q30 0 30 -30v-298q0 -24 7.5 -33.5t30.5 -9.5q45 0 94 39v302q0 30 28 30h103q29 0 29 -30v-441q0 -16 -6.5 -22.5t-22.5 -6.5h-96q-15 0 -21 6t-8 23z" />
    <glyph glyph-name="yacute" unicode="&#xfd;" horiz-adv-x="494" 
d="M171 470l57 -181q4 -13 7 -27.5t5 -25.5t3 -20.5t2 -15.5t1 -7q6 38 24 91l62 186q9 30 33 30h93q17 0 25.5 -8t3.5 -22l-217 -639q-10 -30 -33 -30h-74q-17 0 -25 8t-4 22l43 152l-170 487q-5 14 3.5 22t25.5 8h102q14 0 21 -7t12 -23zM394 678l-69 -101
q-13 -20 -39 -20h-79q-28 0 -16 29l40 92q13 30 41 30h107q16 0 20 -8.5t-5 -21.5z" />
    <glyph glyph-name="thorn" unicode="&#xfe;" horiz-adv-x="548" 
d="M210 669v-213q66 52 150 52q74 0 111 -40.5t37 -113.5v-208q0 -73 -37 -113.5t-111 -40.5q-82 0 -150 51v-212q0 -30 -28 -30h-103q-29 0 -29 30v838q0 30 29 30h102q29 0 29 -30zM348 171v158q0 13 -1.5 20.5t-10.5 14.5t-27 7q-44 0 -99 -41v-160q55 -41 99 -41
q18 0 27 7t10.5 14.5t1.5 20.5z" />
    <glyph glyph-name="ydieresis" unicode="&#xff;" horiz-adv-x="494" 
d="M171 470l57 -181q4 -13 7 -27.5t5 -25.5t3 -20.5t2 -15.5t1 -7q6 38 24 91l62 186q9 30 33 30h93q17 0 25.5 -8t3.5 -22l-217 -639q-10 -30 -33 -30h-74q-17 0 -25 8t-4 22l43 152l-170 487q-5 14 3.5 22t25.5 8h102q14 0 21 -7t12 -23zM230 678v-92q0 -16 -6 -22.5
t-22 -6.5h-60q-16 0 -22.5 6.5t-6.5 22.5v92q0 30 29 30h60q28 0 28 -30zM385 678v-92q0 -16 -6 -22.5t-22 -6.5h-60q-16 0 -22.5 6.5t-6.5 22.5v92q0 30 29 30h60q28 0 28 -30z" />
    <glyph glyph-name="Amacron" unicode="&#x100;" horiz-adv-x="566" 
d="M337 680q28 0 37 -30l181 -620q9 -30 -22 -30h-111q-27 0 -35 30l-26 96h-166l-26 -96q-8 -30 -35 -30h-101q-31 0 -22 30l181 620q9 30 37 30h108zM325 256l-14 54q-13 51 -31 209q-25 -178 -34 -209l-15 -54h94zM172 860h221q30 0 30 -28v-63q0 -29 -30 -29h-221
q-30 0 -30 29v63q0 28 30 28z" />
    <glyph glyph-name="amacron" unicode="&#x101;" horiz-adv-x="522" 
d="M54 345v12q0 151 212 151q211 0 211 -151v-327q0 -30 -29 -30h-92q-16 0 -21.5 6.5t-7.5 23.5l-2 15q-64 -53 -140 -53q-72 0 -109.5 37t-37.5 91v43q0 54 42.5 91.5t117.5 37.5h122v55q0 24 -13 35t-44 11q-32 0 -46 -9t-14 -32v-7q0 -16 -6.5 -22.5t-22.5 -6.5h-91
q-16 0 -22.5 6.5t-6.5 22.5zM228 116q39 0 92 37v33h-92q-34 0 -34 -31v-13q0 -26 34 -26zM150 680h221q30 0 30 -28v-63q0 -29 -30 -29h-221q-30 0 -30 29v63q0 28 30 28z" />
    <glyph glyph-name="Abreve" unicode="&#x102;" horiz-adv-x="566" 
d="M337 680q28 0 37 -30l181 -620q9 -30 -22 -30h-111q-27 0 -35 30l-26 96h-166l-26 -96q-8 -30 -35 -30h-101q-31 0 -22 30l181 620q9 30 37 30h108zM325 256l-14 54q-13 51 -31 209q-25 -178 -34 -209l-15 -54h94zM248 857v-17q0 -33 35 -33t35 33v17q0 13 6 18.5t20 5.5
h61q14 0 20 -5.5t6 -18.5v-13q0 -62 -40.5 -96t-111.5 -34q-70 0 -107 33.5t-37 96.5v13q0 13 6 18.5t20 5.5h61q14 0 20 -5.5t6 -18.5z" />
    <glyph glyph-name="abreve" unicode="&#x103;" horiz-adv-x="522" 
d="M54 345v12q0 151 212 151q211 0 211 -151v-327q0 -30 -29 -30h-92q-16 0 -21.5 6.5t-7.5 23.5l-2 15q-64 -53 -140 -53q-72 0 -109.5 37t-37.5 91v43q0 54 42.5 91.5t117.5 37.5h122v55q0 24 -13 35t-44 11q-32 0 -46 -9t-14 -32v-7q0 -16 -6.5 -22.5t-22.5 -6.5h-91
q-16 0 -22.5 6.5t-6.5 22.5zM228 116q39 0 92 37v33h-92q-34 0 -34 -31v-13q0 -26 34 -26zM244 686v-17q0 -33 35 -33t35 33v17q0 13 6 18.5t20 5.5h61q14 0 20 -5.5t6 -18.5v-13q0 -62 -40.5 -96t-111.5 -34q-70 0 -107 33.5t-37 96.5v13q0 13 6 18.5t20 5.5h61
q14 0 20 -5.5t6 -18.5z" />
    <glyph glyph-name="Aogonek" unicode="&#x104;" horiz-adv-x="566" 
d="M229 680h108q28 0 37 -30l181 -620q9 -30 -22 -30h-48q-37 0 -37 -57q0 -25 30 -25h23q30 0 30 -28v-40q0 -29 -40 -29h-63q-21 0 -41 5.5t-39 26t-19 54.5q0 71 55 132l-23 87h-166l-26 -96q-8 -30 -35 -30h-101q-31 0 -22 30l181 620q9 30 37 30zM325 256l-14 54
q-8 31 -15.5 81.5t-11.5 85.5t-4 41q-25 -174 -34 -208l-15 -54h94z" />
    <glyph glyph-name="aogonek" unicode="&#x105;" horiz-adv-x="522" 
d="M54 345v12q0 151 212 151q211 0 211 -151v-327q0 -30 -29 -30h-4q-41 0 -41 -57q0 -25 30 -25h14q30 0 30 -28v-40q0 -29 -40 -29h-54q-21 0 -41 5.5t-39 26t-19 54.5q0 62 44 118l-3 20q-64 -53 -140 -53q-72 0 -109.5 37t-37.5 91v43q0 54 42.5 91.5t117.5 37.5h122v55
q0 24 -13 35t-44 11q-32 0 -46 -9t-14 -32v-7q0 -16 -6.5 -22.5t-22.5 -6.5h-91q-16 0 -22.5 6.5t-6.5 22.5zM228 116q39 0 92 37v33h-92q-34 0 -34 -31v-13q0 -26 34 -26z" />
    <glyph glyph-name="Cacute" unicode="&#x106;" horiz-adv-x="577" 
d="M542 224v-61q0 -74 -58 -122.5t-188 -48.5t-188 48.5t-58 122.5v354q0 74 58 122.5t188 48.5t188 -48.5t58 -122.5v-46q0 -30 -28 -30h-103q-29 0 -29 30v17q0 65 -84 65q-83 0 -83 -65v-296q0 -65 83 -65q84 0 84 65v32q0 30 29 30h103q28 0 28 -30zM436 848l-69 -101
q-13 -20 -39 -20h-79q-28 0 -16 29l40 92q13 30 41 30h107q16 0 20 -8.5t-5 -21.5z" />
    <glyph glyph-name="cacute" unicode="&#x107;" horiz-adv-x="498" 
d="M394 678l-69 -101q-13 -20 -39 -20h-79q-28 0 -16 29l40 92q13 30 41 30h107q16 0 20 -8.5t-5 -21.5zM257 508q110 0 163 -41t53 -115v-15q0 -16 -6.5 -22.5t-22.5 -6.5h-95q-16 0 -22.5 6.5t-6.5 22.5v3q0 24 -14 33.5t-46 9.5t-46 -9.5t-14 -33.5v-179q0 -24 14 -34
t46 -10t46 10t14 34v12q0 16 6.5 22.5t22.5 6.5h95q16 0 22.5 -6.5t6.5 -22.5v-25q0 -74 -53.5 -115t-163.5 -41t-163 41t-53 115v204q0 74 53.5 115t163.5 41z" />
    <glyph glyph-name="Ccircumflex" unicode="&#x108;" horiz-adv-x="577" 
d="M542 224v-61q0 -74 -58 -122.5t-188 -48.5t-188 48.5t-58 122.5v354q0 74 58 122.5t188 48.5t188 -48.5t58 -122.5v-46q0 -30 -28 -30h-103q-29 0 -29 30v17q0 65 -84 65q-83 0 -83 -65v-296q0 -65 83 -65q84 0 84 65v32q0 30 29 30h103q28 0 28 -30zM294 784l-12 -28
q-12 -29 -41 -29h-78q-16 0 -20.5 8.5t4.5 20.5l71 92q23 30 47 30h58q24 0 47 -30l71 -92q9 -12 4.5 -20.5t-20.5 -8.5h-78q-27 0 -41 29z" />
    <glyph glyph-name="ccircumflex" unicode="&#x109;" horiz-adv-x="498" 
d="M249 614l-12 -28q-12 -29 -41 -29h-78q-16 0 -20.5 8.5t4.5 20.5l71 92q23 30 47 30h58q24 0 47 -30l71 -92q9 -12 4.5 -20.5t-20.5 -8.5h-78q-27 0 -41 29zM257 508q110 0 163 -41t53 -115v-15q0 -16 -6.5 -22.5t-22.5 -6.5h-95q-16 0 -22.5 6.5t-6.5 22.5v3
q0 24 -14 33.5t-46 9.5t-46 -9.5t-14 -33.5v-179q0 -24 14 -34t46 -10t46 10t14 34v12q0 16 6.5 22.5t22.5 6.5h95q16 0 22.5 -6.5t6.5 -22.5v-25q0 -74 -53.5 -115t-163.5 -41t-163 41t-53 115v204q0 74 53.5 115t163.5 41z" />
    <glyph glyph-name="Cdotaccent" unicode="&#x10a;" horiz-adv-x="577" 
d="M370 839v-83q0 -16 -6 -22.5t-22 -6.5h-106q-16 0 -22.5 6.5t-6.5 22.5v83q0 30 29 30h106q28 0 28 -30zM542 224v-61q0 -74 -58 -122.5t-188 -48.5t-188 48.5t-58 122.5v354q0 74 58 122.5t188 48.5t188 -48.5t58 -122.5v-46q0 -30 -28 -30h-103q-29 0 -29 30v17
q0 65 -84 65q-83 0 -83 -65v-296q0 -65 83 -65q84 0 84 65v32q0 30 29 30h103q28 0 28 -30z" />
    <glyph glyph-name="cdotaccent" unicode="&#x10b;" horiz-adv-x="498" 
d="M257 508q110 0 163 -41t53 -115v-15q0 -16 -6.5 -22.5t-22.5 -6.5h-95q-16 0 -22.5 6.5t-6.5 22.5v3q0 24 -14 33.5t-46 9.5t-46 -9.5t-14 -33.5v-179q0 -24 14 -34t46 -10t46 10t14 34v12q0 16 6.5 22.5t22.5 6.5h95q16 0 22.5 -6.5t6.5 -22.5v-25q0 -74 -53.5 -115
t-163.5 -41t-163 41t-53 115v204q0 74 53.5 115t163.5 41zM330 678v-83q0 -16 -6 -22.5t-22 -6.5h-106q-16 0 -22.5 6.5t-6.5 22.5v83q0 30 29 30h106q28 0 28 -30z" />
    <glyph glyph-name="Ccaron" unicode="&#x10c;" horiz-adv-x="577" 
d="M542 224v-61q0 -74 -58 -122.5t-188 -48.5t-188 48.5t-58 122.5v354q0 74 58 122.5t188 48.5t188 -48.5t58 -122.5v-46q0 -30 -28 -30h-103q-29 0 -29 30v17q0 65 -84 65q-83 0 -83 -65v-296q0 -65 83 -65q84 0 84 65v32q0 30 29 30h103q28 0 28 -30zM276 849l12 -28
l12 28q12 29 41 29h78q16 0 20.5 -8.5t-4.5 -20.5l-71 -92q-23 -30 -47 -30h-58q-24 0 -47 30l-71 92q-9 12 -4.5 20.5t20.5 8.5h78q29 0 41 -29z" />
    <glyph glyph-name="ccaron" unicode="&#x10d;" horiz-adv-x="498" 
d="M237 679l12 -28l12 28q12 29 41 29h78q16 0 20.5 -8.5t-4.5 -20.5l-71 -92q-23 -30 -47 -30h-58q-24 0 -47 30l-71 92q-9 12 -4.5 20.5t20.5 8.5h78q29 0 41 -29zM257 508q110 0 163 -41t53 -115v-15q0 -16 -6.5 -22.5t-22.5 -6.5h-95q-16 0 -22.5 6.5t-6.5 22.5v3
q0 24 -14 33.5t-46 9.5t-46 -9.5t-14 -33.5v-179q0 -24 14 -34t46 -10t46 10t14 34v12q0 16 6.5 22.5t22.5 6.5h95q16 0 22.5 -6.5t6.5 -22.5v-25q0 -74 -53.5 -115t-163.5 -41t-163 41t-53 115v204q0 74 53.5 115t163.5 41z" />
    <glyph glyph-name="Dcaron" unicode="&#x10e;" horiz-adv-x="621" 
d="M315 0h-230q-25 0 -25 30v620q0 30 29 30h226q131 0 193.5 -49.5t62.5 -121.5v-338q0 -72 -62.5 -121.5t-193.5 -49.5zM315 545h-90v-410h90q40 0 65.5 16t25.5 49v280q0 33 -25.5 49t-65.5 16zM296 849l12 -28l12 28q12 29 41 29h78q16 0 20.5 -8.5t-4.5 -20.5l-71 -92
q-23 -30 -47 -30h-58q-24 0 -47 30l-71 92q-9 12 -4.5 20.5t20.5 8.5h78q29 0 41 -29z" />
    <glyph glyph-name="dcaron" unicode="&#x10f;" horiz-adv-x="674" 
d="M558 690v32q0 30 29 30h76q28 0 28 -30v-41q0 -66 -48 -140q-13 -20 -39 -15l-57 13q-29 7 -15 39q1 3 5.5 12t5 11t3.5 9t3.5 9t3 8.5t2.5 10t1 10t1 12.5t0.5 13.5t0.5 16.5zM344 30l-2 17q-70 -55 -154 -55q-74 0 -111 40.5t-37 113.5v208q0 73 37 113.5t111 40.5
q81 0 150 -52v213q0 30 28 30h103q29 0 29 -30v-639q0 -30 -29 -30h-96q-15 0 -21 7t-8 23zM200 329v-158q0 -13 1.5 -20.5t10.5 -14.5t27 -7q42 0 99 41v160q-57 41 -99 41q-18 0 -27 -7t-10.5 -14.5t-1.5 -20.5z" />
    <glyph glyph-name="Dcroat" unicode="&#x110;" horiz-adv-x="621" 
d="M315 0h-230q-25 0 -25 30v251h-31q-30 0 -30 29v63q0 28 30 28h31v249q0 30 29 30h226q131 0 193.5 -49.5t62.5 -121.5v-338q0 -72 -62.5 -121.5t-193.5 -49.5zM315 545h-90v-144h71q30 0 30 -28v-63q0 -29 -30 -29h-71v-146h90q40 0 65.5 16t25.5 49v280q0 33 -25.5 49
t-65.5 16z" />
    <glyph glyph-name="dcroat" unicode="&#x111;" horiz-adv-x="548" 
d="M344 30l-2 17q-70 -55 -154 -55q-74 0 -111 40.5t-37 113.5v208q0 73 37 113.5t111 40.5q81 0 150 -52v76h-66q-30 0 -30 29v53q0 28 30 28h66v27q0 30 28 30h103q29 0 29 -30v-27h21q30 0 30 -28v-53q0 -29 -30 -29h-21v-502q0 -30 -29 -30h-96q-15 0 -21 7t-8 23z
M200 329v-158q0 -13 1.5 -20.5t10.5 -14.5t27 -7q42 0 99 41v160q-57 41 -99 41q-18 0 -27 -7t-10.5 -14.5t-1.5 -20.5z" />
    <glyph glyph-name="Emacron" unicode="&#x112;" horiz-adv-x="506" 
d="M441 0h-352q-29 0 -29 30v620q0 30 29 30h342q30 0 30 -28v-78q0 -29 -30 -29h-206v-130h190q30 0 30 -28v-73q0 -29 -30 -29h-190v-150h216q30 0 30 -28v-78q0 -29 -30 -29zM142 860h221q30 0 30 -28v-63q0 -29 -30 -29h-221q-30 0 -30 29v63q0 28 30 28z" />
    <glyph glyph-name="emacron" unicode="&#x113;" horiz-adv-x="503" 
d="M466 352v-111q0 -27 -27 -27h-243v-60q0 -44 60 -44q61 0 61 44v1q0 16 6.5 22.5t22.5 6.5h86q16 0 22.5 -6.5t6.5 -22.5v-7q0 -156 -205 -156q-110 0 -163 41t-53 115v204q0 74 53 115t163 41q210 0 210 -156zM196 345v-29h121v29q0 45 -61 45q-60 0 -60 -45zM141 680
h221q30 0 30 -28v-63q0 -29 -30 -29h-221q-30 0 -30 29v63q0 28 30 28z" />
    <glyph glyph-name="Ebreve" unicode="&#x114;" horiz-adv-x="506" 
d="M441 0h-352q-29 0 -29 30v620q0 30 29 30h342q30 0 30 -28v-78q0 -29 -30 -29h-206v-130h190q30 0 30 -28v-73q0 -29 -30 -29h-190v-150h216q30 0 30 -28v-78q0 -29 -30 -29zM214 857v-17q0 -33 35 -33t35 33v17q0 13 6 18.5t20 5.5h61q14 0 20 -5.5t6 -18.5v-13
q0 -62 -40.5 -96t-111.5 -34q-70 0 -107 33.5t-37 96.5v13q0 13 6 18.5t20 5.5h61q14 0 20 -5.5t6 -18.5z" />
    <glyph glyph-name="ebreve" unicode="&#x115;" horiz-adv-x="503" 
d="M466 352v-111q0 -27 -27 -27h-243v-60q0 -44 60 -44q61 0 61 44v1q0 16 6.5 22.5t22.5 6.5h86q16 0 22.5 -6.5t6.5 -22.5v-7q0 -156 -205 -156q-110 0 -163 41t-53 115v204q0 74 53 115t163 41q210 0 210 -156zM196 345v-29h121v29q0 45 -61 45q-60 0 -60 -45zM216 686
v-17q0 -33 35 -33t35 33v17q0 13 6 18.5t20 5.5h61q14 0 20 -5.5t6 -18.5v-13q0 -62 -40.5 -96t-111.5 -34q-70 0 -107 33.5t-37 96.5v13q0 13 6 18.5t20 5.5h61q14 0 20 -5.5t6 -18.5z" />
    <glyph glyph-name="Edotaccent" unicode="&#x116;" horiz-adv-x="506" 
d="M339 839v-83q0 -16 -6 -22.5t-22 -6.5h-106q-16 0 -22.5 6.5t-6.5 22.5v83q0 30 29 30h106q28 0 28 -30zM441 0h-352q-29 0 -29 30v620q0 30 29 30h342q30 0 30 -28v-78q0 -29 -30 -29h-206v-130h190q30 0 30 -28v-73q0 -29 -30 -29h-190v-150h216q30 0 30 -28v-78
q0 -29 -30 -29z" />
    <glyph glyph-name="edotaccent" unicode="&#x117;" horiz-adv-x="503" 
d="M466 352v-111q0 -27 -27 -27h-243v-60q0 -44 60 -44q61 0 61 44v1q0 16 6.5 22.5t22.5 6.5h86q16 0 22.5 -6.5t6.5 -22.5v-7q0 -156 -205 -156q-110 0 -163 41t-53 115v204q0 74 53 115t163 41q210 0 210 -156zM196 345v-29h121v29q0 45 -61 45q-60 0 -60 -45z" />
    <glyph glyph-name="Eogonek" unicode="&#x118;" horiz-adv-x="506" 
d="M441 0h-27q-41 0 -41 -57q0 -25 30 -25h23q30 0 30 -28v-40q0 -29 -40 -29h-63q-21 0 -41 5.5t-39 26t-19 54.5q0 49 26 93h-191q-29 0 -29 30v620q0 30 29 30h342q30 0 30 -28v-78q0 -29 -30 -29h-206v-130h190q30 0 30 -28v-73q0 -29 -30 -29h-190v-150h216
q30 0 30 -28v-78q0 -29 -30 -29z" />
    <glyph glyph-name="eogonek" unicode="&#x119;" horiz-adv-x="503" 
d="M466 352v-111q0 -27 -27 -27h-243v-60q0 -44 60 -44q61 0 61 44v1q0 16 6.5 22.5t22.5 6.5h86q16 0 22.5 -6.5t6.5 -22.5v-7q0 -61 -33 -101q-4 -4 -16.5 -17.5t-20 -22.5t-14.5 -26.5t-7 -37.5q0 -25 30 -25h23q30 0 30 -28v-40q0 -29 -40 -29h-63q-21 0 -41 5.5t-39 26
t-19 54.5q0 44 22 86q-2 0 -8 -0.5t-9 -0.5q-110 0 -163 41t-53 115v204q0 74 53 115t163 41q210 0 210 -156zM196 345v-29h121v29q0 45 -61 45q-60 0 -60 -45z" />
    <glyph glyph-name="Ecaron" unicode="&#x11a;" horiz-adv-x="506" 
d="M441 0h-352q-29 0 -29 30v620q0 30 29 30h342q30 0 30 -28v-78q0 -29 -30 -29h-206v-130h190q30 0 30 -28v-73q0 -29 -30 -29h-190v-150h216q30 0 30 -28v-78q0 -29 -30 -29zM241 849l12 -28l12 28q12 29 41 29h78q16 0 20.5 -8.5t-4.5 -20.5l-71 -92q-23 -30 -47 -30
h-58q-24 0 -47 30l-71 92q-9 12 -4.5 20.5t20.5 8.5h78q29 0 41 -29z" />
    <glyph glyph-name="ecaron" unicode="&#x11b;" horiz-adv-x="503" 
d="M239 679l12 -28l12 28q12 29 41 29h78q16 0 20.5 -8.5t-4.5 -20.5l-71 -92q-23 -30 -47 -30h-58q-24 0 -47 30l-71 92q-9 12 -4.5 20.5t20.5 8.5h78q29 0 41 -29zM466 352v-111q0 -27 -27 -27h-243v-60q0 -44 60 -44q61 0 61 44v1q0 16 6.5 22.5t22.5 6.5h86
q16 0 22.5 -6.5t6.5 -22.5v-7q0 -156 -205 -156q-110 0 -163 41t-53 115v204q0 74 53 115t163 41q210 0 210 -156zM196 345v-29h121v29q0 45 -61 45q-60 0 -60 -45z" />
    <glyph glyph-name="Gcircumflex" unicode="&#x11c;" horiz-adv-x="587" 
d="M293 784l-12 -28q-12 -29 -41 -29h-78q-16 0 -20.5 8.5t4.5 20.5l71 92q23 30 47 30h58q24 0 47 -30l71 -92q9 -12 4.5 -20.5t-20.5 -8.5h-78q-27 0 -41 29zM300 370h212q30 0 30 -28v-179q0 -74 -58 -122.5t-188 -48.5t-188 48.5t-58 122.5v354q0 74 58 122.5t188 48.5
t188 -48.5t58 -122.5v-36q0 -30 -28 -30h-103q-29 0 -29 30v7q0 65 -84 65q-83 0 -83 -65v-296q0 -65 83 -65q84 0 84 65v43h-82q-30 0 -30 29v78q0 28 30 28z" />
    <glyph glyph-name="gcircumflex" unicode="&#x11d;" horiz-adv-x="548" 
d="M274 614l-12 -28q-12 -29 -41 -29h-78q-16 0 -20.5 8.5t4.5 20.5l71 92q23 30 47 30h58q24 0 47 -30l71 -92q9 -12 4.5 -20.5t-20.5 -8.5h-78q-27 0 -41 29zM188 -8q-74 0 -111 40.5t-37 113.5v208q0 73 37 113.5t111 40.5q84 0 155 -56l2 18q2 17 7.5 23.5t21.5 6.5h95
q29 0 29 -30v-513q0 -73 -58 -114.5t-169 -41.5h-143q-30 0 -30 29v71q0 30 30 30h143q67 0 67 44v68q-70 -51 -150 -51zM200 329v-158q0 -13 1.5 -20.5t10.5 -14.5t27 -7q42 0 99 41v160q-57 41 -99 41q-18 0 -27 -7t-10.5 -14.5t-1.5 -20.5z" />
    <glyph glyph-name="Gbreve" unicode="&#x11e;" horiz-adv-x="587" 
d="M300 370h212q30 0 30 -28v-179q0 -74 -58 -122.5t-188 -48.5t-188 48.5t-58 122.5v354q0 74 58 122.5t188 48.5t188 -48.5t58 -122.5v-36q0 -30 -28 -30h-103q-29 0 -29 30v7q0 65 -84 65q-83 0 -83 -65v-296q0 -65 83 -65q84 0 84 65v43h-82q-30 0 -30 29v78q0 28 30 28
zM258 857v-17q0 -33 35 -33t35 33v17q0 13 6 18.5t20 5.5h61q14 0 20 -5.5t6 -18.5v-13q0 -62 -40.5 -96t-111.5 -34q-70 0 -107 33.5t-37 96.5v13q0 13 6 18.5t20 5.5h61q14 0 20 -5.5t6 -18.5z" />
    <glyph glyph-name="gbreve" unicode="&#x11f;" horiz-adv-x="548" 
d="M188 -8q-74 0 -111 40.5t-37 113.5v208q0 73 37 113.5t111 40.5q84 0 155 -56l2 18q2 17 7.5 23.5t21.5 6.5h95q29 0 29 -30v-513q0 -73 -58 -114.5t-169 -41.5h-143q-30 0 -30 29v71q0 30 30 30h143q67 0 67 44v68q-70 -51 -150 -51zM200 329v-158q0 -13 1.5 -20.5
t10.5 -14.5t27 -7q42 0 99 41v160q-57 41 -99 41q-18 0 -27 -7t-10.5 -14.5t-1.5 -20.5zM235 686v-17q0 -33 35 -33t35 33v17q0 13 6 18.5t20 5.5h61q14 0 20 -5.5t6 -18.5v-13q0 -62 -40.5 -96t-111.5 -34q-70 0 -107 33.5t-37 96.5v13q0 13 6 18.5t20 5.5h61q14 0 20 -5.5
t6 -18.5z" />
    <glyph glyph-name="Gdotaccent" unicode="&#x120;" horiz-adv-x="587" 
d="M375 836v-83q0 -16 -6 -22.5t-22 -6.5h-106q-16 0 -22.5 6.5t-6.5 22.5v83q0 30 29 30h106q28 0 28 -30zM300 367h212q30 0 30 -28v-179q0 -74 -58 -122.5t-188 -48.5t-188 48.5t-58 122.5v354q0 74 58 122.5t188 48.5t188 -48.5t58 -122.5v-36q0 -30 -28 -30h-103
q-29 0 -29 30v7q0 65 -84 65q-83 0 -83 -65v-296q0 -65 83 -65q84 0 84 65v43h-82q-30 0 -30 29v78q0 28 30 28z" />
    <glyph glyph-name="gdotaccent" unicode="&#x121;" horiz-adv-x="548" 
d="M188 -8q-74 0 -111 40.5t-37 113.5v208q0 73 37 113.5t111 40.5q84 0 155 -56l2 18q2 17 7.5 23.5t21.5 6.5h95q29 0 29 -30v-513q0 -73 -58 -114.5t-169 -41.5h-143q-30 0 -30 29v71q0 30 30 30h143q67 0 67 44v68q-70 -51 -150 -51zM200 329v-158q0 -13 1.5 -20.5
t10.5 -14.5t27 -7q42 0 99 41v160q-57 41 -99 41q-18 0 -27 -7t-10.5 -14.5t-1.5 -20.5zM355 678v-83q0 -16 -6 -22.5t-22 -6.5h-106q-16 0 -22.5 6.5t-6.5 22.5v83q0 30 29 30h106q28 0 28 -30z" />
    <glyph glyph-name="Gcommaaccent" unicode="&#x122;" horiz-adv-x="587" 
d="M232 -112v32q0 30 29 30h76q28 0 28 -30v-41q0 -66 -48 -140q-13 -20 -39 -15l-57 13q-29 7 -15 39q1 3 5.5 12t5 11t3.5 9t3.5 9t3 8.5t2.5 10t1 10t1 12.5t0.5 13.5t0.5 16.5zM300 370h212q30 0 30 -28v-179q0 -74 -58 -122.5t-188 -48.5t-188 48.5t-58 122.5v354
q0 74 58 122.5t188 48.5t188 -48.5t58 -122.5v-36q0 -30 -28 -30h-103q-29 0 -29 30v7q0 65 -84 65q-83 0 -83 -65v-296q0 -65 83 -65q84 0 84 65v43h-82q-30 0 -30 29v78q0 28 30 28z" />
    <glyph glyph-name="gcommaaccent" unicode="&#x123;" horiz-adv-x="548" 
d="M321 628v-32q0 -30 -29 -30h-76q-28 0 -28 30v41q0 66 48 140q13 20 39 15l57 -13q29 -7 15 -39q-1 -3 -5.5 -12t-5 -11t-3.5 -9t-3.5 -9t-3 -8.5t-2.5 -10t-1 -10t-1 -12.5t-0.5 -13.5t-0.5 -16.5zM188 -8q-74 0 -111 40.5t-37 113.5v208q0 73 37 113.5t111 40.5
q84 0 155 -56l2 18q2 17 7.5 23.5t21.5 6.5h95q29 0 29 -30v-513q0 -73 -58 -114.5t-169 -41.5h-143q-30 0 -30 29v71q0 30 30 30h143q67 0 67 44v68q-70 -51 -150 -51zM200 329v-158q0 -13 1.5 -20.5t10.5 -14.5t27 -7q42 0 99 41v160q-57 41 -99 41q-18 0 -27 -7
t-10.5 -14.5t-1.5 -20.5z" />
    <glyph glyph-name="Hcircumflex" unicode="&#x124;" horiz-adv-x="631" 
d="M225 650v-238h181v238q0 30 29 30h108q28 0 28 -30v-620q0 -30 -28 -30h-108q-29 0 -29 30v247h-181v-247q0 -30 -28 -30h-108q-29 0 -29 30v620q0 30 29 30h108q28 0 28 -30zM315 784l-12 -28q-12 -29 -41 -29h-78q-16 0 -20.5 8.5t4.5 20.5l71 92q23 30 47 30h58
q24 0 47 -30l71 -92q9 -12 4.5 -20.5t-20.5 -8.5h-78q-27 0 -41 29z" />
    <glyph glyph-name="hcircumflex" unicode="&#x125;" horiz-adv-x="553" 
d="M210 669v-211q64 50 151 50q67 0 107 -38.5t40 -100.5v-339q0 -30 -29 -30h-101q-30 0 -30 30v298q0 24 -7.5 33.5t-30.5 9.5q-47 0 -100 -40v-301q0 -30 -28 -30h-103q-29 0 -29 30v639q0 30 29 30h103q28 0 28 -30zM130 784l-12 -28q-12 -29 -41 -29h-78
q-16 0 -20.5 8.5t4.5 20.5l71 92q23 30 47 30h58q24 0 47 -30l71 -92q9 -12 4.5 -20.5t-20.5 -8.5h-78q-27 0 -41 29z" />
    <glyph glyph-name="Hbar" unicode="&#x126;" horiz-adv-x="631" 
d="M225 650v-75h181v75q0 30 29 30h108q28 0 28 -30v-75h29q30 0 30 -28v-53q0 -29 -30 -29h-29v-435q0 -30 -28 -30h-108q-29 0 -29 30v247h-181v-247q0 -30 -28 -30h-108q-29 0 -29 30v435h-29q-30 0 -30 29v53q0 28 30 28h29v75q0 30 29 30h108q28 0 28 -30zM225 412h181
v53h-181v-53z" />
    <glyph glyph-name="hbar" unicode="&#x127;" horiz-adv-x="553" 
d="M210 669v-27h67q30 0 30 -28v-53q0 -29 -30 -29h-67v-74q64 50 151 50q67 0 107 -38.5t40 -100.5v-339q0 -30 -29 -30h-101q-30 0 -30 30v298q0 24 -7.5 33.5t-30.5 9.5q-47 0 -100 -40v-301q0 -30 -28 -30h-103q-29 0 -29 30v502h-20q-30 0 -30 29v53q0 28 30 28h20v27
q0 30 29 30h103q28 0 28 -30z" />
    <glyph glyph-name="Itilde" unicode="&#x128;" horiz-adv-x="285" 
d="M225 650v-620q0 -30 -28 -30h-108q-29 0 -29 30v620q0 30 29 30h108q28 0 28 -30zM89 770q-16 0 -19 -13l-1 -4q-4 -15 -10.5 -20.5t-21.5 -5.5h-53q-27 0 -24 34l6 49q4 35 30.5 55.5t63.5 20.5q30 0 58 -11l42 -16q30 -12 36 -12q16 0 19 13l1 4q4 15 10.5 20.5
t21.5 5.5h52q28 0 25 -34l-4 -45q-4 -37 -27 -56.5t-57 -19.5q-37 0 -69 10l-43 14q-31 11 -36 11z" />
    <glyph glyph-name="itilde" unicode="&#x129;" 
d="M210 470v-440q0 -30 -28 -30h-103q-29 0 -29 30v440q0 30 29 30h103q28 0 28 -30zM77 590q-16 0 -19 -13l-1 -4q-4 -15 -10.5 -20.5t-21.5 -5.5h-53q-27 0 -24 34l6 49q4 35 30.5 55.5t63.5 20.5q31 0 58 -11l42 -16q30 -12 36 -12q16 0 19 13l1 4q4 15 10.5 20.5
t21.5 5.5h52q28 0 25 -34l-4 -45q-4 -37 -27 -56.5t-57 -19.5q-37 0 -69 10l-43 14q-31 11 -36 11z" />
    <glyph glyph-name="Imacron" unicode="&#x12a;" horiz-adv-x="285" 
d="M225 650v-620q0 -30 -28 -30h-108q-29 0 -29 30v620q0 30 29 30h108q28 0 28 -30zM32 860h221q30 0 30 -28v-63q0 -29 -30 -29h-221q-30 0 -30 29v63q0 28 30 28z" />
    <glyph glyph-name="imacron" unicode="&#x12b;" 
d="M210 470v-440q0 -30 -28 -30h-103q-29 0 -29 30v440q0 30 29 30h103q28 0 28 -30zM20 680h221q30 0 30 -28v-63q0 -29 -30 -29h-221q-30 0 -30 29v63q0 28 30 28z" />
    <glyph glyph-name="Ibreve" unicode="&#x12c;" horiz-adv-x="285" 
d="M225 650v-620q0 -30 -28 -30h-108q-29 0 -29 30v620q0 30 29 30h108q28 0 28 -30zM107 857v-17q0 -33 35 -33t35 33v17q0 13 6 18.5t20 5.5h61q14 0 20 -5.5t6 -18.5v-13q0 -62 -40.5 -96t-111.5 -34q-70 0 -107 33.5t-37 96.5v13q0 13 6 18.5t20 5.5h61q14 0 20 -5.5
t6 -18.5z" />
    <glyph glyph-name="ibreve" unicode="&#x12d;" 
d="M210 470v-440q0 -30 -28 -30h-103q-29 0 -29 30v440q0 30 29 30h103q28 0 28 -30zM95 686v-17q0 -33 35 -33t35 33v17q0 13 6 18.5t20 5.5h61q14 0 20 -5.5t6 -18.5v-13q0 -62 -40.5 -96t-111.5 -34q-70 0 -107 33.5t-37 96.5v13q0 13 6 18.5t20 5.5h61q14 0 20 -5.5
t6 -18.5z" />
    <glyph glyph-name="Iogonek" unicode="&#x12e;" horiz-adv-x="285" 
d="M225 650v-620q0 -30 -28 -30h-33q-37 0 -37 -57q0 -25 30 -25h23q30 0 30 -28v-40q0 -29 -40 -29h-63q-21 0 -41 5.5t-39 26t-19 54.5q0 69 52 128v615q0 30 29 30h108q28 0 28 -30z" />
    <glyph glyph-name="iogonek" unicode="&#x12f;" 
d="M160 -179h-63q-21 0 -41 5.5t-39 26t-19 54.5q0 69 52 128v435q0 30 29 30h103q28 0 28 -30v-440q0 -30 -28 -30h-24q-41 0 -41 -57q0 -25 30 -25h23q30 0 30 -28v-40q0 -29 -40 -29zM210 669v-83q0 -16 -6 -22.5t-22 -6.5h-103q-16 0 -22.5 6.5t-6.5 22.5v83q0 30 29 30
h103q28 0 28 -30z" />
    <glyph glyph-name="Idotaccent" unicode="&#x130;" horiz-adv-x="285" 
d="M225 650v-620q0 -30 -28 -30h-108q-29 0 -29 30v620q0 30 29 30h108q28 0 28 -30zM224 839v-83q0 -16 -6 -22.5t-22 -6.5h-106q-16 0 -22.5 6.5t-6.5 22.5v83q0 30 29 30h106q28 0 28 -30z" />
    <glyph glyph-name="dotlessi" unicode="&#x131;" 
d="M210 470v-440q0 -30 -28 -30h-103q-29 0 -29 30v440q0 30 29 30h103q28 0 28 -30z" />
    <glyph glyph-name="IJ" unicode="&#x132;" horiz-adv-x="808" 
d="M225 650v-620q0 -30 -28 -30h-108q-29 0 -29 30v620q0 30 29 30h108q28 0 28 -30zM457 229v-37q0 -65 70 -65q32 0 46.5 15.5t14.5 49.5v458q0 30 29 30h108q28 0 28 -30v-487q0 -74 -52 -122.5t-174 -48.5t-177 49t-55 122v66q0 30 29 30h105q28 0 28 -30z" />
    <glyph glyph-name="ij" unicode="&#x133;" horiz-adv-x="520" 
d="M210 470v-440q0 -30 -28 -30h-103q-29 0 -29 30v440q0 30 29 30h103q28 0 28 -30zM210 669v-83q0 -16 -6 -22.5t-22 -6.5h-103q-16 0 -22.5 6.5t-6.5 22.5v83q0 30 29 30h103q28 0 28 -30zM470 669v-83q0 -16 -6 -22.5t-22 -6.5h-103q-16 0 -22.5 6.5t-6.5 22.5v83
q0 30 29 30h103q28 0 28 -30zM470 470v-513q0 -73 -58 -114.5t-169 -41.5h-11q-30 0 -30 29v71q0 30 30 30h11q67 0 67 44v495q0 30 28 30h103q29 0 29 -30z" />
    <glyph glyph-name="Jcircumflex" unicode="&#x134;" horiz-adv-x="523" 
d="M172 229v-37q0 -65 70 -65q32 0 46.5 15.5t14.5 49.5v458q0 30 29 30h108q28 0 28 -30v-487q0 -74 -52 -122.5t-174 -48.5t-177 49t-55 122v66q0 30 29 30h105q28 0 28 -30zM378 784l-12 -28q-12 -29 -41 -29h-78q-16 0 -20.5 8.5t4.5 20.5l71 92q23 30 47 30h58
q24 0 47 -30l71 -92q9 -12 4.5 -20.5t-20.5 -8.5h-78q-27 0 -41 29z" />
    <glyph glyph-name="jcircumflex" unicode="&#x135;" 
d="M210 470v-513q0 -73 -58 -114.5t-169 -41.5h-11q-30 0 -30 29v71q0 30 30 30h11q67 0 67 44v495q0 30 28 30h103q29 0 29 -30zM130 614l-12 -28q-12 -29 -41 -29h-78q-16 0 -20.5 8.5t4.5 20.5l71 92q23 30 47 30h58q24 0 47 -30l71 -92q9 -12 4.5 -20.5t-20.5 -8.5h-78
q-27 0 -41 29z" />
    <glyph glyph-name="Kcommaaccent" unicode="&#x136;" horiz-adv-x="600" 
d="M233 -112v32q0 30 29 30h76q28 0 28 -30v-41q0 -66 -48 -140q-13 -20 -39 -15l-57 13q-29 7 -15 39q1 3 5.5 12t5 11t3.5 9t3.5 9t3 8.5t2.5 10t1 10t1 12.5t0.5 13.5t0.5 16.5zM374 346l215 -316q8 -11 4 -20.5t-19 -9.5h-138q-22 0 -42 30l-158 245h-11v-245
q0 -30 -28 -30h-108q-29 0 -29 30v620q0 30 29 30h108q28 0 28 -30v-255h10l153 255q19 30 47 30h115q15 0 18.5 -9t-4.5 -21z" />
    <glyph glyph-name="kcommaaccent" unicode="&#x137;" horiz-adv-x="511" 
d="M204 -112v32q0 30 29 30h76q28 0 28 -30v-41q0 -66 -48 -140q-13 -20 -39 -15l-57 13q-29 7 -15 39q1 3 5.5 12t5 11t3.5 9t3.5 9t3 8.5t2.5 10t1 10t1 12.5t0.5 13.5t0.5 16.5zM353 284l157 -254q8 -11 4 -20.5t-19 -9.5h-111q-22 0 -42 30l-116 189h-16v-189
q0 -30 -28 -30h-103q-29 0 -29 30v639q0 30 29 30h103q28 0 28 -30v-330h16l103 131q24 30 47 30h111q15 0 19 -10t-5 -20z" />
    <glyph glyph-name="kgreenlandic" unicode="&#x138;" horiz-adv-x="511" 
d="M353 284l157 -254q8 -11 4 -20.5t-19 -9.5h-111q-24 0 -42 30l-116 189h-16v-189q0 -30 -28 -30h-103q-29 0 -29 30v440q0 30 29 30h103q28 0 28 -30v-131h16l103 131q24 30 47 30h111q15 0 19 -9.5t-5 -20.5z" />
    <glyph glyph-name="Lacute" unicode="&#x139;" horiz-adv-x="471" 
d="M284 848l-69 -101q-13 -20 -39 -20h-79q-28 0 -16 29l40 92q13 30 41 30h107q16 0 20 -8.5t-5 -21.5zM225 650v-515h196q30 0 30 -28v-78q0 -29 -30 -29h-336q-25 0 -25 30v620q0 30 29 30h108q28 0 28 -30z" />
    <glyph glyph-name="lacute" unicode="&#x13a;" 
d="M274 848l-69 -101q-13 -20 -39 -20h-79q-28 0 -16 29l40 92q13 30 41 30h107q16 0 20 -8.5t-5 -21.5zM210 669v-639q0 -30 -28 -30h-103q-29 0 -29 30v639q0 30 29 30h103q28 0 28 -30z" />
    <glyph glyph-name="Lcommaaccent" unicode="&#x13b;" horiz-adv-x="471" 
d="M172 -112v32q0 30 29 30h76q28 0 28 -30v-41q0 -66 -48 -140q-13 -20 -39 -15l-57 13q-29 7 -15 39q1 3 5.5 12t5 11t3.5 9t3.5 9t3 8.5t2.5 10t1 10t1 12.5t0.5 13.5t0.5 16.5zM225 650v-515h196q30 0 30 -28v-78q0 -29 -30 -29h-336q-25 0 -25 30v620q0 30 29 30h108
q28 0 28 -30z" />
    <glyph glyph-name="lcommaaccent" unicode="&#x13c;" 
d="M64 -113v32q0 30 29 30h76q28 0 28 -30v-41q0 -66 -48 -140q-13 -20 -39 -15l-57 13q-29 7 -15 39q1 3 5.5 12t5 11t3.5 9t3.5 9t3 8.5t2.5 10t1 10t1 12.5t0.5 13.5t0.5 16.5zM210 669v-639q0 -30 -28 -30h-103q-29 0 -29 30v639q0 30 29 30h103q28 0 28 -30z" />
    <glyph glyph-name="Lcaron" unicode="&#x13d;" horiz-adv-x="471" 
d="M318 690v32q0 30 29 30h76q28 0 28 -30v-41q0 -66 -48 -140q-13 -20 -39 -15l-57 13q-29 7 -15 39q1 3 5.5 12t5 11t3.5 9t3.5 9t3 8.5t2.5 10t1 10t1 12.5t0.5 13.5t0.5 16.5zM225 650v-515h196q30 0 30 -28v-78q0 -29 -30 -29h-336q-25 0 -25 30v620q0 30 29 30h108
q28 0 28 -30z" />
    <glyph glyph-name="lcaron" unicode="&#x13e;" horiz-adv-x="387" 
d="M271 690v32q0 30 29 30h76q28 0 28 -30v-41q0 -66 -48 -140q-13 -20 -39 -15l-57 13q-29 7 -15 39q1 3 5.5 12t5 11t3.5 9t3.5 9t3 8.5t2.5 10t1 10t1 12.5t0.5 13.5t0.5 16.5zM210 669v-639q0 -30 -28 -30h-103q-29 0 -29 30v639q0 30 29 30h103q28 0 28 -30z" />
    <glyph glyph-name="Ldot" unicode="&#x13f;" horiz-adv-x="471" 
d="M225 650v-515h196q30 0 30 -28v-78q0 -29 -30 -29h-336q-25 0 -25 30v620q0 30 29 30h108q28 0 28 -30zM451 393v-83q0 -16 -6 -22.5t-22 -6.5h-106q-16 0 -22.5 6.5t-6.5 22.5v83q0 30 29 30h106q28 0 28 -30z" />
    <glyph glyph-name="ldot" unicode="&#x140;" horiz-adv-x="416" 
d="M210 669v-639q0 -30 -28 -30h-103q-29 0 -29 30v639q0 30 29 30h103q28 0 28 -30zM416 393v-83q0 -16 -6 -22.5t-22 -6.5h-106q-16 0 -22.5 6.5t-6.5 22.5v83q0 30 29 30h106q28 0 28 -30z" />
    <glyph glyph-name="Lslash" unicode="&#x141;" horiz-adv-x="471" 
d="M225 650v-221l30 12q26 11 39 -17l15 -34q11 -25 -17 -37l-67 -27v-191h196q30 0 30 -28v-78q0 -29 -30 -29h-336q-25 0 -25 30v229l-16 -6q-27 -11 -38 16l-15 35q-11 25 17 37l52 21v288q0 30 29 30h108q28 0 28 -30z" />
    <glyph glyph-name="lslash" unicode="&#x142;" horiz-adv-x="296" 
d="M227 669v-239l26 11q26 11 39 -17l15 -34q11 -25 -17 -37l-63 -26v-297q0 -30 -28 -30h-103q-29 0 -29 30v233l-25 -10q-27 -11 -38 16l-15 35q-11 25 17 37l61 24v304q0 30 29 30h103q28 0 28 -30z" />
    <glyph glyph-name="Nacute" unicode="&#x143;" horiz-adv-x="631" 
d="M461 848l-69 -101q-13 -20 -39 -20h-79q-28 0 -16 29l40 92q13 30 41 30h107q16 0 20 -8.5t-5 -21.5zM571 650v-620q0 -30 -28 -30h-98q-19 0 -27 14l-160 266q-20 32 -43 90v-340q0 -30 -28 -30h-98q-29 0 -29 30v620q0 30 29 30h98q19 0 25 -12l169 -283q14 -24 35 -75
v340q0 30 29 30h98q28 0 28 -30z" />
    <glyph glyph-name="nacute" unicode="&#x144;" horiz-adv-x="553" 
d="M418 678l-69 -101q-13 -20 -39 -20h-79q-28 0 -16 29l40 92q13 30 41 30h107q16 0 20 -8.5t-5 -21.5zM79 500h96q15 0 21 -6.5t8 -22.5l2 -17q66 54 155 54q67 0 107 -38.5t40 -100.5v-339q0 -30 -29 -30h-101q-30 0 -30 30v298q0 24 -7.5 33.5t-30.5 9.5q-47 0 -100 -40
v-301q0 -30 -28 -30h-103q-29 0 -29 30v441q0 16 6.5 22.5t22.5 6.5z" />
    <glyph glyph-name="Ncommaaccent" unicode="&#x145;" horiz-adv-x="631" 
d="M259 -113v32q0 30 29 30h76q28 0 28 -30v-41q0 -66 -48 -140q-13 -20 -39 -15l-57 13q-29 7 -15 39q1 3 5.5 12t5 11t3.5 9t3.5 9t3 8.5t2.5 10t1 10t1 12.5t0.5 13.5t0.5 16.5zM571 650v-620q0 -30 -28 -30h-98q-19 0 -27 14l-160 266q-20 32 -43 90v-340q0 -30 -28 -30
h-98q-29 0 -29 30v620q0 30 29 30h98q19 0 25 -12l169 -283q14 -24 35 -75v340q0 30 29 30h98q28 0 28 -30z" />
    <glyph glyph-name="ncommaaccent" unicode="&#x146;" horiz-adv-x="553" 
d="M212 -112v32q0 30 29 30h76q28 0 28 -30v-41q0 -66 -48 -140q-13 -20 -39 -15l-57 13q-29 7 -15 39q1 3 5.5 12t5 11t3.5 9t3.5 9t3 8.5t2.5 10t1 10t1 12.5t0.5 13.5t0.5 16.5zM79 500h96q15 0 21 -6.5t8 -22.5l2 -17q66 54 155 54q67 0 107 -38.5t40 -100.5v-339
q0 -30 -29 -30h-101q-30 0 -30 30v298q0 24 -7.5 33.5t-30.5 9.5q-47 0 -100 -40v-301q0 -30 -28 -30h-103q-29 0 -29 30v441q0 16 6.5 22.5t22.5 6.5z" />
    <glyph glyph-name="Ncaron" unicode="&#x147;" horiz-adv-x="631" 
d="M571 650v-620q0 -30 -28 -30h-98q-19 0 -27 14l-160 266q-20 32 -43 90v-340q0 -30 -28 -30h-98q-29 0 -29 30v620q0 30 29 30h98q19 0 25 -12l169 -283q14 -24 35 -75v340q0 30 29 30h98q28 0 28 -30zM303 849l12 -28l12 28q12 29 41 29h78q16 0 20.5 -8.5t-4.5 -20.5
l-71 -92q-23 -30 -47 -30h-58q-24 0 -47 30l-71 92q-9 12 -4.5 20.5t20.5 8.5h78q29 0 41 -29z" />
    <glyph glyph-name="ncaron" unicode="&#x148;" horiz-adv-x="553" 
d="M264 679l12 -28l12 28q12 29 41 29h78q16 0 20.5 -8.5t-4.5 -20.5l-71 -92q-23 -30 -47 -30h-58q-24 0 -47 30l-71 92q-9 12 -4.5 20.5t20.5 8.5h78q29 0 41 -29zM79 500h96q15 0 21 -6.5t8 -22.5l2 -17q66 54 155 54q67 0 107 -38.5t40 -100.5v-339q0 -30 -29 -30h-101
q-30 0 -30 30v298q0 24 -7.5 33.5t-30.5 9.5q-47 0 -100 -40v-301q0 -30 -28 -30h-103q-29 0 -29 30v441q0 16 6.5 22.5t22.5 6.5z" />
    <glyph glyph-name="napostrophe" unicode="&#x149;" horiz-adv-x="553" 
d="M42 690v32q0 30 29 30h76q28 0 28 -30v-41q0 -66 -48 -140q-13 -20 -39 -15l-57 13q-29 7 -15 39q1 3 5.5 12t5 11t3.5 9t3.5 9t3 8.5t2.5 10t1 10t1 12.5t0.5 13.5t0.5 16.5zM79 500h96q15 0 21 -6.5t8 -22.5l2 -17q66 54 155 54q67 0 107 -38.5t40 -100.5v-339
q0 -30 -29 -30h-101q-30 0 -30 30v298q0 24 -7.5 33.5t-30.5 9.5q-47 0 -100 -40v-301q0 -30 -28 -30h-103q-29 0 -29 30v441q0 16 6.5 22.5t22.5 6.5z" />
    <glyph glyph-name="Eng" unicode="&#x14a;" horiz-adv-x="631" 
d="M571 650v-693q0 -73 -56 -114.5t-166 -41.5h-11q-30 0 -30 29v71q0 30 30 30h11q67 0 67 44v42l-158 263q-20 32 -43 90v-340q0 -30 -28 -30h-98q-29 0 -29 30v620q0 30 29 30h98q19 0 25 -12l169 -283q14 -24 35 -75v340q0 30 29 30h98q28 0 28 -30z" />
    <glyph glyph-name="eng" unicode="&#x14b;" horiz-adv-x="553" 
d="M79 500h96q15 0 21 -6.5t8 -22.5l2 -17q66 54 155 54q67 0 107 -38.5t40 -100.5v-412q0 -73 -58 -114.5t-169 -41.5h-11q-30 0 -30 29v71q0 30 30 30h11q67 0 67 44v353q0 24 -7.5 33.5t-30.5 9.5q-47 0 -100 -40v-301q0 -30 -28 -30h-103q-29 0 -29 30v441
q0 16 6.5 22.5t22.5 6.5z" />
    <glyph glyph-name="Omacron" unicode="&#x14c;" horiz-adv-x="611" 
d="M50 163v354q0 72 62 121.5t193 49.5t193.5 -49.5t62.5 -121.5v-354q0 -72 -62.5 -121.5t-193.5 -49.5t-193 49.5t-62 121.5zM396 192v296q0 33 -25.5 49t-65.5 16t-65 -16t-25 -49v-296q0 -33 25 -49t65 -16t65.5 16t25.5 49zM195 860h221q30 0 30 -28v-63q0 -29 -30 -29
h-221q-30 0 -30 29v63q0 28 30 28z" />
    <glyph glyph-name="omacron" unicode="&#x14d;" horiz-adv-x="538" 
d="M158 680h221q30 0 30 -28v-63q0 -29 -30 -29h-221q-30 0 -30 29v63q0 28 30 28zM40 148v204q0 73 59 114.5t170 41.5t170 -41.5t59 -114.5v-204q0 -73 -59 -114.5t-170 -41.5t-170 41.5t-59 114.5zM338 162v177q0 44 -69 44t-69 -44v-177q0 -45 69 -45t69 45z" />
    <glyph glyph-name="Obreve" unicode="&#x14e;" horiz-adv-x="611" 
d="M50 163v354q0 72 62 121.5t193 49.5t193.5 -49.5t62.5 -121.5v-354q0 -72 -62.5 -121.5t-193.5 -49.5t-193 49.5t-62 121.5zM396 192v296q0 33 -25.5 49t-65.5 16t-65 -16t-25 -49v-296q0 -33 25 -49t65 -16t65.5 16t25.5 49zM270 857v-17q0 -33 35 -33t35 33v17
q0 13 6 18.5t20 5.5h61q14 0 20 -5.5t6 -18.5v-13q0 -62 -40.5 -96t-111.5 -34q-70 0 -107 33.5t-37 96.5v13q0 13 6 18.5t20 5.5h61q14 0 20 -5.5t6 -18.5z" />
    <glyph glyph-name="obreve" unicode="&#x14f;" horiz-adv-x="538" 
d="M40 148v204q0 73 59 114.5t170 41.5t170 -41.5t59 -114.5v-204q0 -73 -59 -114.5t-170 -41.5t-170 41.5t-59 114.5zM338 162v177q0 44 -69 44t-69 -44v-177q0 -45 69 -45t69 45zM234 686v-17q0 -33 35 -33t35 33v17q0 13 6 18.5t20 5.5h61q14 0 20 -5.5t6 -18.5v-13
q0 -62 -40.5 -96t-111.5 -34q-70 0 -107 33.5t-37 96.5v13q0 13 6 18.5t20 5.5h61q14 0 20 -5.5t6 -18.5z" />
    <glyph glyph-name="Ohungarumlaut" unicode="&#x150;" horiz-adv-x="611" 
d="M515 848l-66 -92q-21 -29 -44 -29h-75q-32 0 -16 29l51 92q17 30 45 30h90q16 0 20 -8.5t-5 -21.5zM333 848l-51 -92q-16 -29 -39 -29h-75q-32 0 -21 29l36 92q13 30 40 30h90q16 0 21.5 -8.5t-1.5 -21.5zM50 163v354q0 72 62 121.5t193 49.5t193.5 -49.5t62.5 -121.5
v-354q0 -72 -62.5 -121.5t-193.5 -49.5t-193 49.5t-62 121.5zM396 192v296q0 33 -25.5 49t-65.5 16t-65 -16t-25 -49v-296q0 -33 25 -49t65 -16t65.5 16t25.5 49z" />
    <glyph glyph-name="ohungarumlaut" unicode="&#x151;" horiz-adv-x="538" 
d="M492 678l-66 -92q-21 -29 -44 -29h-75q-32 0 -16 29l51 92q17 30 45 30h90q16 0 20 -8.5t-5 -21.5zM310 678l-51 -92q-16 -29 -39 -29h-75q-32 0 -21 29l36 92q13 30 40 30h90q16 0 21.5 -8.5t-1.5 -21.5zM40 148v204q0 73 59 114.5t170 41.5t170 -41.5t59 -114.5v-204
q0 -73 -59 -114.5t-170 -41.5t-170 41.5t-59 114.5zM338 162v177q0 44 -69 44t-69 -44v-177q0 -45 69 -45t69 45z" />
    <glyph glyph-name="OE" unicode="&#x152;" horiz-adv-x="842" 
d="M50 163v354q0 72 62 121.5t193 49.5q53 0 95 -17q8 9 25 9h342q30 0 30 -28v-78q0 -29 -30 -29h-206v-130h190q30 0 30 -28v-73q0 -29 -30 -29h-190v-150h216q30 0 30 -28v-78q0 -29 -30 -29h-352q-19 0 -25 9q-42 -17 -95 -17q-131 0 -193 49.5t-62 121.5zM396 192v296
q0 33 -25.5 49t-65.5 16t-65 -16t-25 -49v-296q0 -33 25 -49t65 -16t65.5 16t25.5 49z" />
    <glyph glyph-name="oe" unicode="&#x153;" horiz-adv-x="801" 
d="M40 148v204q0 73 59 114.5t170 41.5q90 0 139 -30q55 30 146 30q210 0 210 -156v-111q0 -27 -27 -27h-243v-60q0 -44 60 -44q61 0 61 44v1q0 16 6.5 22.5t22.5 6.5h86q16 0 22.5 -6.5t6.5 -22.5v-7q0 -156 -205 -156q-94 0 -146 30q-47 -30 -139 -30q-111 0 -170 41.5
t-59 114.5zM269 117q65 0 69 40v182q0 44 -69 44t-69 -44v-177q0 -45 69 -45zM494 345v-26h121v26q0 45 -61 45q-60 0 -60 -45z" />
    <glyph glyph-name="Racute" unicode="&#x154;" horiz-adv-x="604" 
d="M559 422q0 -102 -104 -146l98 -246q5 -13 -3 -21.5t-25 -8.5h-108q-5 0 -8.5 1.5t-6 3t-5 5.5t-3.5 5.5t-4 8.5l-2 6l-88 221h-75v-221q0 -30 -28 -30h-108q-29 0 -29 30v620q0 30 29 30h216q131 0 192.5 -49t61.5 -122v-87zM305 545h-80v-159h80q40 0 65.5 16t25.5 49
v29q0 33 -25.5 49t-65.5 16zM402 848l-69 -101q-13 -20 -39 -20h-79q-28 0 -16 29l40 92q13 30 41 30h107q16 0 20 -8.5t-5 -21.5z" />
    <glyph glyph-name="racute" unicode="&#x155;" horiz-adv-x="383" 
d="M321 678l-69 -101q-13 -20 -39 -20h-79q-28 0 -16 29l40 92q13 30 41 30h107q16 0 20 -8.5t-5 -21.5zM345 508q30 0 30 -29v-78q0 -15 -7 -21.5t-23 -8.5q-83 -8 -135 -55v-286q0 -30 -28 -30h-103q-29 0 -29 30v441q0 16 6.5 22.5t22.5 6.5h96q15 0 21 -6.5t8 -22.5
l3 -28q56 65 138 65z" />
    <glyph glyph-name="Rcommaaccent" unicode="&#x156;" horiz-adv-x="604" 
d="M237 -112v32q0 30 29 30h76q28 0 28 -30v-41q0 -66 -48 -140q-13 -20 -39 -15l-57 13q-29 7 -15 39q1 3 5.5 12t5 11t3.5 9t3.5 9t3 8.5t2.5 10t1 10t1 12.5t0.5 13.5t0.5 16.5zM559 422q0 -102 -104 -146l98 -246q5 -13 -3 -21.5t-25 -8.5h-108q-5 0 -8.5 1.5t-6 3
t-5 5.5t-3.5 5.5t-4 8.5l-2 6l-88 221h-75v-221q0 -30 -28 -30h-108q-29 0 -29 30v620q0 30 29 30h216q131 0 192.5 -49t61.5 -122v-87zM305 545h-80v-159h80q40 0 65.5 16t25.5 49v29q0 33 -25.5 49t-65.5 16z" />
    <glyph glyph-name="rcommaaccent" unicode="&#x157;" horiz-adv-x="383" 
d="M65 -112v32q0 30 29 30h76q28 0 28 -30v-41q0 -66 -48 -140q-13 -20 -39 -15l-57 13q-29 7 -15 39q1 3 5.5 12t5 11t3.5 9t3.5 9t3 8.5t2.5 10t1 10t1 12.5t0.5 13.5t0.5 16.5zM345 508q30 0 30 -29v-78q0 -15 -7 -21.5t-23 -8.5q-83 -8 -135 -55v-286q0 -30 -28 -30
h-103q-29 0 -29 30v441q0 16 6.5 22.5t22.5 6.5h96q15 0 21 -6.5t8 -22.5l3 -28q56 65 138 65z" />
    <glyph glyph-name="Rcaron" unicode="&#x158;" horiz-adv-x="604" 
d="M559 422q0 -102 -104 -146l98 -246q5 -13 -3 -21.5t-25 -8.5h-108q-5 0 -8.5 1.5t-6 3t-5 5.5t-3.5 5.5t-4 8.5l-2 6l-88 221h-75v-221q0 -30 -28 -30h-108q-29 0 -29 30v620q0 30 29 30h216q131 0 192.5 -49t61.5 -122v-87zM305 545h-80v-159h80q40 0 65.5 16t25.5 49
v29q0 33 -25.5 49t-65.5 16zM280 849l12 -28l12 28q12 29 41 29h78q16 0 20.5 -8.5t-4.5 -20.5l-71 -92q-23 -30 -47 -30h-58q-24 0 -47 30l-71 92q-9 12 -4.5 20.5t20.5 8.5h78q29 0 41 -29z" />
    <glyph glyph-name="rcaron" unicode="&#x159;" horiz-adv-x="383" 
d="M179 679l12 -28l12 28q12 29 41 29h78q16 0 20.5 -8.5t-4.5 -20.5l-71 -92q-23 -30 -47 -30h-58q-24 0 -47 30l-71 92q-9 12 -4.5 20.5t20.5 8.5h78q29 0 41 -29zM345 508q30 0 30 -29v-78q0 -15 -7 -21.5t-23 -8.5q-83 -8 -135 -55v-286q0 -30 -28 -30h-103
q-29 0 -29 30v441q0 16 6.5 22.5t22.5 6.5h96q15 0 21 -6.5t8 -22.5l3 -28q56 65 138 65z" />
    <glyph glyph-name="Sacute" unicode="&#x15a;" horiz-adv-x="575" 
d="M372 480v15q0 63 -78 63q-79 0 -79 -63v-10q0 -31 32 -43l168 -57q58 -19 91.5 -58t33.5 -93v-71q0 -73 -59 -122t-190 -49t-191 49t-60 122v67q0 30 29 30h104q28 0 28 -30v-45q0 -63 88 -63q89 0 89 63v20q0 17 -15.5 31t-29.5 20t-41 16l-144 54q-39 15 -66 52.5
t-27 80.5v58q0 74 54.5 122.5t182.5 48.5t184.5 -48.5t56.5 -122.5v-37q0 -30 -29 -30h-104q-28 0 -28 30zM427 848l-69 -101q-13 -20 -39 -20h-79q-28 0 -16 29l40 92q13 30 41 30h107q16 0 20 -8.5t-5 -21.5z" />
    <glyph glyph-name="sacute" unicode="&#x15b;" horiz-adv-x="475" 
d="M382 678l-69 -101q-13 -20 -39 -20h-79q-28 0 -16 29l40 92q13 30 41 30h107q16 0 20 -8.5t-5 -21.5zM298 352v14q0 32 -55 32q-54 0 -54 -32v-5q0 -19 21 -27l140 -50q100 -36 100 -108v-48q0 -56 -52.5 -96t-158.5 -40t-157.5 40t-51.5 96v21q0 27 27 27h92
q27 0 27 -27v-14q0 -32 63 -32q64 0 64 32v9q0 10 -8 16t-31 15l-141 54q-30 11 -54.5 42.5t-24.5 66.5v28q0 58 48 100t152 42t152 -42t48 -100v-14q0 -15 -6 -21.5t-22 -6.5h-91q-27 0 -27 28z" />
    <glyph glyph-name="Scircumflex" unicode="&#x15c;" horiz-adv-x="575" 
d="M372 480v15q0 63 -78 63q-79 0 -79 -63v-10q0 -31 32 -43l168 -57q58 -19 91.5 -58t33.5 -93v-71q0 -73 -59 -122t-190 -49t-191 49t-60 122v67q0 30 29 30h104q28 0 28 -30v-45q0 -63 88 -63q89 0 89 63v20q0 17 -15.5 31t-29.5 20t-41 16l-144 54q-39 15 -66 52.5
t-27 80.5v58q0 74 54.5 122.5t182.5 48.5t184.5 -48.5t56.5 -122.5v-37q0 -30 -29 -30h-104q-28 0 -28 30zM287 784l-12 -28q-12 -29 -41 -29h-78q-16 0 -20.5 8.5t4.5 20.5l71 92q23 30 47 30h58q24 0 47 -30l71 -92q9 -12 4.5 -20.5t-20.5 -8.5h-78q-27 0 -41 29z" />
    <glyph glyph-name="scircumflex" unicode="&#x15d;" horiz-adv-x="475" 
d="M237 614l-12 -28q-12 -29 -41 -29h-78q-16 0 -20.5 8.5t4.5 20.5l71 92q23 30 47 30h58q24 0 47 -30l71 -92q9 -12 4.5 -20.5t-20.5 -8.5h-78q-27 0 -41 29zM298 352v14q0 32 -55 32q-54 0 -54 -32v-5q0 -19 21 -27l140 -50q100 -36 100 -108v-48q0 -56 -52.5 -96
t-158.5 -40t-157.5 40t-51.5 96v21q0 27 27 27h92q27 0 27 -27v-14q0 -32 63 -32q64 0 64 32v9q0 10 -8 16t-31 15l-141 54q-30 11 -54.5 42.5t-24.5 66.5v28q0 58 48 100t152 42t152 -42t48 -100v-14q0 -15 -6 -21.5t-22 -6.5h-91q-27 0 -27 28z" />
    <glyph glyph-name="Scedilla" unicode="&#x15e;" horiz-adv-x="575" 
d="M337 -39h27q89 0 89 -84q0 -88 -89 -88h-125q-30 0 -30 29v21q0 28 30 28h97q9 0 9 10t-9 10h-81q-47 0 -35 40l20 68q-104 9 -152 56t-48 112v67q0 30 29 30h104q28 0 28 -30v-45q0 -63 88 -63q89 0 89 63v20q0 17 -15.5 31t-29.5 20t-41 16l-144 54q-39 15 -66 52.5
t-27 80.5v58q0 74 54.5 122.5t182.5 48.5t184.5 -48.5t56.5 -122.5v-37q0 -30 -29 -30h-104q-28 0 -28 30v15q0 63 -78 63q-79 0 -79 -63v-10q0 -31 32 -43l168 -57q58 -19 91.5 -58t33.5 -93v-71q0 -64 -46.5 -111t-147.5 -57z" />
    <glyph glyph-name="scedilla" unicode="&#x15f;" horiz-adv-x="475" 
d="M264 -39h27q89 0 89 -84q0 -88 -89 -88h-125q-30 0 -30 29v21q0 28 30 28h97q9 0 9 10t-9 10h-81q-47 0 -35 40l21 71q-70 13 -104 49t-34 81v21q0 27 27 27h92q27 0 27 -27v-14q0 -32 63 -32q64 0 64 32v9q0 10 -8 16t-31 15l-141 54q-30 11 -54.5 42.5t-24.5 66.5v28
q0 58 48 100t152 42t152 -42t48 -100v-14q0 -15 -6 -21.5t-22 -6.5h-91q-27 0 -27 28v14q0 32 -55 32q-54 0 -54 -32v-5q0 -19 21 -27l140 -50q100 -36 100 -108v-48q0 -51 -44.5 -90t-133.5 -45z" />
    <glyph glyph-name="Scaron" unicode="&#x160;" horiz-adv-x="575" 
d="M372 480v15q0 63 -78 63q-79 0 -79 -63v-10q0 -31 32 -43l168 -57q58 -19 91.5 -58t33.5 -93v-71q0 -73 -59 -122t-190 -49t-191 49t-60 122v67q0 30 29 30h104q28 0 28 -30v-45q0 -63 88 -63q89 0 89 63v20q0 17 -15.5 31t-29.5 20t-41 16l-144 54q-39 15 -66 52.5
t-27 80.5v58q0 74 54.5 122.5t182.5 48.5t184.5 -48.5t56.5 -122.5v-37q0 -30 -29 -30h-104q-28 0 -28 30zM275 849l12 -28l12 28q12 29 41 29h78q16 0 20.5 -8.5t-4.5 -20.5l-71 -92q-23 -30 -47 -30h-58q-24 0 -47 30l-71 92q-9 12 -4.5 20.5t20.5 8.5h78q29 0 41 -29z
" />
    <glyph glyph-name="scaron" unicode="&#x161;" horiz-adv-x="475" 
d="M229 679l12 -28l12 28q12 29 41 29h78q16 0 20.5 -8.5t-4.5 -20.5l-71 -92q-23 -30 -47 -30h-58q-24 0 -47 30l-71 92q-9 12 -4.5 20.5t20.5 8.5h78q29 0 41 -29zM298 352v14q0 32 -55 32q-54 0 -54 -32v-5q0 -19 21 -27l140 -50q100 -36 100 -108v-48q0 -56 -52.5 -96
t-158.5 -40t-157.5 40t-51.5 96v21q0 27 27 27h92q27 0 27 -27v-14q0 -32 63 -32q64 0 64 32v9q0 10 -8 16t-31 15l-141 54q-30 11 -54.5 42.5t-24.5 66.5v28q0 58 48 100t152 42t152 -42t48 -100v-14q0 -15 -6 -21.5t-22 -6.5h-91q-27 0 -27 28z" />
    <glyph glyph-name="Tcommaaccent" unicode="&#x162;" horiz-adv-x="497" 
d="M182 -112v32q0 30 29 30h76q28 0 28 -30v-41q0 -66 -48 -140q-13 -20 -39 -15l-57 13q-29 7 -15 39q1 3 5.5 12t5 11t3.5 9t3.5 9t3 8.5t2.5 10t1 10t1 12.5t0.5 13.5t0.5 16.5zM38 680h421q30 0 30 -28v-78q0 -29 -30 -29h-128v-515q0 -30 -28 -30h-108q-29 0 -29 30
v515h-128q-30 0 -30 29v78q0 28 30 28z" />
    <glyph glyph-name="tcommaaccent" unicode="&#x163;" horiz-adv-x="371" 
d="M107 -113v32q0 30 29 30h76q28 0 28 -30v-41q0 -66 -48 -140q-13 -20 -39 -15l-57 13q-29 7 -15 39q1 3 5.5 12t5 11t3.5 9t3.5 9t3 8.5t2.5 10t1 10t1 12.5t0.5 13.5t0.5 16.5zM243 498h81q30 0 30 -28v-68q0 -29 -30 -29h-81v-199q0 -44 64 -44h24q30 0 30 -30v-71
q0 -29 -30 -29h-50q-110 0 -154 37t-44 119v217h-44q-16 0 -22.5 6.5t-6.5 22.5v61q0 15 6 21t23 8l43 6h1v91q0 30 29 30h103q28 0 28 -30v-91z" />
    <glyph glyph-name="Tcaron" unicode="&#x164;" horiz-adv-x="497" 
d="M38 680h421q30 0 30 -28v-78q0 -29 -30 -29h-128v-515q0 -30 -28 -30h-108q-29 0 -29 30v515h-128q-30 0 -30 29v78q0 28 30 28zM236 849l12 -28l12 28q12 29 41 29h78q16 0 20.5 -8.5t-4.5 -20.5l-71 -92q-23 -30 -47 -30h-58q-24 0 -47 30l-71 92q-9 12 -4.5 20.5
t20.5 8.5h78q29 0 41 -29z" />
    <glyph glyph-name="tcaron" unicode="&#x165;" horiz-adv-x="420" 
d="M304 690v32q0 30 29 30h76q28 0 28 -30v-41q0 -66 -48 -140q-13 -20 -39 -15l-57 13q-29 7 -15 39q1 3 5.5 12t5 11t3.5 9t3.5 9t3 8.5t2.5 10t1 10t1 12.5t0.5 13.5t0.5 16.5zM243 498h81q30 0 30 -28v-68q0 -29 -30 -29h-81v-199q0 -44 64 -44h24q30 0 30 -30v-71
q0 -29 -30 -29h-50q-110 0 -154 37t-44 119v217h-44q-16 0 -22.5 6.5t-6.5 22.5v61q0 15 6 21t23 8l43 6h1v91q0 30 29 30h103q28 0 28 -30v-91z" />
    <glyph glyph-name="Tbar" unicode="&#x166;" horiz-adv-x="497" 
d="M38 680h421q30 0 30 -28v-78q0 -29 -30 -29h-128v-133h88q30 0 30 -28v-53q0 -29 -30 -29h-88v-272q0 -30 -28 -30h-108q-29 0 -29 30v272h-86q-30 0 -30 29v53q0 28 30 28h86v133h-128q-30 0 -30 29v78q0 28 30 28z" />
    <glyph glyph-name="tbar" unicode="&#x167;" horiz-adv-x="371" 
d="M243 498h81q30 0 30 -28v-68q0 -29 -30 -29h-81v-51h81q30 0 30 -28v-53q0 -29 -30 -29h-81v-38q0 -44 64 -44h24q30 0 30 -30v-71q0 -29 -30 -29h-50q-110 0 -154 37t-44 119v56h-43q-30 0 -30 29v53q0 28 30 28h43v51h-44q-16 0 -22.5 6.5t-6.5 22.5v61q0 15 6 21t23 8
l43 6h1v91q0 30 29 30h103q28 0 28 -30v-91z" />
    <glyph glyph-name="Utilde" unicode="&#x168;" horiz-adv-x="621" 
d="M220 650v-458q0 -33 25 -49t65 -16t65.5 16t25.5 49v458q0 30 29 30h108q28 0 28 -30v-487q0 -72 -62.5 -121.5t-193.5 -49.5t-193 49.5t-62 121.5v487q0 30 29 30h108q28 0 28 -30zM257 770q-16 0 -19 -13l-1 -4q-4 -15 -10.5 -20.5t-21.5 -5.5h-53q-27 0 -24 34l6 49
q4 35 30.5 55.5t63.5 20.5q30 0 58 -11l42 -16q30 -12 36 -12q16 0 19 13l1 4q4 15 10.5 20.5t21.5 5.5h52q28 0 25 -34l-4 -45q-4 -37 -27 -56.5t-57 -19.5q-37 0 -69 10l-43 14q-31 11 -36 11z" />
    <glyph glyph-name="utilde" unicode="&#x169;" horiz-adv-x="547" 
d="M343 29l-2 16q-63 -53 -149 -53q-67 0 -107 38.5t-40 100.5v339q0 30 29 30h101q30 0 30 -30v-298q0 -24 7.5 -33.5t30.5 -9.5q45 0 94 39v302q0 30 28 30h103q29 0 29 -30v-441q0 -16 -6.5 -22.5t-22.5 -6.5h-96q-15 0 -21 6t-8 23zM220 590q-16 0 -19 -13l-1 -4
q-4 -15 -10.5 -20.5t-21.5 -5.5h-53q-27 0 -24 34l6 49q4 35 30.5 55.5t63.5 20.5q31 0 58 -11l42 -16q30 -12 36 -12q16 0 19 13l1 4q4 15 10.5 20.5t21.5 5.5h52q28 0 25 -34l-4 -45q-4 -37 -27 -56.5t-57 -19.5q-37 0 -69 10l-43 14q-31 11 -36 11z" />
    <glyph glyph-name="Umacron" unicode="&#x16a;" horiz-adv-x="621" 
d="M220 650v-458q0 -33 25 -49t65 -16t65.5 16t25.5 49v458q0 30 29 30h108q28 0 28 -30v-487q0 -72 -62.5 -121.5t-193.5 -49.5t-193 49.5t-62 121.5v487q0 30 29 30h108q28 0 28 -30zM200 860h221q30 0 30 -28v-63q0 -29 -30 -29h-221q-30 0 -30 29v63q0 28 30 28z" />
    <glyph glyph-name="umacron" unicode="&#x16b;" horiz-adv-x="547" 
d="M343 29l-2 16q-63 -53 -149 -53q-67 0 -107 38.5t-40 100.5v339q0 30 29 30h101q30 0 30 -30v-298q0 -24 7.5 -33.5t30.5 -9.5q45 0 94 39v302q0 30 28 30h103q29 0 29 -30v-441q0 -16 -6.5 -22.5t-22.5 -6.5h-96q-15 0 -21 6t-8 23zM163 680h221q30 0 30 -28v-63
q0 -29 -30 -29h-221q-30 0 -30 29v63q0 28 30 28z" />
    <glyph glyph-name="Ubreve" unicode="&#x16c;" horiz-adv-x="621" 
d="M220 650v-458q0 -33 25 -49t65 -16t65.5 16t25.5 49v458q0 30 29 30h108q28 0 28 -30v-487q0 -72 -62.5 -121.5t-193.5 -49.5t-193 49.5t-62 121.5v487q0 30 29 30h108q28 0 28 -30zM275 857v-17q0 -33 35 -33t35 33v17q0 13 6 18.5t20 5.5h61q14 0 20 -5.5t6 -18.5v-13
q0 -62 -40.5 -96t-111.5 -34q-70 0 -107 33.5t-37 96.5v13q0 13 6 18.5t20 5.5h61q14 0 20 -5.5t6 -18.5z" />
    <glyph glyph-name="ubreve" unicode="&#x16d;" horiz-adv-x="547" 
d="M343 29l-2 16q-63 -53 -149 -53q-67 0 -107 38.5t-40 100.5v339q0 30 29 30h101q30 0 30 -30v-298q0 -24 7.5 -33.5t30.5 -9.5q45 0 94 39v302q0 30 28 30h103q29 0 29 -30v-441q0 -16 -6.5 -22.5t-22.5 -6.5h-96q-15 0 -21 6t-8 23zM229 686v-17q0 -33 35 -33t35 33v17
q0 13 6 18.5t20 5.5h61q14 0 20 -5.5t6 -18.5v-13q0 -62 -40.5 -96t-111.5 -34q-70 0 -107 33.5t-37 96.5v13q0 13 6 18.5t20 5.5h61q14 0 20 -5.5t6 -18.5z" />
    <glyph glyph-name="Uring" unicode="&#x16e;" horiz-adv-x="621" 
d="M432 826v-34q0 -34 -30.5 -57t-91.5 -23t-91.5 23t-30.5 57v34q0 34 30.5 57t91.5 23t91.5 -23t30.5 -57zM348 801v16q0 27 -38 27t-38 -27v-16q0 -28 38 -28t38 28zM220 650v-458q0 -33 25 -49t65 -16t65.5 16t25.5 49v458q0 30 29 30h108q28 0 28 -30v-487
q0 -72 -62.5 -121.5t-193.5 -49.5t-193 49.5t-62 121.5v487q0 30 29 30h108q28 0 28 -30z" />
    <glyph glyph-name="uring" unicode="&#x16f;" horiz-adv-x="547" 
d="M395 654v-34q0 -34 -30.5 -57t-91.5 -23t-91.5 23t-30.5 57v34q0 34 30.5 57t91.5 23t91.5 -23t30.5 -57zM311 629v16q0 27 -38 27t-38 -27v-16q0 -28 38 -28t38 28zM343 29l-2 16q-63 -53 -149 -53q-67 0 -107 38.5t-40 100.5v339q0 30 29 30h101q30 0 30 -30v-298
q0 -24 7.5 -33.5t30.5 -9.5q45 0 94 39v302q0 30 28 30h103q29 0 29 -30v-441q0 -16 -6.5 -22.5t-22.5 -6.5h-96q-15 0 -21 6t-8 23z" />
    <glyph glyph-name="Uhungarumlaut" unicode="&#x170;" horiz-adv-x="621" 
d="M534 848l-66 -92q-21 -29 -44 -29h-75q-32 0 -16 29l51 92q17 30 45 30h90q16 0 20 -8.5t-5 -21.5zM352 848l-51 -92q-16 -29 -39 -29h-75q-32 0 -21 29l36 92q13 30 40 30h90q16 0 21.5 -8.5t-1.5 -21.5zM220 650v-458q0 -33 25 -49t65 -16t65.5 16t25.5 49v458
q0 30 29 30h108q28 0 28 -30v-487q0 -72 -62.5 -121.5t-193.5 -49.5t-193 49.5t-62 121.5v487q0 30 29 30h108q28 0 28 -30z" />
    <glyph glyph-name="uhungarumlaut" unicode="&#x171;" horiz-adv-x="547" 
d="M343 29l-2 16q-63 -53 -149 -53q-67 0 -107 38.5t-40 100.5v339q0 30 29 30h101q30 0 30 -30v-298q0 -24 7.5 -33.5t30.5 -9.5q45 0 94 39v302q0 30 28 30h103q29 0 29 -30v-441q0 -16 -6.5 -22.5t-22.5 -6.5h-96q-15 0 -21 6t-8 23zM495 678l-66 -92q-21 -29 -44 -29
h-75q-32 0 -16 29l51 92q17 30 45 30h90q16 0 20 -8.5t-5 -21.5zM313 678l-51 -92q-16 -29 -39 -29h-75q-32 0 -21 29l36 92q13 30 40 30h90q16 0 21.5 -8.5t-1.5 -21.5z" />
    <glyph glyph-name="Uogonek" unicode="&#x172;" horiz-adv-x="621" 
d="M220 650v-458q0 -33 25 -49t65 -16t65.5 16t25.5 49v458q0 30 29 30h108q28 0 28 -30v-487q0 -61 -42 -103q-26 -26 -36.5 -38t-20.5 -33.5t-10 -45.5q0 -25 30 -25h23q30 0 30 -28v-40q0 -29 -40 -29h-63q-21 0 -41 5.5t-39 26t-19 54.5q0 47 23 88q-24 -3 -51 -3
q-131 0 -193 49.5t-62 121.5v487q0 30 29 30h108q28 0 28 -30z" />
    <glyph glyph-name="uogonek" unicode="&#x173;" horiz-adv-x="547" 
d="M457 -179h-53q-21 0 -41 5.5t-39 26t-19 54.5q0 59 38 111l-2 27q-63 -53 -149 -53q-67 0 -107 38.5t-40 100.5v339q0 30 29 30h101q30 0 30 -30v-298q0 -24 7.5 -33.5t30.5 -9.5q45 0 94 39v302q0 30 28 30h103q29 0 29 -30v-441q0 -16 -6.5 -22.5t-22.5 -6.5h-7
q-37 -3 -37 -57q0 -25 30 -25h13q30 0 30 -28v-40q0 -29 -40 -29z" />
    <glyph glyph-name="Wcircumflex" unicode="&#x174;" horiz-adv-x="855" 
d="M521 650l68 -279q11 -45 17 -108q9 72 18 107l70 280q8 30 35 30h94q30 0 22 -30l-156 -620q-7 -30 -37 -30h-105q-25 0 -33 30l-72 288q-10 40 -14 99q-10 -75 -15 -100l-72 -287q-7 -30 -37 -30h-105q-25 0 -33 30l-156 620q-8 30 22 30h110q27 0 35 -30l68 -280
q3 -14 6.5 -33.5t6 -36t3.5 -19.5q6 40 18 89l71 280q8 30 35 30h101q27 0 35 -30zM430 784l-12 -28q-12 -29 -41 -29h-78q-16 0 -20.5 8.5t4.5 20.5l71 92q23 30 47 30h58q24 0 47 -30l71 -92q9 -12 4.5 -20.5t-20.5 -8.5h-78q-27 0 -41 29z" />
    <glyph glyph-name="wcircumflex" unicode="&#x175;" horiz-adv-x="744" 
d="M373 614l-12 -28q-12 -29 -41 -29h-78q-16 0 -20.5 8.5t4.5 20.5l71 92q23 30 47 30h58q24 0 47 -30l71 -92q9 -12 4.5 -20.5t-20.5 -8.5h-78q-27 0 -41 29zM737 470l-127 -443q-5 -16 -10 -21.5t-20 -5.5h-123q-15 0 -21 6t-9 21l-41 191q-9 38 -9 55q0 -1 -2 -10
t-5 -22t-6 -23l-57 -191q-4 -15 -9.5 -21t-20.5 -6h-120q-15 0 -20.5 5.5t-9.5 21.5l-120 443q-9 30 29 30h98q25 0 33 -30l58 -222q2 -10 4 -22t3 -20t1 -9q0 8 12 51l62 222q8 30 33 30h97q26 0 33 -30l48 -222l9 -51q8 39 11 51l56 222q8 30 33 30h81q38 0 29 -30z" />
    <glyph glyph-name="Ycircumflex" unicode="&#x176;" horiz-adv-x="558" 
d="M191 650l71 -199q7 -20 17 -60q9 35 20 60l84 199q12 30 35 30h106q16 0 22 -8t0 -22l-184 -398v-222q0 -30 -28 -30h-108q-29 0 -29 30v202l-185 418q-6 14 -0.5 22t21.5 8h122q26 0 36 -30zM279 784l-12 -28q-12 -29 -41 -29h-78q-16 0 -20.5 8.5t4.5 20.5l71 92
q23 30 47 30h58q24 0 47 -30l71 -92q9 -12 4.5 -20.5t-20.5 -8.5h-78q-27 0 -41 29z" />
    <glyph glyph-name="ycircumflex" unicode="&#x177;" horiz-adv-x="494" 
d="M171 470l57 -181q4 -13 7 -27.5t5 -25.5t3 -20.5t2 -15.5t1 -7q6 38 24 91l62 186q9 30 33 30h93q17 0 25.5 -8t3.5 -22l-217 -639q-10 -30 -33 -30h-74q-17 0 -25 8t-4 22l43 152l-170 487q-5 14 3.5 22t25.5 8h102q14 0 21 -7t12 -23zM247 614l-12 -28q-12 -29 -41 -29
h-78q-16 0 -20.5 8.5t4.5 20.5l71 92q23 30 47 30h58q24 0 47 -30l71 -92q9 -12 4.5 -20.5t-20.5 -8.5h-78q-27 0 -41 29z" />
    <glyph glyph-name="Ydieresis" unicode="&#x178;" horiz-adv-x="558" 
d="M191 650l71 -199q7 -20 17 -60q9 35 20 60l84 199q12 30 35 30h106q16 0 22 -8t0 -22l-184 -398v-222q0 -30 -28 -30h-108q-29 0 -29 30v202l-185 418q-6 14 -0.5 22t21.5 8h122q26 0 36 -30zM260 848v-92q0 -16 -6 -22.5t-22 -6.5h-60q-16 0 -22.5 6.5t-6.5 22.5v92
q0 30 29 30h60q28 0 28 -30zM415 848v-92q0 -16 -6 -22.5t-22 -6.5h-60q-16 0 -22.5 6.5t-6.5 22.5v92q0 30 29 30h60q28 0 28 -30z" />
    <glyph glyph-name="Zacute" unicode="&#x179;" horiz-adv-x="494" 
d="M72 680h359q30 0 30 -28v-78q0 -14 -6 -22l-232 -417h226q30 0 30 -28v-78q0 -29 -30 -29h-394q-30 0 -30 29v78q0 15 5 20l233 418h-191q-30 0 -30 29v78q0 28 30 28zM397 848l-69 -101q-13 -20 -39 -20h-79q-28 0 -16 29l40 92q13 30 41 30h107q16 0 20 -8.5t-5 -21.5z
" />
    <glyph glyph-name="zacute" unicode="&#x17a;" horiz-adv-x="443" 
d="M361 678l-69 -101q-13 -20 -39 -20h-79q-28 0 -16 29l40 92q13 30 41 30h107q16 0 20 -8.5t-5 -21.5zM73 500h305q30 0 30 -28v-72q0 -13 -6 -22l-182 -248h178q30 0 30 -28v-73q0 -29 -30 -29h-343q-30 0 -30 29v73q0 11 6 21l180 247h-138q-30 0 -30 29v73q0 28 30 28z
" />
    <glyph glyph-name="Zdotaccent" unicode="&#x17b;" horiz-adv-x="494" 
d="M328 839v-83q0 -16 -6 -22.5t-22 -6.5h-106q-16 0 -22.5 6.5t-6.5 22.5v83q0 30 29 30h106q28 0 28 -30zM72 680h359q30 0 30 -28v-78q0 -14 -6 -22l-232 -417h226q30 0 30 -28v-78q0 -29 -30 -29h-394q-30 0 -30 29v78q0 15 5 20l233 418h-191q-30 0 -30 29v78
q0 28 30 28z" />
    <glyph glyph-name="zdotaccent" unicode="&#x17c;" horiz-adv-x="443" 
d="M73 500h305q30 0 30 -28v-72q0 -13 -6 -22l-182 -248h178q30 0 30 -28v-73q0 -29 -30 -29h-343q-30 0 -30 29v73q0 11 6 21l180 247h-138q-30 0 -30 29v73q0 28 30 28zM304 678v-83q0 -16 -6 -22.5t-22 -6.5h-106q-16 0 -22.5 6.5t-6.5 22.5v83q0 30 29 30h106
q28 0 28 -30z" />
    <glyph glyph-name="Zcaron" unicode="&#x17d;" horiz-adv-x="494" 
d="M240 849l12 -28l12 28q12 29 41 29h78q16 0 20.5 -8.5t-4.5 -20.5l-71 -92q-23 -30 -47 -30h-58q-24 0 -47 30l-71 92q-9 12 -4.5 20.5t20.5 8.5h78q29 0 41 -29zM72 680h359q30 0 30 -28v-78q0 -14 -6 -22l-232 -417h226q30 0 30 -28v-78q0 -29 -30 -29h-394
q-30 0 -30 29v78q0 15 5 20l233 418h-191q-30 0 -30 29v78q0 28 30 28z" />
    <glyph glyph-name="zcaron" unicode="&#x17e;" horiz-adv-x="443" 
d="M216 679l12 -28l12 28q12 29 41 29h78q16 0 20.5 -8.5t-4.5 -20.5l-71 -92q-23 -30 -47 -30h-58q-24 0 -47 30l-71 92q-9 12 -4.5 20.5t20.5 8.5h78q29 0 41 -29zM73 500h305q30 0 30 -28v-72q0 -13 -6 -22l-182 -248h178q30 0 30 -28v-73q0 -29 -30 -29h-343
q-30 0 -30 29v73q0 11 6 21l180 247h-138q-30 0 -30 29v73q0 28 30 28z" />
    <glyph glyph-name="longs" unicode="&#x17f;" horiz-adv-x="362" 
d="M93 498h1v49q0 73 58 114.5t169 41.5h11q30 0 30 -29v-71q0 -30 -30 -30h-11q-67 0 -67 -44v-499q0 -30 -28 -30h-103q-29 0 -29 30v343h-50q-16 0 -22.5 6.5t-6.5 22.5v61q0 15 6 21t23 8z" />
    <glyph glyph-name="florin" unicode="&#x192;" horiz-adv-x="588" 
d="M498 578h-24q-67 0 -71 -44l-10 -92h61q30 0 30 -28v-68q0 -29 -30 -29h-73l-38 -371q-8 -73 -70 -114.5t-173 -41.5h-10q-30 0 -30 29v71q0 30 30 30h23q67 0 71 44l36 353h-47q-16 0 -22.5 6.5t-6.5 22.5v67q0 16 6.5 22.5t22.5 6.5h60l11 110q8 73 70 114.5t173 41.5
h11q30 0 30 -29v-71q0 -30 -30 -30z" />
    <glyph glyph-name="Aringacute" unicode="&#x1fa;" horiz-adv-x="566" 
d="M337 680q28 0 37 -30l181 -620q9 -30 -22 -30h-111q-27 0 -35 30l-26 96h-166l-26 -96q-8 -30 -35 -30h-101q-31 0 -22 30l181 620q9 30 37 30h108zM405 826v-34q0 -34 -30.5 -57t-91.5 -23t-91.5 23t-30.5 57v34q0 50 58 70l17 38q13 30 41 30h107q16 0 20.5 -9
t-5.5 -21l-36 -45q42 -22 42 -63zM325 256l-14 54q-13 51 -31 209q-25 -178 -34 -209l-15 -54h94zM321 801v16q0 27 -38 27t-38 -27v-16q0 -28 38 -28t38 28z" />
    <glyph glyph-name="aringacute" unicode="&#x1fb;" horiz-adv-x="522" 
d="M54 345v12q0 151 212 151q211 0 211 -151v-327q0 -30 -29 -30h-92q-16 0 -21.5 6.5t-7.5 23.5l-2 15q-64 -53 -140 -53q-72 0 -109.5 37t-37.5 91v43q0 54 42.5 91.5t117.5 37.5h122v55q0 24 -13 35t-44 11q-32 0 -46 -9t-14 -32v-7q0 -16 -6.5 -22.5t-22.5 -6.5h-91
q-16 0 -22.5 6.5t-6.5 22.5zM390 654v-34q0 -34 -30.5 -57t-91.5 -23t-91.5 23t-30.5 57v34q0 53 63 72l30 68q13 30 41 30h107q16 0 20 -8.5t-5 -21.5l-53 -77q41 -22 41 -63zM228 116q39 0 92 37v33h-92q-34 0 -34 -31v-13q0 -26 34 -26zM306 629v16q0 27 -38 27t-38 -27
v-16q0 -28 38 -28t38 28z" />
    <glyph glyph-name="AEacute" unicode="&#x1fc;" horiz-adv-x="833" 
d="M428 680h330q30 0 30 -28v-76q0 -29 -30 -29h-206v-133h190q30 0 30 -28v-71q0 -29 -30 -29h-190v-153h216q30 0 30 -28v-76q0 -29 -30 -29h-343q-29 0 -29 30v96h-169l-56 -96q-17 -30 -35 -30h-101q-16 0 -23 8t1 22l373 621q17 29 42 29zM361 353l-57 -97h92v164
q-16 -33 -35 -67zM640 848l-69 -101q-13 -20 -39 -20h-79q-28 0 -16 29l40 92q13 30 41 30h107q16 0 20 -8.5t-5 -21.5z" />
    <glyph glyph-name="aeacute" unicode="&#x1fd;" horiz-adv-x="783" 
d="M523 678l-69 -101q-13 -20 -39 -20h-79q-28 0 -16 29l40 92q13 30 41 30h107q16 0 20 -8.5t-5 -21.5zM746 352v-111q0 -27 -27 -27h-243v-60q0 -44 60 -44q61 0 61 44v1q0 16 6.5 22.5t22.5 6.5h86q16 0 22.5 -6.5t6.5 -22.5v-7q0 -156 -205 -156q-130 0 -182 58
q-77 -58 -169 -58q-72 0 -109.5 37t-37.5 91v43q0 54 42.5 91.5t117.5 37.5h122v59q0 42 -57 42q-32 0 -46 -9t-14 -32v-7q0 -16 -6.5 -22.5t-22.5 -6.5h-91q-16 0 -22.5 6.5t-6.5 22.5v12q0 151 212 151q87 0 130 -40q54 40 140 40q210 0 210 -156zM228 116q39 0 92 37v33
h-92q-34 0 -34 -31v-13q0 -26 34 -26zM476 345v-26h121v26q0 45 -61 45q-60 0 -60 -45z" />
    <glyph glyph-name="Oslashacute" unicode="&#x1fe;" horiz-adv-x="611" 
d="M50 161v354q0 72 62 121.5t193 49.5q72 0 125 -17l9 17q15 30 36 30h36q25 0 10 -30l-25 -49q65 -45 65 -122v-354q0 -72 -62.5 -121.5t-193.5 -49.5q-72 0 -126 16l-8 -15q-9 -17 -16 -23.5t-22 -6.5h-34q-11 0 -13.5 9t3.5 21l24 47q-63 46 -63 123zM396 190v248
l-151 -300q23 -13 60 -13q40 0 65.5 16t25.5 49zM215 486v-245l149 297q-23 13 -59 13q-40 0 -65 -16t-25 -49zM444 848l-69 -101q-13 -20 -39 -20h-79q-28 0 -16 29l40 92q13 30 41 30h107q16 0 20 -8.5t-5 -21.5z" />
    <glyph glyph-name="oslashacute" unicode="&#x1ff;" horiz-adv-x="538" 
d="M40 148v204q0 73 59 114.5t170 41.5q47 0 92 -10l6 11q16 30 36 30h35q25 0 8 -30l-19 -35q71 -41 71 -122v-204q0 -73 -59 -114.5t-170 -41.5q-44 0 -93 9l-4 -8q-9 -17 -17 -23.5t-23 -6.5h-32q-12 0 -12.5 10.5t5.5 19.5l17 33q-70 41 -70 122zM338 162v144l-99 -187
q9 -2 30 -2q69 0 69 45zM200 339v-145l99 186q-13 3 -30 3q-69 0 -69 -44zM402 678l-69 -101q-13 -20 -39 -20h-79q-28 0 -16 29l40 92q13 30 41 30h107q16 0 20 -8.5t-5 -21.5z" />
    <glyph glyph-name="Scommaaccent" unicode="&#x218;" horiz-adv-x="575" 
d="M225 -113v32q0 30 29 30h76q28 0 28 -30v-41q0 -66 -48 -140q-13 -20 -39 -15l-57 13q-29 7 -15 39q1 3 5.5 12t5 11t3.5 9t3.5 9t3 8.5t2.5 10t1 10t1 12.5t0.5 13.5t0.5 16.5zM372 480v15q0 63 -78 63q-79 0 -79 -63v-10q0 -31 32 -43l168 -57q58 -19 91.5 -58
t33.5 -93v-71q0 -73 -59 -122t-190 -49t-191 49t-60 122v67q0 30 29 30h104q28 0 28 -30v-45q0 -63 88 -63q89 0 89 63v20q0 17 -15.5 31t-29.5 20t-41 16l-144 54q-39 15 -66 52.5t-27 80.5v58q0 74 54.5 122.5t182.5 48.5t184.5 -48.5t56.5 -122.5v-37q0 -30 -29 -30h-104
q-28 0 -28 30z" />
    <glyph glyph-name="scommaaccent" unicode="&#x219;" horiz-adv-x="475" 
d="M179 -113v32q0 30 29 30h76q28 0 28 -30v-41q0 -66 -48 -140q-13 -20 -39 -15l-57 13q-29 7 -15 39q1 3 5.5 12t5 11t3.5 9t3.5 9t3 8.5t2.5 10t1 10t1 12.5t0.5 13.5t0.5 16.5zM298 352v14q0 32 -55 32q-54 0 -54 -32v-5q0 -19 21 -27l140 -50q100 -36 100 -108v-48
q0 -56 -52.5 -96t-158.5 -40t-157.5 40t-51.5 96v21q0 27 27 27h92q27 0 27 -27v-14q0 -32 63 -32q64 0 64 32v9q0 10 -8 16t-31 15l-141 54q-30 11 -54.5 42.5t-24.5 66.5v28q0 58 48 100t152 42t152 -42t48 -100v-14q0 -15 -6 -21.5t-22 -6.5h-91q-27 0 -27 28z" />
    <glyph glyph-name="dotlessj" unicode="&#x237;" 
d="M210 470v-513q0 -73 -58 -114.5t-169 -41.5h-11q-30 0 -30 29v71q0 30 30 30h11q67 0 67 44v495q0 30 28 30h103q29 0 29 -30z" />
    <glyph glyph-name="circumflex" unicode="&#x2c6;" horiz-adv-x="358" 
d="M179 614l-12 -28q-12 -29 -41 -29h-78q-16 0 -20.5 8.5t4.5 20.5l71 92q23 30 47 30h58q24 0 47 -30l71 -92q9 -12 4.5 -20.5t-20.5 -8.5h-78q-27 0 -41 29z" />
    <glyph glyph-name="caron" unicode="&#x2c7;" horiz-adv-x="358" 
d="M167 679l12 -28l12 28q12 29 41 29h78q16 0 20.5 -8.5t-4.5 -20.5l-71 -92q-23 -30 -47 -30h-58q-24 0 -47 30l-71 92q-9 12 -4.5 20.5t20.5 8.5h78q29 0 41 -29z" />
    <glyph glyph-name="breve" unicode="&#x2d8;" horiz-adv-x="426" 
d="M178 686v-17q0 -33 35 -33t35 33v17q0 13 6 18.5t20 5.5h61q14 0 20 -5.5t6 -18.5v-13q0 -62 -40.5 -96t-111.5 -34q-70 0 -107 33.5t-37 96.5v13q0 13 6 18.5t20 5.5h61q14 0 20 -5.5t6 -18.5z" />
    <glyph glyph-name="dotaccent" unicode="&#x2d9;" horiz-adv-x="253" 
d="M208 678v-83q0 -16 -6 -22.5t-22 -6.5h-106q-16 0 -22.5 6.5t-6.5 22.5v83q0 30 29 30h106q28 0 28 -30z" />
    <glyph glyph-name="ring" unicode="&#x2da;" horiz-adv-x="350" 
d="M297 654v-34q0 -34 -30.5 -57t-91.5 -23t-91.5 23t-30.5 57v34q0 34 30.5 57t91.5 23t91.5 -23t30.5 -57zM213 629v16q0 27 -38 27t-38 -27v-16q0 -28 38 -28t38 28z" />
    <glyph glyph-name="ogonek" unicode="&#x2db;" horiz-adv-x="235" 
d="M188 -179h-68q-46 0 -75 23t-29 65q0 56 48 125q18 28 41 25l48 -5q20 -2 25 -12t-7 -20q-40 -37 -40 -79q0 -25 38 -25h19q30 0 30 -28v-40q0 -29 -30 -29z" />
    <glyph glyph-name="tilde" unicode="&#x2dc;" horiz-adv-x="402" 
d="M146 590q-16 0 -19 -13l-1 -4q-4 -15 -10.5 -20.5t-21.5 -5.5h-53q-27 0 -24 34l6 49q4 35 30.5 55.5t63.5 20.5q31 0 58 -11l42 -16q30 -12 36 -12q16 0 19 13l1 4q4 15 10.5 20.5t21.5 5.5h52q28 0 25 -34l-4 -45q-4 -37 -27 -56.5t-57 -19.5q-37 0 -69 10l-43 14
q-31 11 -36 11z" />
    <glyph glyph-name="hungarumlaut" unicode="&#x2dd;" horiz-adv-x="422" 
d="M394 678l-66 -92q-21 -29 -44 -29h-75q-32 0 -16 29l51 92q17 30 45 30h90q16 0 20 -8.5t-5 -21.5zM212 678l-51 -92q-16 -29 -39 -29h-75q-32 0 -21 29l36 92q13 30 40 30h90q16 0 21.5 -8.5t-1.5 -21.5z" />
    <glyph glyph-name="Delta" unicode="&#x394;" horiz-adv-x="410" 
d="M110 445h190q26 0 26 -26v-190q0 -26 -26 -26h-190q-26 0 -26 26v190q0 26 26 26z" />
    <glyph glyph-name="Omega" unicode="&#x3a9;" horiz-adv-x="410" 
d="M62 323q0 59 42 101t100 42t100.5 -42t42.5 -101q0 -58 -42 -100t-101 -42q-58 0 -100 41.5t-42 100.5zM83 323q0 -51 35 -86t86 -35t86.5 35t35.5 86q0 50 -36 86t-86 36q-51 0 -86 -35.5t-35 -86.5z" />
    <glyph glyph-name="mu" unicode="&#x3bc;" horiz-adv-x="547" 
d="M343 29l-2 16q-63 -53 -143 -53h-1l8 -161q1 -30 -28 -30h-103q-29 0 -29 30v639q0 30 29 30h101q30 0 30 -30v-298q0 -24 7.5 -33.5t30.5 -9.5q45 0 94 39v302q0 30 28 30h103q29 0 29 -30v-441q0 -16 -6.5 -22.5t-22.5 -6.5h-96q-15 0 -21 6.5t-8 22.5z" />
    <glyph glyph-name="pi" unicode="&#x3c0;" horiz-adv-x="410" 
d="M61 461h287q13 0 15 -12.5t-6 -24.5l-134 -217q-7 -11 -18 -11t-18 11l-134 217q-5 8 -6.5 16.5t2 14.5t12.5 6z" />
    <glyph glyph-name="Wgrave" unicode="&#x1e80;" horiz-adv-x="855" 
d="M521 650l68 -279q11 -45 17 -108q9 72 18 107l70 280q8 30 35 30h94q30 0 22 -30l-156 -620q-7 -30 -37 -30h-105q-25 0 -33 30l-72 288q-10 40 -14 99q-10 -75 -15 -100l-72 -287q-7 -30 -37 -30h-105q-25 0 -33 30l-156 620q-8 30 22 30h110q27 0 35 -30l68 -280
q3 -14 6.5 -33.5t6 -36t3.5 -19.5q6 40 18 89l71 280q8 30 35 30h101q27 0 35 -30zM355 747l-69 101q-9 13 -5 21.5t20 8.5h107q28 0 41 -30l40 -92q12 -29 -16 -29h-79q-26 0 -39 20z" />
    <glyph glyph-name="wgrave" unicode="&#x1e81;" horiz-adv-x="744" 
d="M737 470l-127 -443q-5 -16 -10 -21.5t-20 -5.5h-123q-15 0 -21 6t-9 21l-41 191q-9 38 -9 55q0 -1 -2 -10t-5 -22t-6 -23l-57 -191q-4 -15 -9.5 -21t-20.5 -6h-120q-15 0 -20.5 5.5t-9.5 21.5l-120 443q-9 30 29 30h98q25 0 33 -30l58 -222q2 -10 4 -22t3 -20t1 -9
q0 8 12 51l62 222q8 30 33 30h97q26 0 33 -30l48 -222l9 -51q8 39 11 51l56 222q8 30 33 30h81q38 0 29 -30zM308 577l-69 101q-9 13 -5 21.5t20 8.5h107q28 0 41 -30l40 -92q12 -29 -16 -29h-79q-26 0 -39 20z" />
    <glyph glyph-name="Wacute" unicode="&#x1e82;" horiz-adv-x="855" 
d="M521 650l68 -279q11 -45 17 -108q9 72 18 107l70 280q8 30 35 30h94q30 0 22 -30l-156 -620q-7 -30 -37 -30h-105q-25 0 -33 30l-72 288q-10 40 -14 99q-10 -75 -15 -100l-72 -287q-7 -30 -37 -30h-105q-25 0 -33 30l-156 620q-8 30 22 30h110q27 0 35 -30l68 -280
q3 -14 6.5 -33.5t6 -36t3.5 -19.5q6 40 18 89l71 280q8 30 35 30h101q27 0 35 -30zM579 848l-69 -101q-13 -20 -39 -20h-79q-28 0 -16 29l40 92q13 30 41 30h107q16 0 20 -8.5t-5 -21.5z" />
    <glyph glyph-name="wacute" unicode="&#x1e83;" horiz-adv-x="744" 
d="M533 678l-69 -101q-13 -20 -39 -20h-79q-28 0 -16 29l40 92q13 30 41 30h107q16 0 20 -8.5t-5 -21.5zM737 470l-127 -443q-5 -16 -10 -21.5t-20 -5.5h-123q-15 0 -21 6t-9 21l-41 191q-9 38 -9 55q0 -1 -2 -10t-5 -22t-6 -23l-57 -191q-4 -15 -9.5 -21t-20.5 -6h-120
q-15 0 -20.5 5.5t-9.5 21.5l-120 443q-9 30 29 30h98q25 0 33 -30l58 -222q2 -10 4 -22t3 -20t1 -9q0 8 12 51l62 222q8 30 33 30h97q26 0 33 -30l48 -222l9 -51q8 39 11 51l56 222q8 30 33 30h81q38 0 29 -30z" />
    <glyph glyph-name="Wdieresis" unicode="&#x1e84;" horiz-adv-x="855" 
d="M521 650l68 -279q11 -45 17 -108q9 72 18 107l70 280q8 30 35 30h94q30 0 22 -30l-156 -620q-7 -30 -37 -30h-105q-25 0 -33 30l-72 288q-10 40 -14 99q-10 -75 -15 -100l-72 -287q-7 -30 -37 -30h-105q-25 0 -33 30l-156 620q-8 30 22 30h110q27 0 35 -30l68 -280
q3 -14 6.5 -33.5t6 -36t3.5 -19.5q6 40 18 89l71 280q8 30 35 30h101q27 0 35 -30zM563 848v-92q0 -16 -6 -22.5t-22 -6.5h-60q-16 0 -22.5 6.5t-6.5 22.5v92q0 30 29 30h60q28 0 28 -30zM408 848v-92q0 -16 -6 -22.5t-22 -6.5h-60q-16 0 -22.5 6.5t-6.5 22.5v92q0 30 29 30
h60q28 0 28 -30z" />
    <glyph glyph-name="wdieresis" unicode="&#x1e85;" horiz-adv-x="744" 
d="M366 678v-92q0 -16 -6 -22.5t-22 -6.5h-60q-16 0 -22.5 6.5t-6.5 22.5v92q0 30 29 30h60q28 0 28 -30zM521 678v-92q0 -16 -6 -22.5t-22 -6.5h-60q-16 0 -22.5 6.5t-6.5 22.5v92q0 30 29 30h60q28 0 28 -30zM737 470l-127 -443q-5 -16 -10 -21.5t-20 -5.5h-123
q-15 0 -21 6t-9 21l-41 191q-9 38 -9 55q0 -1 -2 -10t-5 -22t-6 -23l-57 -191q-4 -15 -9.5 -21t-20.5 -6h-120q-15 0 -20.5 5.5t-9.5 21.5l-120 443q-9 30 29 30h98q25 0 33 -30l58 -222q2 -10 4 -22t3 -20t1 -9q0 8 12 51l62 222q8 30 33 30h97q26 0 33 -30l48 -222l9 -51
q8 39 11 51l56 222q8 30 33 30h81q38 0 29 -30z" />
    <glyph glyph-name="Ygrave" unicode="&#x1ef2;" horiz-adv-x="558" 
d="M191 650l71 -199q7 -20 17 -60q9 35 20 60l84 199q12 30 35 30h106q16 0 22 -8t0 -22l-184 -398v-222q0 -30 -28 -30h-108q-29 0 -29 30v202l-185 418q-6 14 -0.5 22t21.5 8h122q26 0 36 -30zM208 747l-69 101q-9 13 -5 21.5t20 8.5h107q28 0 41 -30l40 -92
q12 -29 -16 -29h-79q-26 0 -39 20z" />
    <glyph glyph-name="ygrave" unicode="&#x1ef3;" horiz-adv-x="494" 
d="M171 470l57 -181q4 -13 7 -27.5t5 -25.5t3 -20.5t2 -15.5t1 -7q6 38 24 91l62 186q9 30 33 30h93q17 0 25.5 -8t3.5 -22l-217 -639q-10 -30 -33 -30h-74q-17 0 -25 8t-4 22l43 152l-170 487q-5 14 3.5 22t25.5 8h102q14 0 21 -7t12 -23zM179 577l-69 101q-9 13 -5 21.5
t20 8.5h107q28 0 41 -30l40 -92q12 -29 -16 -29h-79q-26 0 -39 20z" />
    <glyph glyph-name="endash" unicode="&#x2013;" horiz-adv-x="527" 
d="M80 353h367q30 0 30 -28v-73q0 -29 -30 -29h-367q-30 0 -30 29v73q0 28 30 28z" />
    <glyph glyph-name="emdash" unicode="&#x2014;" horiz-adv-x="838" 
d="M80 353h678q30 0 30 -28v-73q0 -29 -30 -29h-678q-30 0 -30 29v73q0 28 30 28z" />
    <glyph glyph-name="quoteleft" unicode="&#x2018;" horiz-adv-x="293" 
d="M213 594v-70q0 -30 -29 -30h-106q-28 0 -28 30v79q0 122 165 160q28 7 37 -20l24 -68q10 -28 -20 -37q-25 -7 -34 -17t-9 -27z" />
    <glyph glyph-name="quoteright" unicode="&#x2019;" horiz-adv-x="293" 
d="M80 663v70q0 30 29 30h106q28 0 28 -30v-79q0 -122 -165 -160q-28 -7 -37 20l-24 68q-10 28 20 37q25 7 34 17t9 27z" />
    <glyph glyph-name="quotesinglbase" unicode="&#x201a;" horiz-adv-x="293" 
d="M80 42v70q0 30 29 30h106q28 0 28 -30v-79q0 -122 -165 -160q-28 -7 -37 20l-24 68q-10 28 20 37q25 7 34 17t9 27z" />
    <glyph glyph-name="quotedblleft" unicode="&#x201c;" horiz-adv-x="539" 
d="M459 594v-70q0 -30 -29 -30h-106q-28 0 -28 30v79q0 122 165 160q28 7 37 -20l24 -68q10 -28 -20 -37q-25 -7 -34 -17t-9 -27zM213 594v-70q0 -30 -29 -30h-106q-28 0 -28 30v79q0 122 165 160q28 7 37 -20l24 -68q10 -28 -20 -37q-25 -7 -34 -17t-9 -27z" />
    <glyph glyph-name="quotedblright" unicode="&#x201d;" horiz-adv-x="539" 
d="M326 663v70q0 30 29 30h106q28 0 28 -30v-79q0 -122 -165 -160q-28 -7 -37 20l-24 68q-10 28 20 37q25 7 34 17t9 27zM80 663v70q0 30 29 30h106q28 0 28 -30v-79q0 -122 -165 -160q-28 -7 -37 20l-24 68q-10 28 20 37q25 7 34 17t9 27z" />
    <glyph glyph-name="quotedblbase" unicode="&#x201e;" horiz-adv-x="539" 
d="M326 42v70q0 30 29 30h106q28 0 28 -30v-79q0 -122 -165 -160q-28 -7 -37 20l-24 68q-10 28 20 37q25 7 34 17t9 27zM80 42v70q0 30 29 30h106q28 0 28 -30v-79q0 -122 -165 -160q-28 -7 -37 20l-24 68q-10 28 20 37q25 7 34 17t9 27z" />
    <glyph glyph-name="dagger" unicode="&#x2020;" horiz-adv-x="724" 
d="M442 669v-639q0 -30 -28 -30h-103q-29 0 -29 30v639q0 30 29 30h103q28 0 28 -30zM90 520h132q30 0 30 -28v-73q0 -29 -30 -29h-132q-30 0 -30 29v73q0 28 30 28zM502 520h132q30 0 30 -28v-73q0 -29 -30 -29h-132q-30 0 -30 29v73q0 28 30 28z" />
    <glyph glyph-name="daggerdbl" unicode="&#x2021;" horiz-adv-x="724" 
d="M442 669v-639q0 -30 -28 -30h-103q-29 0 -29 30v639q0 30 29 30h103q28 0 28 -30zM90 520h132q30 0 30 -28v-73q0 -29 -30 -29h-132q-30 0 -30 29v73q0 28 30 28zM502 520h132q30 0 30 -28v-73q0 -29 -30 -29h-132q-30 0 -30 29v73q0 28 30 28zM90 305h132q30 0 30 -28
v-73q0 -29 -30 -29h-132q-30 0 -30 29v73q0 28 30 28zM502 305h132q30 0 30 -28v-73q0 -29 -30 -29h-132q-30 0 -30 29v73q0 28 30 28z" />
    <glyph glyph-name="bullet" unicode="&#x2022;" horiz-adv-x="283" 
d="M223 352v-153q0 -16 -6 -22.5t-22 -6.5h-106q-16 0 -22.5 6.5t-6.5 22.5v153q0 30 29 30h106q28 0 28 -30z" />
    <glyph glyph-name="ellipsis" unicode="&#x2026;" horiz-adv-x="758" 
d="M213 112v-83q0 -16 -6 -22.5t-22 -6.5h-106q-16 0 -22.5 6.5t-6.5 22.5v83q0 30 29 30h106q28 0 28 -30zM708 112v-83q0 -16 -6 -22.5t-22 -6.5h-106q-16 0 -22.5 6.5t-6.5 22.5v83q0 30 29 30h106q28 0 28 -30zM461 112v-83q0 -16 -6 -22.5t-22 -6.5h-106
q-16 0 -22.5 6.5t-6.5 22.5v83q0 30 29 30h106q28 0 28 -30z" />
    <glyph glyph-name="perthousand" unicode="&#x2030;" horiz-adv-x="1296" 
d="M60 475v94q0 119 166 119q165 0 165 -119v-94q0 -119 -165 -119q-166 0 -166 119zM261 481v83q0 22 -36 22q-35 0 -35 -22v-83q0 -23 35 -23q36 0 36 23zM722 115v83q0 22 -36 22q-35 0 -35 -22v-83q0 -23 35 -23q36 0 36 23zM521 109v94q0 119 166 119q165 0 165 -119
v-94q0 -119 -165 -119q-166 0 -166 119zM1106 115v83q0 22 -36 22q-35 0 -35 -22v-83q0 -23 35 -23q36 0 36 23zM905 109v94q0 119 166 119q165 0 165 -119v-94q0 -119 -165 -119q-166 0 -166 119zM693 650l-328 -620q-16 -30 -43 -30h-86q-13 0 -16.5 10.5t2.5 19.5
l328 620q15 30 43 30h86q13 0 17 -9t-3 -21z" />
    <glyph glyph-name="guilsinglleft" unicode="&#x2039;" horiz-adv-x="366" 
d="M276 304l-90 -59l90 -58q30 -20 30 -41v-100q0 -16 -10 -22.5t-20 1.5l-189 131q-27 18 -27 40v99q0 21 27 40l189 131q12 8 21 1.5t9 -22.5v-100q0 -10 -5 -18t-9.5 -12t-15.5 -11z" />
    <glyph glyph-name="guilsinglright" unicode="&#x203a;" horiz-adv-x="366" 
d="M180 245l-90 59q-11 7 -15.5 11t-9.5 12t-5 18v100q0 16 9 22.5t21 -1.5l189 -131q27 -19 27 -40v-99q0 -22 -27 -40l-189 -131q-10 -8 -20 -1.5t-10 22.5v100q0 21 30 41z" />
    <glyph glyph-name="fraction" unicode="&#x2044;" horiz-adv-x="458" 
d="M464 650l-328 -620q-16 -30 -43 -30h-86q-13 0 -16.5 10.5t2.5 19.5l328 620q15 30 43 30h86q13 0 17 -9t-3 -21z" />
    <glyph glyph-name="Euro" unicode="&#x20ac;" horiz-adv-x="665" 
d="M90 316h23v44h-23q-30 0 -30 29v43q0 28 30 28h23v57q0 74 58 122.5t188 48.5t188 -48.5t58 -122.5v-46q0 -30 -28 -30h-103q-29 0 -29 30v17q0 65 -84 65q-83 0 -83 -65v-28h73q30 0 30 -28v-43q0 -29 -30 -29h-73v-44h73q30 0 30 -28v-43q0 -29 -30 -29h-73v-24
q0 -65 83 -65q84 0 84 65v32q0 30 29 30h103q28 0 28 -30v-61q0 -74 -58 -122.5t-188 -48.5t-188 48.5t-58 122.5v53h-23q-30 0 -30 29v43q0 28 30 28z" />
    <glyph glyph-name="afii61289" unicode="&#x2113;" horiz-adv-x="591" 
d="M95 153v3l-6 -3q-27 -13 -38 14l-33 77q-12 27 16 39l61 29v205q0 71 56 121t164 50q102 0 154.5 -50t52.5 -121q0 -50 -21.5 -92.5t-63.5 -77.5t-82.5 -59.5t-99.5 -53.5v-41q0 -63 58 -63h121q30 0 30 -28v-73q0 -16 -6.5 -22.5t-22.5 -6.5h-123q-111 0 -164 42
t-53 111zM255 495v-104q117 66 117 114q0 25 -16.5 39t-42.5 14q-58 0 -58 -63z" />
    <glyph glyph-name="trademark" unicode="&#x2122;" horiz-adv-x="933" 
d="M873 655v-358q0 -25 -24 -25h-81q-24 0 -24 25v139q0 -1 -2 -6t-4 -12t-4 -11l-22 -49q-11 -24 -32 -24h-56q-23 0 -34 24l-25 51q-5 12 -11 34v-146q0 -25 -23 -25h-77q-25 0 -25 25v358q0 25 25 25h77q15 0 21 -11l82 -152q9 -17 17 -37q7 17 15 34l80 155q5 11 22 11
h81q24 0 24 -25zM85 680h276q25 0 25 -23v-64q0 -24 -25 -24h-70v-272q0 -25 -24 -25h-87q-24 0 -24 25v272h-71q-25 0 -25 24v64q0 23 25 23z" />
    <glyph glyph-name="uni2126" unicode="&#x2126;" horiz-adv-x="410" 
d="M62 323q0 59 42 101t100 42t100.5 -42t42.5 -101q0 -58 -42 -100t-101 -42q-58 0 -100 41.5t-42 100.5zM83 323q0 -51 35 -86t86 -35t86.5 35t35.5 86q0 50 -36 86t-86 36q-51 0 -86 -35.5t-35 -86.5z" />
    <glyph glyph-name="estimated" unicode="&#x212e;" horiz-adv-x="833" 
d="M759 340q0 -10 -4.5 -13t-14.5 -3h-517v-227q82 -65 190 -65q134 0 235 109q5 5 12 5q8 0 13.5 -6t5.5 -15q0 -8 -8 -18q-46 -53 -114 -84t-144 -31q-147 0 -247.5 97.5t-100.5 250.5q0 144 102 246t246 102t245 -102t101 -246zM413 648q-106 0 -190 -66v-223h381v223
q-85 66 -191 66z" />
    <glyph glyph-name="partialdiff" unicode="&#x2202;" horiz-adv-x="410" 
d="M85 183v287q0 13 12.5 15t24.5 -6l217 -134q11 -7 11 -18t-11 -18l-217 -134q-8 -5 -16.5 -6.5t-14.5 2t-6 12.5z" />
    <glyph glyph-name="uni2206" unicode="&#x2206;" horiz-adv-x="410" 
d="M110 445h190q26 0 26 -26v-190q0 -26 -26 -26h-190q-26 0 -26 26v190q0 26 26 26z" />
    <glyph glyph-name="product" unicode="&#x220f;" horiz-adv-x="410" 
d="M349 192h-287q-13 0 -15 12.5t6 24.5l134 217q7 10 18 10t18 -10l134 -217q5 -8 6.5 -16.5t-2 -14.5t-12.5 -6z" />
    <glyph glyph-name="summation" unicode="&#x2211;" horiz-adv-x="410" 
d="M325 470v-287q0 -9 -6 -12.5t-14.5 -2t-16.5 6.5l-217 134q-11 7 -11 18t11 18l217 134q12 8 24.5 6t12.5 -15z" />
    <glyph glyph-name="minus" unicode="&#x2212;" horiz-adv-x="577" 
d="M80 389h417q30 0 30 -28v-73q0 -29 -30 -29h-417q-30 0 -30 29v73q0 28 30 28z" />
    <glyph glyph-name="radical" unicode="&#x221a;" horiz-adv-x="410" 
d="M110 455h190q20 0 28 -8.5t8 -27.5v-190q0 -19 -8 -27.5t-28 -8.5h-190q-20 0 -28 8.5t-8 27.5v190q0 19 8 27.5t28 8.5zM300 434h-190q-16 0 -16 -15v-190q0 -16 16 -16h190q15 0 15 16v190q0 15 -15 15z" />
    <glyph glyph-name="infinity" unicode="&#x221e;" horiz-adv-x="410" 
d="M45 349l135 135q13 13 25 13t25 -13l135 -135q13 -13 13 -25t-13 -25l-135 -135q-14 -14 -25 -14t-25 14l-135 135q-14 14 -14 25t14 25zM194 469l-134 -134q-6 -6 -6 -12q0 -5 5 -10l135 -135q4 -5 11 -5q6 0 11 5l135 135q5 5 5 10q0 6 -6 12l-134 134q-7 5 -11 5
q-6 0 -11 -5z" />
    <glyph glyph-name="integral" unicode="&#x222b;" horiz-adv-x="410" 
d="M20 323q0 77 54 131t130 54t130.5 -54t54.5 -131q0 -76 -54 -130t-131 -54q-76 0 -130 53.5t-54 130.5z" />
    <glyph glyph-name="approxequal" unicode="&#x2248;" horiz-adv-x="512" 
d="M182 365q-17 0 -22 -27l-1 -4q-4 -15 -10.5 -20.5t-21.5 -5.5h-52q-27 0 -24 34l5 56q4 45 30 67t58 22q37 0 60 -11l89 -40q27 -11 39 -11q13 0 19 24l1 4q4 15 10.5 20.5t21.5 5.5h52q30 0 25 -34l-6 -46q-6 -48 -30.5 -73t-57.5 -25q-35 0 -65 14l-89 41q-19 9 -31 9z
M182 163q-17 0 -22 -27l-1 -4q-4 -15 -10.5 -20.5t-21.5 -5.5h-52q-27 0 -24 34l5 56q4 45 30 67t58 22q37 0 60 -11l89 -40q27 -11 39 -11q13 0 19 24l1 4q4 15 10.5 20.5t21.5 5.5h52q30 0 25 -34l-6 -46q-6 -48 -30.5 -73t-57.5 -25q-35 0 -65 14l-89 41q-19 9 -31 9z
" />
    <glyph glyph-name="notequal" unicode="&#x2260;" horiz-adv-x="577" 
d="M80 490h194l19 50q11 30 37 30h96q31 0 20 -30l-19 -50h70q30 0 30 -28v-73q0 -29 -30 -29h-118l-31 -86h149q30 0 30 -28v-73q0 -29 -30 -29h-197l-18 -49q-11 -30 -38 -30h-95q-29 0 -19 30l18 49h-68q-30 0 -30 29v73q0 28 30 28h115l32 86h-147q-30 0 -30 29v73
q0 28 30 28z" />
    <glyph glyph-name="lessequal" unicode="&#x2264;" horiz-adv-x="515" 
d="M435 493l-230 -61l230 -60q30 -8 30 -33v-98q0 -17 -7.5 -26t-22.5 -3l-358 131q-10 4 -14.5 6.5t-8.5 9t-4 16.5v115q0 10 4 16.5t8.5 9t14.5 6.5l358 131q14 5 22 -3.5t8 -25.5v-98q0 -25 -30 -33zM80 180h355q30 0 30 -28v-73q0 -29 -30 -29h-355q-30 0 -30 29v73
q0 28 30 28z" />
    <glyph glyph-name="greaterequal" unicode="&#x2265;" horiz-adv-x="515" 
d="M310 432l-230 61q-30 8 -30 33v98q0 17 8 25.5t22 3.5l358 -131q10 -4 14.5 -6.5t8.5 -9t4 -16.5v-115q0 -10 -4 -16.5t-8.5 -9t-14.5 -6.5l-358 -131q-15 -6 -22.5 3t-7.5 26v98q0 25 30 33zM80 180h355q30 0 30 -28v-73q0 -29 -30 -29h-355q-30 0 -30 29v73q0 28 30 28
z" />
    <glyph glyph-name="lozenge" unicode="&#x25ca;" horiz-adv-x="410" 
d="M52 342l135 135q9 9 18 9t18 -9l135 -135q9 -9 9 -18t-9 -18l-135 -135q-9 -9 -18 -9t-18 9l-135 135q-9 9 -9 18t9 18z" />
    <glyph glyph-name="CR" horiz-adv-x="0" 
 />
    <glyph glyph-name="commaaccent" horiz-adv-x="299" 
d="M101 80v32q0 30 29 30h76q28 0 28 -30v-41q0 -66 -48 -140q-13 -20 -39 -15l-57 13q-29 7 -15 39q1 3 5.5 12t5 11t3.5 9t3.5 9t3 8.5t2.5 10t1 10t1 12.5t0.5 13.5t0.5 16.5z" />
    <glyph glyph-name="acute.case" horiz-adv-x="180" 
d="M190 848l-69 -101q-13 -20 -39 -20h-79q-28 0 -16 29l40 92q13 30 41 30h107q16 0 20 -8.5t-5 -21.5z" />
    <glyph glyph-name="macron.case" horiz-adv-x="180" 
d="M-20 860h221q30 0 30 -28v-63q0 -29 -30 -29h-221q-30 0 -30 29v63q0 28 30 28z" />
    <glyph glyph-name="breve.case" horiz-adv-x="180" 
d="M55 857v-17q0 -33 35 -33t35 33v17q0 13 6 18.5t20 5.5h61q14 0 20 -5.5t6 -18.5v-13q0 -62 -40.5 -96t-111.5 -34q-70 0 -107 33.5t-37 96.5v13q0 13 6 18.5t20 5.5h61q14 0 20 -5.5t6 -18.5z" />
    <glyph glyph-name="caron.case" horiz-adv-x="180" 
d="M78 849l12 -28l12 28q12 29 41 29h78q16 0 20.5 -8.5t-4.5 -20.5l-71 -92q-23 -30 -47 -30h-58q-24 0 -47 30l-71 92q-9 12 -4.5 20.5t20.5 8.5h78q29 0 41 -29z" />
    <glyph glyph-name="ring.case" horiz-adv-x="180" 
d="M212 826v-34q0 -34 -30.5 -57t-91.5 -23t-91.5 23t-30.5 57v34q0 34 30.5 57t91.5 23t91.5 -23t30.5 -57zM128 801v16q0 27 -38 27t-38 -27v-16q0 -28 38 -28t38 28z" />
    <glyph glyph-name="circumflex.case" horiz-adv-x="180" 
d="M90 784l-12 -28q-12 -29 -41 -29h-78q-16 0 -20.5 8.5t4.5 20.5l71 92q23 30 47 30h58q24 0 47 -30l71 -92q9 -12 4.5 -20.5t-20.5 -8.5h-78q-27 0 -41 29z" />
    <glyph glyph-name="tilde.case" horiz-adv-x="180" 
d="M37 770q-16 0 -19 -13l-1 -4q-4 -15 -10.5 -20.5t-21.5 -5.5h-53q-27 0 -24 34l6 49q4 35 30.5 55.5t63.5 20.5q30 0 58 -11l42 -16q30 -12 36 -12q16 0 19 13l1 4q4 15 10.5 20.5t21.5 5.5h52q28 0 25 -34l-4 -45q-4 -37 -27 -56.5t-57 -19.5q-37 0 -69 10l-43 14
q-31 11 -36 11z" />
    <glyph glyph-name="dieresis.case" horiz-adv-x="180" 
d="M71 848v-92q0 -16 -6 -22.5t-22 -6.5h-60q-16 0 -22.5 6.5t-6.5 22.5v92q0 30 29 30h60q28 0 28 -30zM226 848v-92q0 -16 -6 -22.5t-22 -6.5h-60q-16 0 -22.5 6.5t-6.5 22.5v92q0 30 29 30h60q28 0 28 -30z" />
    <glyph glyph-name="dotaccent.case" horiz-adv-x="180" 
d="M172 839v-83q0 -16 -6 -22.5t-22 -6.5h-106q-16 0 -22.5 6.5t-6.5 22.5v83q0 30 29 30h106q28 0 28 -30z" />
    <glyph glyph-name="grave.case" horiz-adv-x="180" 
d="M59 747l-69 101q-9 13 -5 21.5t20 8.5h107q28 0 41 -30l40 -92q12 -29 -16 -29h-79q-26 0 -39 20z" />
    <glyph glyph-name="hungarumlaut.case" horiz-adv-x="180" 
d="M273 848l-66 -92q-21 -29 -44 -29h-75q-32 0 -16 29l51 92q17 30 45 30h90q16 0 20 -8.5t-5 -21.5zM91 848l-51 -92q-16 -29 -39 -29h-75q-32 0 -21 29l36 92q13 30 40 30h90q16 0 21.5 -8.5t-1.5 -21.5z" />
    <glyph glyph-name="apple" horiz-adv-x="1471" 
d="M706 320q17 0 28.5 -13.5t11.5 -37.5q0 -68 -87 -68v-40l3 -32q-24 -8 -32 -8q-11 0 -11 8v75l-25 -3v-3q0 -79 -68 -79q-21 0 -31 10.5t-10 23.5q0 36 70 53v42q-17 -48 -46 -48q-28 0 -28 31v3q-19 -33 -53 -33q-29 0 -29 30v101l-29 -2v4q0 20 12 20h17l-3 30
q24 8 32 8q11 0 11 -8v-29h47v-3q0 -21 -12 -21h-35v-86q0 -16 13 -16q9 0 19 8t10 18v25l-3 33q24 8 32 8q11 0 11 -9v-66q0 -15 7 -15t17 17.5t9 30.5l-2 34q24 8 31 8q11 0 11 -9v-99l25 3v61l-3 36q24 8 32 8q11 0 11 -9v-40q17 48 47 48zM375 289v-49l3 -32
q-24 -8 -31 -8q-11 0 -11 8v66q0 16 -8 16q-6 0 -16.5 -17.5t-9.5 -30.5l2 -34q-24 -8 -31 -8q-11 0 -11 8v66q0 16 -8 16q-7 0 -16.5 -17.5t-9.5 -30.5l3 -34q-24 -8 -32 -8q-11 0 -11 8v69l-3 36q24 8 32 8q11 0 11 -9v-40q3 9 7.5 19t15 20t22.5 10q29 0 29 -32v-17
q14 49 45 49q28 0 28 -32zM1208 332l-29 -2v4q0 20 12 20h17l-3 30q24 8 32 8q11 0 11 -8v-29h47v-3q0 -21 -12 -21h-35v-90q0 -15 16 -15q11 0 38.5 5.5t46.5 5.5q17 0 39.5 -6t22.5 -18q0 -14 -9.5 -21t-17.5 -7q-2 0 -26.5 12t-44.5 12q-7 0 -32 -4t-44 -4t-23 12.5
t-5 65.5q0 32 -1 53zM64 529v8h1338v-8h-1338zM64 0v8h1338v-8h-1338zM1066 289v-49l2 -32q-24 -8 -31 -8q-11 0 -11 8v67q0 15 -8 15q-7 0 -16.5 -17.5t-9.5 -30.5l3 -34q-24 -8 -32 -8q-11 0 -11 8v69l-3 36q24 8 32 8q11 0 11 -9v-40q18 49 45 49q29 0 29 -32zM145 258
q-16 -6 -44 -6q2 -22 26 -22q17 0 32 9q8 -5 8 -16q0 -4 -2.5 -8.5t-14 -9.5t-30.5 -5q-28 0 -44 14.5t-16 38.5q0 27 18.5 47.5t50.5 20.5q19 0 30 -9.5t11 -21.5q0 -24 -25 -32zM844 258q-16 -6 -44 -6q2 -22 26 -22q17 0 32 9q8 -5 8 -16q0 -4 -2.5 -8.5t-14 -9.5
t-30.5 -5q-28 0 -44 14.5t-16 38.5q0 27 18.5 47.5t50.5 20.5q19 0 30 -9.5t11 -21.5q0 -24 -25 -32zM1167 258q-16 -6 -44 -6q2 -22 26 -22q17 0 32 9q8 -5 8 -16q0 -4 -2.5 -8.5t-14 -9.5t-30.5 -5q-28 0 -44 14.5t-16 38.5q0 27 18.5 47.5t50.5 20.5q19 0 30 -9.5
t11 -21.5q0 -24 -25 -32zM659 219q45 6 45 51q0 20 -13 20t-22.5 -18.5t-9.5 -29.5v-23zM909 250q11 0 18.5 -7t7.5 -17t-7.5 -16.5t-18.5 -6.5t-18 6.5t-7 16.5t7 17t18 7zM554 194q-41 -9 -41 -32q0 -14 14 -14q25 0 27 46zM100 264q37 0 37 21q0 13 -13 13q-20 0 -24 -34
zM1122 264q37 0 37 21q0 13 -13 13q-20 0 -24 -34zM799 264q37 0 37 21q0 13 -13 13q-20 0 -24 -34z" />
    </font>
</defs>
</svg>
